<mxfile host="app.diagrams.net" modified="2023-05-02T09:15:32.943Z" agent="Mozilla/5.0 (Macintosh; Intel Mac OS X 10_15_7) AppleWebKit/537.36 (KHTML, like Gecko) Chrome/112.0.0.0 Safari/537.36" etag="lDHmuFfEgAqy_gp2crX1" version="21.1.8" type="device">
  <diagram name="Page-1" id="FgLuap44XJ5UT9zUbCwf">
    <mxGraphModel dx="948" dy="634" grid="1" gridSize="10" guides="1" tooltips="1" connect="1" arrows="1" fold="1" page="1" pageScale="1" pageWidth="2336" pageHeight="1654" math="0" shadow="0">
      <root>
        <mxCell id="0" />
        <mxCell id="1" parent="0" />
        <mxCell id="PaHSEo2nT983F2EYWPFA-11" style="edgeStyle=orthogonalEdgeStyle;rounded=0;orthogonalLoop=1;jettySize=auto;html=1;entryX=0;entryY=0.5;entryDx=0;entryDy=0;startArrow=none;startFill=0;" edge="1" parent="1">
          <mxGeometry relative="1" as="geometry">
            <mxPoint x="258" y="226" as="sourcePoint" />
            <mxPoint x="350" y="226" as="targetPoint" />
            <Array as="points">
              <mxPoint x="300" y="226" />
              <mxPoint x="300" y="226" />
            </Array>
          </mxGeometry>
        </mxCell>
        <mxCell id="PaHSEo2nT983F2EYWPFA-1" value="G2P Beneficiary System" style="rounded=0;whiteSpace=wrap;html=1;fillColor=#FFD966;" vertex="1" parent="1">
          <mxGeometry x="118" y="170" width="140" height="120" as="geometry" />
        </mxCell>
        <mxCell id="PaHSEo2nT983F2EYWPFA-9" style="edgeStyle=orthogonalEdgeStyle;rounded=0;orthogonalLoop=1;jettySize=auto;html=1;exitX=1;exitY=0.5;exitDx=0;exitDy=0;" edge="1" parent="1" source="PaHSEo2nT983F2EYWPFA-2">
          <mxGeometry relative="1" as="geometry">
            <mxPoint x="630" y="230" as="targetPoint" />
          </mxGeometry>
        </mxCell>
        <mxCell id="PaHSEo2nT983F2EYWPFA-21" style="edgeStyle=orthogonalEdgeStyle;rounded=0;orthogonalLoop=1;jettySize=auto;html=1;exitX=1;exitY=0.75;exitDx=0;exitDy=0;entryX=0;entryY=0.5;entryDx=0;entryDy=0;" edge="1" parent="1" source="PaHSEo2nT983F2EYWPFA-2" target="PaHSEo2nT983F2EYWPFA-17">
          <mxGeometry relative="1" as="geometry" />
        </mxCell>
        <mxCell id="PaHSEo2nT983F2EYWPFA-22" style="edgeStyle=orthogonalEdgeStyle;rounded=0;orthogonalLoop=1;jettySize=auto;html=1;exitX=1;exitY=0.25;exitDx=0;exitDy=0;entryX=0;entryY=0.5;entryDx=0;entryDy=0;" edge="1" parent="1" source="PaHSEo2nT983F2EYWPFA-2" target="PaHSEo2nT983F2EYWPFA-14">
          <mxGeometry relative="1" as="geometry" />
        </mxCell>
        <mxCell id="PaHSEo2nT983F2EYWPFA-26" style="edgeStyle=orthogonalEdgeStyle;rounded=0;orthogonalLoop=1;jettySize=auto;html=1;exitX=0;exitY=0.75;exitDx=0;exitDy=0;entryX=1;entryY=0.75;entryDx=0;entryDy=0;" edge="1" parent="1" source="PaHSEo2nT983F2EYWPFA-2" target="PaHSEo2nT983F2EYWPFA-1">
          <mxGeometry relative="1" as="geometry" />
        </mxCell>
        <mxCell id="PaHSEo2nT983F2EYWPFA-2" value="&lt;b&gt;G2P Payments Orchestrator&lt;/b&gt;" style="rounded=0;whiteSpace=wrap;html=1;fillColor=#97D077;" vertex="1" parent="1">
          <mxGeometry x="350" y="170" width="120" height="120" as="geometry" />
        </mxCell>
        <mxCell id="PaHSEo2nT983F2EYWPFA-14" value="" style="shape=image;imageAspect=0;aspect=fixed;verticalLabelPosition=bottom;verticalAlign=top;image=data:image/jpeg,/9j/4AAQSkZJRgABAQEBLAEsAAD/4gxYSUNDX1BST0ZJTEUAAQEAAAxITGlubwIQAABtbnRyUkdCIFhZWiAHzgACAAkABgAxAABhY3NwTVNGVAAAAABJRUMgc1JHQgAAAAAAAAAAAAAAAQAA9tYAAQAAAADTLUhQICAAAAAAAAAAAAAAAAAAAAAAAAAAAAAAAAAAAAAAAAAAAAAAAAAAAAAAAAAAAAAAABFjcHJ0AAABUAAAADNkZXNjAAABhAAAAGx3dHB0AAAB8AAAABRia3B0AAACBAAAABRyWFlaAAACGAAAABRnWFlaAAACLAAAABRiWFlaAAACQAAAABRkbW5kAAACVAAAAHBkbWRkAAACxAAAAIh2dWVkAAADTAAAAIZ2aWV3AAAD1AAAACRsdW1pAAAD+AAAABRtZWFzAAAEDAAAACR0ZWNoAAAEMAAAAAxyVFJDAAAEPAAACAxnVFJDAAAEPAAACAxiVFJDAAAEPAAACAx0ZXh0AAAAAENvcHlyaWdodCAoYykgMTk5OCBIZXdsZXR0LVBhY2thcmQgQ29tcGFueQAAZGVzYwAAAAAAAAASc1JHQiBJRUM2MTk2Ni0yLjEAAAAAAAAAAAAAABJzUkdCIElFQzYxOTY2LTIuMQAAAAAAAAAAAAAAAAAAAAAAAAAAAAAAAAAAAAAAAAAAAAAAAAAAAAAAAAAAAAAAAAAAWFlaIAAAAAAAAPNRAAEAAAABFsxYWVogAAAAAAAAAAAAAAAAAAAAAFhZWiAAAAAAAABvogAAOPUAAAOQWFlaIAAAAAAAAGKZAAC3hQAAGNpYWVogAAAAAAAAJKAAAA+EAAC2z2Rlc2MAAAAAAAAAFklFQyBodHRwOi8vd3d3LmllYy5jaAAAAAAAAAAAAAAAFklFQyBodHRwOi8vd3d3LmllYy5jaAAAAAAAAAAAAAAAAAAAAAAAAAAAAAAAAAAAAAAAAAAAAAAAAAAAAAAAAAAAAABkZXNjAAAAAAAAAC5JRUMgNjE5NjYtMi4xIERlZmF1bHQgUkdCIGNvbG91ciBzcGFjZSAtIHNSR0IAAAAAAAAAAAAAAC5JRUMgNjE5NjYtMi4xIERlZmF1bHQgUkdCIGNvbG91ciBzcGFjZSAtIHNSR0IAAAAAAAAAAAAAAAAAAAAAAAAAAAAAZGVzYwAAAAAAAAAsUmVmZXJlbmNlIFZpZXdpbmcgQ29uZGl0aW9uIGluIElFQzYxOTY2LTIuMQAAAAAAAAAAAAAALFJlZmVyZW5jZSBWaWV3aW5nIENvbmRpdGlvbiBpbiBJRUM2MTk2Ni0yLjEAAAAAAAAAAAAAAAAAAAAAAAAAAAAAAAAAAHZpZXcAAAAAABOk/gAUXy4AEM8UAAPtzAAEEwsAA1yeAAAAAVhZWiAAAAAAAEwJVgBQAAAAVx/nbWVhcwAAAAAAAAABAAAAAAAAAAAAAAAAAAAAAAAAAo8AAAACc2lnIAAAAABDUlQgY3VydgAAAAAAAAQAAAAABQAKAA8AFAAZAB4AIwAoAC0AMgA3ADsAQABFAEoATwBUAFkAXgBjAGgAbQByAHcAfACBAIYAiwCQAJUAmgCfAKQAqQCuALIAtwC8AMEAxgDLANAA1QDbAOAA5QDrAPAA9gD7AQEBBwENARMBGQEfASUBKwEyATgBPgFFAUwBUgFZAWABZwFuAXUBfAGDAYsBkgGaAaEBqQGxAbkBwQHJAdEB2QHhAekB8gH6AgMCDAIUAh0CJgIvAjgCQQJLAlQCXQJnAnECegKEAo4CmAKiAqwCtgLBAssC1QLgAusC9QMAAwsDFgMhAy0DOANDA08DWgNmA3IDfgOKA5YDogOuA7oDxwPTA+AD7AP5BAYEEwQgBC0EOwRIBFUEYwRxBH4EjASaBKgEtgTEBNME4QTwBP4FDQUcBSsFOgVJBVgFZwV3BYYFlgWmBbUFxQXVBeUF9gYGBhYGJwY3BkgGWQZqBnsGjAadBq8GwAbRBuMG9QcHBxkHKwc9B08HYQd0B4YHmQesB78H0gflB/gICwgfCDIIRghaCG4IggiWCKoIvgjSCOcI+wkQCSUJOglPCWQJeQmPCaQJugnPCeUJ+woRCicKPQpUCmoKgQqYCq4KxQrcCvMLCwsiCzkLUQtpC4ALmAuwC8gL4Qv5DBIMKgxDDFwMdQyODKcMwAzZDPMNDQ0mDUANWg10DY4NqQ3DDd4N+A4TDi4OSQ5kDn8Omw62DtIO7g8JDyUPQQ9eD3oPlg+zD88P7BAJECYQQxBhEH4QmxC5ENcQ9RETETERTxFtEYwRqhHJEegSBxImEkUSZBKEEqMSwxLjEwMTIxNDE2MTgxOkE8UT5RQGFCcUSRRqFIsUrRTOFPAVEhU0FVYVeBWbFb0V4BYDFiYWSRZsFo8WshbWFvoXHRdBF2UXiReuF9IX9xgbGEAYZRiKGK8Y1Rj6GSAZRRlrGZEZtxndGgQaKhpRGncanhrFGuwbFBs7G2MbihuyG9ocAhwqHFIcexyjHMwc9R0eHUcdcB2ZHcMd7B4WHkAeah6UHr4e6R8THz4faR+UH78f6iAVIEEgbCCYIMQg8CEcIUghdSGhIc4h+yInIlUigiKvIt0jCiM4I2YjlCPCI/AkHyRNJHwkqyTaJQklOCVoJZclxyX3JicmVyaHJrcm6CcYJ0kneierJ9woDSg/KHEooijUKQYpOClrKZ0p0CoCKjUqaCqbKs8rAis2K2krnSvRLAUsOSxuLKIs1y0MLUEtdi2rLeEuFi5MLoIuty7uLyQvWi+RL8cv/jA1MGwwpDDbMRIxSjGCMbox8jIqMmMymzLUMw0zRjN/M7gz8TQrNGU0njTYNRM1TTWHNcI1/TY3NnI2rjbpNyQ3YDecN9c4FDhQOIw4yDkFOUI5fzm8Ofk6Njp0OrI67zstO2s7qjvoPCc8ZTykPOM9Ij1hPaE94D4gPmA+oD7gPyE/YT+iP+JAI0BkQKZA50EpQWpBrEHuQjBCckK1QvdDOkN9Q8BEA0RHRIpEzkUSRVVFmkXeRiJGZ0arRvBHNUd7R8BIBUhLSJFI10kdSWNJqUnwSjdKfUrESwxLU0uaS+JMKkxyTLpNAk1KTZNN3E4lTm5Ot08AT0lPk0/dUCdQcVC7UQZRUFGbUeZSMVJ8UsdTE1NfU6pT9lRCVI9U21UoVXVVwlYPVlxWqVb3V0RXklfgWC9YfVjLWRpZaVm4WgdaVlqmWvVbRVuVW+VcNVyGXNZdJ114XcleGl5sXr1fD19hX7NgBWBXYKpg/GFPYaJh9WJJYpxi8GNDY5dj62RAZJRk6WU9ZZJl52Y9ZpJm6Gc9Z5Nn6Wg/aJZo7GlDaZpp8WpIap9q92tPa6dr/2xXbK9tCG1gbbluEm5rbsRvHm94b9FwK3CGcOBxOnGVcfByS3KmcwFzXXO4dBR0cHTMdSh1hXXhdj52m3b4d1Z3s3gReG54zHkqeYl553pGeqV7BHtje8J8IXyBfOF9QX2hfgF+Yn7CfyN/hH/lgEeAqIEKgWuBzYIwgpKC9INXg7qEHYSAhOOFR4Wrhg6GcobXhzuHn4gEiGmIzokziZmJ/opkisqLMIuWi/yMY4zKjTGNmI3/jmaOzo82j56QBpBukNaRP5GokhGSepLjk02TtpQglIqU9JVflcmWNJaflwqXdZfgmEyYuJkkmZCZ/JpomtWbQpuvnByciZz3nWSd0p5Anq6fHZ+Ln/qgaaDYoUehtqImopajBqN2o+akVqTHpTilqaYapoum/adup+CoUqjEqTepqaocqo+rAqt1q+msXKzQrUStuK4trqGvFq+LsACwdbDqsWCx1rJLssKzOLOutCW0nLUTtYq2AbZ5tvC3aLfguFm40blKucK6O7q1uy67p7whvJu9Fb2Pvgq+hL7/v3q/9cBwwOzBZ8Hjwl/C28NYw9TEUcTOxUvFyMZGxsPHQce/yD3IvMk6ybnKOMq3yzbLtsw1zLXNNc21zjbOts83z7jQOdC60TzRvtI/0sHTRNPG1EnUy9VO1dHWVdbY11zX4Nhk2OjZbNnx2nba+9uA3AXcit0Q3ZbeHN6i3ynfr+A24L3hROHM4lPi2+Nj4+vkc+T85YTmDeaW5x/nqegy6LzpRunQ6lvq5etw6/vshu0R7ZzuKO6070DvzPBY8OXxcvH/8ozzGfOn9DT0wvVQ9d72bfb794r4Gfio+Tj5x/pX+uf7d/wH/Jj9Kf26/kv+3P9t////2wBDAAgGBgcGBQgHBwcJCQgKDBQNDAsLDBkSEw8UHRofHh0aHBwgJC4nICIsIxwcKDcpLDAxNDQ0Hyc5PTgyPC4zNDL/2wBDAQkJCQwLDBgNDRgyIRwhMjIyMjIyMjIyMjIyMjIyMjIyMjIyMjIyMjIyMjIyMjIyMjIyMjIyMjIyMjIyMjIyMjL/wAARCAIVAyADAREAAhEBAxEB/8QAGwABAAIDAQEAAAAAAAAAAAAAAAUGAwQHAQL/xABUEAABAwIBBQsHCAcECgMAAwAAAQIDBAURBhIhVNETFRYXMUFRcZGSkxQiVWGBobEHMjZTcnOywTM1QlJidOEjNGTCJDdDZYKDlKLi8CVEYyaj8f/EABoBAQACAwEAAAAAAAAAAAAAAAAEBQIDBgH/xAA9EQEAAQICBwYEBQQCAwACAwAAAQIDBBEFEhUhUVKhExQxQXGRM2GBsSIyNMHwQlPR4SNiJDXxcoKSouL/2gAMAwEAAhEDEQA/ANs6pwAAAAAAAAAAAAAAAAAAAAAAAAAAAAAAAAAAAAAAAAAAAAAAAAAAAAAAAAAAAAAAAAAAAAAAAAAAAAAAAAAAAAAAAAAAAAAAAAAAAAAAAAAAAAAAAAAAAAAAAAAAAAAAAAAAAAAAAAAAAAAAAAAAAAAAAAAAAAAAAAAAAAAAAAAAAAAAAAAAAAAAAAAAAAAAAAAAAAAAAAAAAAAAAAAAAAAAAAAAAAAAAAAAAAAAAAAAAAAAAAAAAAAAAAAAAAAAAAAAAAAAAAAAAAAAAAAAAAAAAAAAAAAAAAAAAAAAAAAAAAAAAAAAAAAAAAAAAAAAAAAAAAAAAAAAAAAAAAAAAAAAAAAAAAAAAAAAAAAAAAAAAAAAAAAAAAAAAAAAAAAAAAAAAAAAAAAAAAAAAAAAAAAAAAAAAAAAAAAAAAAAAAAAAAAAAAAAAAAAAAAAAAAAAAAAAAAAAAAAAAAAAAAAAAAAAAAAAAAAAAAAAAAAAAAAAAAAAAAAAAAAAAAAAAAAAAAAAAAAAAAAAAAAAAAAAAAAAAAAAAAAAAAAAAAAAAAAAAAAAAAAAAAAAAAAAAAAAAAAAAAAAAAAAAAAAAAAAAAAAAAAAAAAAAAAAAAAAAAAAAAAAAAAAAAAAAAAAAAAAAAAAAAAAAAAAAAAAAAAAAAAAAAAAAAAAAAAAAAAAAAAAAAAAAAAAAAAAAAAAAAAAAAAAAAAAAAAAAAAAAAAAAAAAAAAAAAAAAAAAAAAAAAAAAAAAAAAAAAAAAAAAAAAAAAAAAAAAAAAAAAAAAAAAAAAAAAAAAAAAAAAAAAAAAAAAAAAAAAAAAAAAAAAAAAAAAAAAAAAAAAAAAAAAAAAAAAAAAAAAAAAAAAAAAAAAAAAAAAAAAAAAAAAAAAAAAAAAAAAAAAAAAAAAAAAAAAAAAAAAAAAAAAAAAAAAAAAAAAAAAAAAAAAAAAAAAAAAAAAAAAAAAAAAAAAAAAAAAAAAAAAAAAAAAAAAAAAAAAAAAAAAAAAAAAAAAAAAAAAAAAAAAAAAAAAAAAAAAAAAAAAAAAAAAAAAAAAAAAAAAAAAAAAAAAAAAAAAAAAAAAAAAAAAAAAAAAAAAAAAAAAAAAAAAAAAAAAAAAAAAAAAAAAAAAAAAAAAAAAAAAAAAAAAAAAAAAAAAAAAAAAAAAAAAAAAAAAAAAAAAAAAAAAAAAAABZLPkbcLlmy1CeSU66c56ee5PU3aQr2Ot291O+VnhdFXr34qvwx19lrTJTJ9sG96tas6pnZyyf2vX/TDAr++YjPX8ui4jRuEinsvP13/wA6KveMiq+gzpaTGrgTT5qee3rTn9nYT7OOt17qt09FTitE3bX4rf4o6qwqKiqipgqaFQnKoAAAAAAAAAAAAAAAAAAAAAAAAAAAAAAAAAAAAAAAAAAAAAAAAAAAAAADetlorbvMsdJFnI358jlwYzrU1Xb1FqM6pb8PhruIqytx/iE7SWaxxVkdG+omuda9cNypvNjavPi7oTrIld+/NM1xGrT8/FYWsLhaa4tzM11T5R4e6Wh4Nuv8VopbVBMqq5JJl0o1URVwTHl5CPV3jspu1VTHyTKe5d4jD0W4njP88WCgTJ29MqIW2hkdbEjlSGN+asiIv7K6NPqUzud4s5Tr/hnz/wAtdnueJiqmLeVUeUefoid47XdFVLPXujqU/wDqViZrlXoRf/8ASR3i7b+LTu4widzsX/09eVXCpBVdHUUNQ6nqoXRSt5WuT3+tCVRXTXGtTOcK65artValcZSwGbAAAAAAAAAAAAAAAAAAAAAAAAAAAAAAAAAAAAAAAAAAAAAAAE3aMlrjd817Y9wp1/20qYIqepOVfgRb2Lt2t3jKdhdHXsRviMo4yv1nyWt1ozZGx7tUJ/tpUxVOpORCpvYu5d3Tujg6LC6Os4ffEZzxn+bk2RU9TJska6TKzfJKmNIFnSbOxXPTD9nD3cvIWVOMoix2eW/LJR16Muzi+21t2efz9FzK1eIe75M268Ir5Ytzn5po9Dvb0+0k2cVctbondwQsTgLOI31RlPGFBvGSdxtWdIjPKKZP9rEnInrTlT4FtZxlu7u8Jc7itG3rG/LOOMfvCBJavAAAAAAAAAAAAAAAAAAAAAAAGSCCWpnZDCxXyvXNa1OVVMaqopjOfBlRRVXVFNMZzK7UXyeo6FHV1a5sippZC1MG+1eUrLmkt/4I917a0JnTndq3/JoXrIiot9O6po5lqYmJi9itwe1OnRym2xj6bk6tcZSj4vRNdmma7c60R7qoWCoAAAAAAAAAAAAAAAAAAAAAAAEnZLQt0qXrJJuNJA3PqJl5Gt6OtTRfvdlG7fM+EJWEw3b1TnOVMb5lZrjST3SgjpcnKqkdbmt008UmZI5edXY8vtINqum3XrYiJ1uPl9Frft137cUYSqNThE5T9WpQ26usFirqx1JK2vmXyeFGtzljbzu0Y/8AqIbLl2i/dpoz/DG+WmzYu4WxXcmmded0fKPOWjkjFIzKmjz43t+f85qp+yptxkxNirKUfRlNUYunOOP2RsPllPc/KKWKVZY5Vc1WsVdOKm+rUqo1ap3TCLT2lF3Xoic4ngsF7ydrbjcYq63Ub0bVxpK9q+Zub+fHHk6e0h2MTRbomi5Phu9YWWLwN29ci7Zp/NGfDKW+6ngmtrLZlFcqR1WrkbTPY7OkiVeZy86dZq1qor7SxTOXnwlImiiq1FnF1xreXGPVS6+hnttbLSVDc2SNcPUqcyp6lLK3cpuUxVSo71muzXNuvxhrGxqAAAAAAAAAAAAAAAAAAAAAAAAAAAAAAAAAAAAAAAAAAAABeRQOjWiSGvt0UlNHeZGsRI3KyqzUzkRMURFemgpr0TRXMVavt/p02Fqpu24miK5y3eP+3xcLnQWqVkVbv3E97c5qeUquKcnM8W7Vy7GdGrP0/wBMb+ItWJim5rxPr/tvRRpPCyaOC9uje1HNXytNKLpT9s1zOrOUzT7f6SKadamKoivKf+3+0c+8W1lw8hc69pU7okeZ5Svzl5sc/A3RZuTRr/hy9P8ASNOKsRc7KdfWzy8f9pN8Cxsc90F7RrUVVXyxORP+M0RVnOUTT7f6SpoyjOYr/wD5f/6R1vu1uuk6wUa3uSRG5+HlKpo9r/Wbrlm5bjOvV9v9I1nE2b9Wrb15n1/22LjJDb6J89VHeo4/m5y1WOldCaEeYWomurVp1fb/AE2X5ptUTVXFcR/+X+3NU5C7cuAAAAAAAAAAAAAAAAAAAAAz0lJNXVcdLTsz5ZFwan/vMYV100UzVV4QztW6rtcUURnMrzTfJ5TJCnlVbM6VU07kiI1F9qKqlXVpKrP8NO5f29CUav46pz+T7sGTrLNlRM10u7ZtMj4nK3BUznYL7dHvMcRiZu2InLLeywWBjD4qYmc92cfWVxK5di8gFCo8i6e4V9fK+pfFTx1L42RxomOCL0r14FtXjqrdNMRGc5Q561oqi7crqmrKImYyhjvGQb6amfPbp3zZiYrFIiZyp6lTlX1HtnSEVVatyMmOK0PNFM1WZzy8pUws1GAAAAAAAAAAAAAAAAAAAAwVVwRMV6ALJfHb0WqmsUS4SK1J6xU/aevI3qT8kIWHjtbk3p9IWeMnu9qnC0+PjV68FbRytXOaqo5ORUXBSb47lZnlvhbr7d7haUttFS1krHxUjXSrjirnO6ccej3ldh7Nu7rV1R4yucZib1js7dFUxlTGfrLJkzlLdq6+01JU1W6Qvzs5Fjairg1V5UT1HmKwtqi1NVMb2WAx+Iu4imiurOJ+UcEZUZXXxZZGJXK1EcqJmxtTn6jfTg7GUTqolek8VMzGt0htPr6u6ZF1Mk1TK+elqmq52dgqsdowXDmxX3GuLdFvExERumG6b1y/gqpqqmZpnpKrE9UrJUu38yWSrd51bbVRkjud8S8ir1fkpCpjsb+r/TV91ncnvOF7SfzUbp+cK2TVYAAAAAAAAAAAAAAAAAAAAAAAAAAAAAAAAAAAAAAAAAAAAAFpyEnm39SDdX7juT3bnnLm46NOHSQNIUx2WtlvW2h66u8aue7KdyEu88091qd2lkkzJXtbnuVc1M5dCY8xKs0xTRGUeUIGJrqqu1a055TP3WjJyrqXZI3lzqiVXRMVI1V64sRGaMOggYqimMRRu8f8rbA3K5wd2Zmd3h8tymrPK6fd1les2dnborlzsenHpLLVjLLLcpNeqatbPeuV2rKpuQVrmSpmSWR6I96PXFyYO5V5yts0U96rjLd/8XeJu1xo+3VrTnP+1RoZ5qeridBK+Jyua1VY5WqqYpo0Fjcpiqmc4zU1quqiuJpnJZ8v55ku0UCSyJCsDXLHnLmqucunAg6Opjs5qy35rbTVdXbRTnuy8PrKoFipQAAAAAAAAAAAAAAAAAAAAFqyB3Lf6XPwz/J3ZmPWmPuIGkc+yjLittDaveJz8cnSikdSh73IlufDeUVM2nRY5m8743KnJ60XBU9pJsR2mdrj4eqFi57GYxHDdPzif3iUhR19LXwJNSzslYvO1eTrTmNNduqicqoySLV63dp1qJzhpXi/UlphwdKx9S7RHDnaVVeTHoTpU22cPXdndG7i0YrG27FO+fxeUfzybNso1oaFkL37pKqq+V/7z3Li5e1TXdr16s48G7D2uytxTM5z5+s+LcNbc4tc9z32rNxw3Ld35mHJhnKdNaz7OnPxyhwuI1e2r1fDOfu1DY1AAAAAAAAAAAAAAAAAAAk8naZKvKGhhcmLd1Ryp6m6fyNGJq1bNUpWBt9piKKZ4/bexXmpdWXqtqF050zsOpFwT3IZWKdS3TT8mGKuTcv11/NqwM3SoiZ+89re1TOqcomWqiM6ohM5YPz8qKtE5GIxiexqEbBRlYhN0pOeKq+WX2Mj/pTR/wDH+FT3G/AqNF/q6Pr9kNOn+ky/bd8VJFPhCFX+afVOWDGSyX+DmWmbJ7WqpFxG67bq+afg99i9T8s/ZXyYrlhyPdul2monfo6ynfE5F6sU/Mh43dbiuPKYlY6LnO9NufCqJhBRwSSztp2Nxlc5GInS7HAlTVERrT4IFNE1VRRHj4LDcaiz2qtdQMs8FUsCNY+Z8rkVz0TztCesh26b12nXmuYz8llfrw9ivsotxVluzznx80HXVEFTUbpT0jKVmaibmxyuTHpxUlW6aqYyqnNAvV011Z0U6scGsbGoAAAAAAAAAAAAAAAAAAAAAAAAAAAAAAAAAAAAAAAAABZchPpIn3L/AMiDpD4P1Wmh/wBT9JQly/WtZ9/J+JSVa/JT6QgX/i1es/dZsmvoffvsu/AQcV+ot/zzWuA/R3v55KfzlkpVvu/+ryz/AHifBxXWf1df84LrE/8ArrXr/lVKf+8xfeN+KE+rwlT0fmj1hZ/lA/XsH8un4nEHR3wp9Vrpr48en7yqhYKgAAAAAAAAAAAAAAAAAAAABno6uehq4qmmerJY1xav5GFdFNdM01eDZauVWq4ronfDq1tudxq6JstRaZIXqmOG6NTO6kVcU9pQXbVumrKmvN12HxF65RrV28p9YVq5rd8p7wlpfTrQ08WEkiOXO0czlVNC+pEJtrscNb7WJ1plV4icRjb3YTTqxG+f8/4We35N2q2xI2Kkje/DB0kiZzne1SFcxV25O+VrYwFizGVNO/jPij71kdQXCF76SJlLVcqOYmDXL0OT8zbYxtdE5VTnCPi9F2rtMzbjVq6fVr5M3a8Pa+gqrfJKtKu5umz0arVTmXHlX1oZ4qzZj8dNWWfk1YDE4iYm1XRnq7s3uVV7utFRuZBQSQxvTNWqVyOzcejDkX1qMJYtV1ZzVnPB7pHF37dExTRlE+bm5dOYAAAAAAAAAAAAAAAAAAAAnMj3I3Kmjx589P8AtUi42P8AgqT9FzliqPr9mee+W+OolY7JyiVzXuRVVy8qL1GFOHuTET2ktleMsxVMTZpe01+tzquBEyeoWKsjURyOXFulNPIK8Pc1Z/5JLeMs68f8NPjDeygvFFS32rhlsdHO9rkxleq4u81OXQasNYrqtRMVzCRjcVaov1U1WomeKLZdaCqr6T/4iGljZJjK6B7kVWKmC44YLo5fYb5s3KaKvx5+qJGIs13Kf+OKYid+XBeeB9hXT5Cmn/8AR+0qu+3+b7L/AGZhOTrP+Uba6LJa51dTSUdJKj4kVH4ve1HJjh+9pTHpN92vFW6Yqrnx9EXD2sBerqot0znHr/l80VvyTr7pPb4aF+7Q45yuc9GrguC4Lj0ntdzFUURcmrdPo8tWNH3btVqmjfHr/l7TUWSsl8ktkNJK2qix85HvRMU5URc48quYqLUXJndPo9t2sBN+bNNP4o9f8t2ss9lsNLLdY6NrZadqvjVXuXzuROVelTXRevX6otTO6W+7hcNhaJvxTvp8PHxcwe90kjnvXOe5Vc5elV5S8iIiMocpMzM5y+T14AAAAAAAAAAAAAAAAAAAAAAAAAAAAAAAAAAAAAAAAAAAWXIT6SJ9y/8AIg6Q+D9Vpof9T9JQly/WtZ9/J+JSVa/JT6QgX/i1es/dZsmvoffvsu/AQcV+ot/zzWuA/R3v55KfzlkpVvu/+ryz/eJ8HFdZ/V1/zgusT/6616/5VSn/ALzF9434oT6vCVPR+aPWFn+UD9ewfy6ficQdHfCn1Wumvjx6fvKqFgqAAAAAAAAAAAAAAAAAAAAAF0yGsTJ3OutSzObG7NgaqaM5OV3s5E9pWY/ETT/x0/VeaIwcVz29ceHh/lfJ5mU1PJPKuEcbVe5ehETFSpppmqYiPN0NdcUUzVPhDQskD20a1c6YVVY7dpcebH5rfY3BO03X6o1tWnwjcj4SiYo7Sr81W+f2j6QkzQlAERVJvffKerboirMKeZP4+Vjvi32oSKPx2pp843x+/wDlCuf8V+m5HhVun18p/ZKSxMmidHIxHsemDmuTFFQ0RMxOcJlVMVRlPg5LlJZ95bs+FmKwPTPhVf3ej2bDoMLf7a3nPj5uNx+F7temmPCd8IgkoYAAAAAAAAAAAAAAAAAANq3VfkNypqv6mRr16sdPuxNd2jXomni22LnZXabnCW9lRR+SX+oVumKdd3jcnIqO06PbiasJXrWoz8Y3JGkLXZ4irLwnfH1RDXKxzXpytVF7CRMZ7kKJynNP5ZNRcoHTp82ohjlb2YfkRMDP/Fq8JlY6Uj/yNbjES18l4I6rKCCnlTGOVkjHJ6lY5DPF1TTamqPLL7tej6IrxEUVeE5/aXRcmq7y6xwq52dLDjDIvSrVwx9qYL7SmxVvUuzwnf7ulwF7tbEZ+Mbp+iq5DfSK4/Yd+Mn4/wCDT/PJU6I/U1/zzMmPpzcf+d+NBi/0tP0+xo/9dX/+33e2v/WXVfeS/AXf0UfQw/8A7Or1ln+UG5YNp7axeX+2k+DU+K+wx0da8bk+jZpq/wDlsx6z+yiFq58AAAAAAAAAAAAAAAAAAAAAAAAAAAAAAAAAAAAAAAAAAAAWXIT6SJ9y/wDIg6Q+D9Vpof8AU/SUJcv1rWffyfiUlWvyU+kIF/4tXrP3WbJr6H377LvwEHFfqLf881rgP0d7+eSn85ZKVb7v/q8s/wB4nwcV1n9XX/OC6xP/AK616/5VSn/vMX3jfihPq8JU9H5o9YWf5QP17B/Lp+JxB0d8KfVa6a+PHp+8qoWCoAAAAAAAAAAAAAAAAAAAAaV5NK8wHaLVRtt9qpaRqYblGiL18/vxOZvV69yauLucNai1apojyhrX/wDtKGKk1qojhX7Kri7/ALUU2YfdVNXCJlpxu+3FvmmI/wA9EqnIR0wAAR1+hWayVWZ+kjZurF/iZ5ye9Ddh6srsZ+nui4ymarFWXjG/6xvbsEzainimb82RiPTqVMTXVGrMxKRRVFdMVR5qxl9RJNZY6pE8+nkTT/C7QvvwJ2jq8rk08VTpm1rWIr4T93Ni6cwAAAAAAAAAAAAAAAAAAABZqVqZR2FtDim+VA1Vgx5ZYudvWmwg1/8Aj3df+mrx+UrS3HfMP2X9dHh844NamyTuUsSTVO40MP79U/N93L2mdWMtxOVP4p+TVRo29VGtXlTHz3Jy5UFoqbNQ1VXdHSMpG+SulpmZyPVOROfD+pFtXLtNyqmmnx371hfs4euzRXcuZxT+HOI8WPJxuTjb7TJQvuD6nzsxZUajPmrjj7DLEziJtTr5ZMcDGDi/T2U1a3z8PBioMpLbYa6qZSR1ctNL5zmyZqObIiqi4epUw7D25hbl+mJqyiY+zCzj7OFuVRbiZpn7paC+0VDI2eKyLTSVrd0RyyRMWROnS71kerD11xlNeer6plGMtWpiqm1qzVv8aYz6tqKrWmqVq4MmZ0mqFwdLE6Jc7HpVHcnrMJo1qdWbkZR6ttN3Uq7SmxOdXnGX+WCgvdumyikjbaVhrcHbtOqsXNRE04qir6kMrli5FmJ186fKN7Czi7NWJmIt5Vec7lDu9e66XaprFxwkf5iLzNTQidhbWbfZ24oc9ib037tVzj9vJpG1oAAAAAAAAAAAAAAAAAAAAAAAAAAAAAAAAAAAAAAAAAAAC6ExA6NkrZHWymZVy0bX1T0VWyMl/YciKiYKU2LvxcnVid3p5um0dhJs0xcqpzqnzz8paN8yQqKysSa3U0UDXIqyJJNirnquOPObbGNpopyuTn9EfGaMruV61mmI45z5p23WiKhtT6Le/ROxEqMJtD1wwVeXQRLt6a7mvreHhuWFjC02rU29Txjfv8VbkyKq1u6ysp4Uod1RdyWbzsznTr9pNjHUdnlM/iy4earnRNzttaIjUz8M/JZqq0QVNpZb1ty7jEirE1ZvmuwXBcccecg0Xqqbnaa2+fHctbmGorsxa1N0eG9XLPkbVU1bulypoZ4kb5rY5sFR2KYLzesm38dTVTlbnKfRWYXRVdFed6mJj180vlNZX3imdNHRtbWMREbK+bQjUVVVME9vMR8Lfi1OUzu9EzSGEnEU60U/i45+TmnKXblwAAAAAAAAAAAAAAAAAAANq2xpNdaOJdKPnYi95DXdnKiqflLbYp1rtNPzj7u1HMu6RVx868WiNeTdZH9ka7Tfa+HXPp90S/vvWo+cz0lKmhLAAHxIxJInsXkcioexOU5vKozjJoZPvV+T9Aq8qQNb2Jh+RuxMZXavVGwU54ej0hjynjSXJq4N6IVd2afyPcLOV6n1Y6Qp1sLXHychOicYAAAAAAAAAAAAAAAAAAABlp6iWlqGTwSLHLGuLXJyopjVTFUatXgyorqoqiqmcphZpZKLK9rFfO2ju7W5ubI5dym6uhf/AHSQYivC+EZ0dYWtVVrSERnOrc+fhP8Aj+eLy10k9vfU2W8Qvgpq1M1sqpi1sifNVHcn/qHt2um5EXrU5zT9jD267U1YbERlTX5+WflvYsnqGotuWtNS1LFZKxX9TkzV0p6jLE3KbmGmqnw/2wwNmuzjqaK43xn9pR1JaprlV1j2pmwQbpJLIvImGKonWpurvRbppjznJFtYeq9XVMeEZzMpKSOhvaMqKm51kk0cLUe2KhVWxonNo5kXHSaImuz+GmmMs+PilTTaxOVddczMR5U+DJQ1lstkEsNHf6qJsvzlSj0+xeb2Hlyi5cmJrtxOXzZWbtizTNNu9MZ/9WqtVarZbK1lurJqiqqmpFnPiVmYzHzu0z1LtyumbkZRG/xau0sWLVcWapmqrd4ZbvNXyYrgAAAAAAAAAAAAAAAAAAAAAAAAAAAAAAAAAAAAAAAAAAABnoqhlJWw1D4GTtjdisT+R3qUwuUzVTNMTk2Wq4t1xXMZ5eSx8L6VE+j9H3v/ABIfcq/7krPadH9mP59DhfS+gKPvf+J53Kr+5JtOj+zH8+hwvpfQFH3v/Edyq/uSbTo/sx/PocL6X0BR97/xHcqv7km06P7Mfz6HC+l9AUfe/wDEdyq/uSbTo/sx/PocL6X0BR97/wAR3Kr+5JtOj+zH8+hwvpfQFH3v/Edyq/uSbTo/sx/Por1wqmVtdLUR07Kdj8MIo/mt0YaCZbomimKZnNW37kXLk1xGWfk1jY1AAAAAAAAAAAAAAAAAAA9a5WuRzVVHIuKKi4Kh54kTlvhn8uq9bqPFdtMezo4Q2dtc5p95fK1lUrkctTOrm8irI7FPee6lPB52tfjrT7vfLqvW6jxXbTzs6OEPe2uc0+8nl1XrdR4rto7OjhB21zmn3k8uq9bqPFdtHZ0cIO2uc0+8nl1XrdR4rto7OjhB21zmn3l42sqmNRrKmZrU5ESRyInvPZopnxh5F2uIyiqfcdWVT2q11TO5qpgqLI5UX3nkUUx5E3a5jKap92EzYAAAAAAAAAAAAAAAAAAAAAAEvRZTXWhj3JtRusPJuc6Z7cOjTp95GuYW1XOcxlPyTLWPxFqNWKs44TvS6ZdzOfHJPa6WSWP5j0VUVvNo0LgR9nxETFNU5SmxpiqZiarcTMMTsuKhlOsFLbqOCNdOGCqmPTho0mUYCmZ1qqplhOl64p1aKIiEXcL5LcLdR0boI40p25qvYq4v6/j1m+3h4orqrz8US/i6rtum3MZavVFEhESdZen1lmo7atNExtMuKSN+c7Rh7PX0miixFFyq5n4pV3FTcs02dWPw+aMN6KAAAAAAAAAAAAAAAAAAAAAAAAAAAAAAAAAAAAAAAAAAAAAAAAAAAAAAAAAAAAAAAAAAAAAAAAAAAAAAAAAAAAAAAAAAAAAAAAAAAAAAAAAAAAAAAAAAAAAAAAAAAAAAAAAAAAAAAAAAAAAAAAAAAnbLktVXykfUQVEMbWvVio9FxxwRebrIl/F02atWqE/CaOuYmia6ZiN+SS4vbjrlL2O2GnaVvhKVsS9zR1OL2465S9jtg2lb4SbEvc0dTi9uOuUvY7YNpW+EmxL3NHU4vbjrlL2O2DaVvhJsS9zR1OL2465S9jtg2lb4SbEvc0dTi9uOuUvY7YNpW+EmxL3NHU4vbjrlL2O2DaVvhJsS9zR1OL2465S9jtg2lb4SbEvc0dTi9uOuUvY7YNpW+EmxL3NHU4vbjrlL2O2DaVvhJsS9zR1OL2465S9jtg2lb4SbEvc0dTi9uOuUvY7YNpW+EmxL3NHU4vbjrlL2O2DaVvhJsS9zR1OL2465S9jtg2lb4SbEvc0dTi9uOuUvY7YNpW+EmxL3NHU4vbjrlL2O2DaVvhJsS9zR1OL2465S9jtg2lb4SbEvc0dTi9uOuUvY7YNpW+EmxL3NHU4vbjrlL2O2DaVvhJsS9zR1OL2465S9jtg2lb4SbEvc0dTi9uOuUvY7YNpW+EmxL3NHU4vbjrlL2O2DaVvhJsS9zR1OL2465S9jtg2lb4SbEvc0dTi9uOuUvY7YNpW+EmxL3NHU4vbjrlL2O2DaVvhJsS9zR1OL2465S9jtg2lb4SbEvc0dTi9uOuUvY7YNpW+EmxL3NHU4vbjrlL2O2DaVvhJsS9zR1OL2465S9jtg2lb4SbEvc0dTi9uOuUvY7YNpW+EmxL3NHU4vbjrlL2O2DaVvhJsS9zR1OL2465S9jtg2lb4SbEvc0dTi9uOuUvY7YNpW+EmxL3NHU4vbjrlL2O2DaVvhJsS9zR1OL2465S9jtg2lb4SbEvc0dTi9uOuUvY7YNpW+EmxL3NHU4vbjrlL2O2DaVvhJsS9zR1OL2465S9jtg2lb4SbEvc0dTi9uOuUvY7YNpW+EmxL3NHU4vbjrlL2O2DaVvhJsS9zR1OL2465S9jtg2lb4SbEvc0dTi9uOuUvY7YNpW+EmxL3NHU4vbjrlL2O2DaVvhJsS9zR1OL2465S9jtg2lb4SbEvc0dTi9uOuUvY7YNpW+EmxL3NHU4vbjrlL2O2DaVvhJsS9zR1OL2465S9jtg2lb4SbEvc0dTi9uOuUvY7YNpW+EmxL3NHU4vbjrlL2O2DaVvhJsS9zR1OL2465S9jtg2lb4SbEvc0dTi9uOuUvY7YNpW+EmxL3NHU4vbjrlL2O2DaVvhJsS9zR1OL2465S9jtg2lb4SbEvc0dTi9uOuUvY7YNpW+EmxL3NHU4vbjrlL2O2DaVvhJsS9zR1OL2465S9jtg2lb4SbEvc0dTi9uOuUvY7YNpW+EmxL3NHU4vbjrlL2O2DaVvhJsS9zR1OL2465S9jtg2lb4SbEvc0dTi9uOuUvY7YNpW+EmxL3NHU4vbjrlL2O2DaVvhJsS9zR1OL2465S9jtg2lb4SbEvc0dTi9uOuUvY7YNpW+EmxL3NHU4vbjrlL2O2DaVvhJsS9zR1OL2465S9jtg2lb4SbEvc0dTi9uOuUvY7YNpW+EmxL3NHU4vbjrlL2O2DaVvhJsS9zR1OL2465S9jtg2lb4SbEvc0dTi9uOuUvY7YNpW+EmxL3NHU4vbjrlL2O2DaVvhJsS9zR1OL2465S9jtg2lb4SbEvc0dTi9uOuUvY7YNpW+EmxL3NHU4vbjrlL2O2DaVvhJsS9zR1OL2465S9jtg2lb4SbEvc0dTi9uOuUvY7YNpW+EmxL3NHU4vbjrlL2O2DaVvhJsS9zR1OL2465S9jtg2lb4SbEvc0dTi9uOuUvY7YNpW+EmxL3NHU4vbjrlL2O2DaVvhJsS9zR1OL2465S9jtg2lb4SbEvc0dTi9uOuUvY7YNpW+EmxL3NHU4vbjrlL2O2DaVvhJsS9zR1OL2465S9jtg2lb4SbEvc0dUPfMnqiw7hu80Um7Z2G546MMOnrJGHxNN/PVjwQsXgq8LlrTE58EQSUMAAAAAAAAAAAAAAAAT1kypqbHRvpoaeKRr3q9VeqouOCJzdREv4Sm9VrTKwwmka8NRNFNMTvzSXGHXajTd5xo2bRzSlbbu8sdTjDrtRpu84bNo5pNt3eWOpxh12o03ecNm0c0m27vLHU4w67UabvOGzaOaTbd3ljqcYddqNN3nDZtHNJtu7yx1OMOu1Gm7zhs2jmk23d5Y6nGHXajTd5w2bRzSbbu8sdTjDrtRpu84bNo5pNt3eWOpxh12o03ecNm0c0m27vLHU4w67UabvOGzaOaTbd3ljqcYddqNN3nDZtHNJtu7yx1OMOu1Gm7zhs2jmk23d5Y6nGHXajTd5w2bRzSbbu8sdTjDrtRpu84bNo5pNt3eWOpxh12o03ecNm0c0m27vLHU4w67UabvOGzaOaTbd3ljqcYddqNN3nDZtHNJtu7yx1OMOu1Gm7zhs2jmk23d5Y6nGHXajTd5w2bRzSbbu8sdTjDrtRpu84bNo5pNt3eWOpxh12o03ecNm0c0m27vLHU4w67UabvOGzaOaTbd3ljqcYddqNN3nDZtHNJtu7yx1OMOu1Gm7zhs2jmk23d5Y6nGHXajTd5w2bRzSbbu8sdTjDrtRpu84bNo5pNt3eWOpxh12o03ecNm0c0m27vLHU4w67UabvOGzaOaTbd3ljqcYddqNN3nDZtHNJtu7yx1OMOu1Gm7zhs2jmk23d5Y6nGHXajTd5w2bRzSbbu8sdTjDrtRpu84bNo5pNt3eWOpxh12o03ecNm0c0m27vLHU4w67UabvOGzaOaTbd3ljqcYddqNN3nDZtHNJtu7yx1OMOu1Gm7zhs2jmk23d5Y6nGHXajTd5w2bRzSbbu8sdTjDrtRpu84bNo5pNt3eWOpxh12o03ecNm0c0m27vLHU4w67UabvOGzaOaTbd3ljqcYddqNN3nDZtHNJtu7yx1OMOu1Gm7zhs2jmk23d5Y6nGHXajTd5w2bRzSbbu8sdTjDrtRpu84bNo5pNt3eWOpxh12o03ecNm0c0m27vLHU4w67UabvOGzaOaTbd3ljqcYddqNN3nDZtHNJtu7yx1OMOu1Gm7zhs2jmk23d5Y6nGHXajTd5w2bRzSbbu8sdTjDrtRpu84bNo5pNt3eWOpxh12o03ecNm0c0m27vLHU4w67UabvOGzaOaTbd3ljqcYddqNN3nDZtHNJtu7yx1OMOu1Gm7zhs2jmk23d5Y6nGHXajTd5w2bRzSbbu8sdTjDrtRpu84bNo5pNt3eWOpxh12o03ecNm0c0m27vLHU4w67UabvOGzaOaTbd3ljqcYddqNN3nDZtHNJtu7yx1OMOu1Gm7zhs2jmk23d5Y6nGHXajTd5w2bRzSbbu8sdTjDrtRpu84bNo5pNt3eWOpxh12o03ecNm0c0m27vLHU4w67UabvOGzaOaTbd3ljqcYddqNN3nDZtHNJtu7yx1OMOu1Gm7zhs2jmk23d5Y6nGHXajTd5w2bRzSbbu8sdTjDrtRpu84bNo5pNt3eWOpxh12o03ecNm0c0m27vLHU4w67UabvOGzaOaTbd3ljqcYddqNN3nDZtHNJtu7yx1OMOu1Gm7zhs2jmk23d5Y6nGHXajTd5w2bRzSbbu8sdTjDrtRpu84bNo5pNt3eWOpxh12o03ecNm0c0m27vLHU4w67UabvOGzaOaTbd3ljqcYddqNN3nDZtHNJtu7yx1OMOu1Gm7zhs2jmk23d5Y6nGHXajTd5w2bRzSbbu8sdTjDrtRpu84bNo5pNt3eWOpxh12o03ecNm0c0m27vLHU4w67UabvOGzaOaTbd3ljqcYddqNN3nDZtHNJtu7yx1Q99yhnv24btBHFuOdhmKq444dPUScPhqbGeU55oWMxteKy1oyyQ5JQgAAAAAAAAAAAAAAAAAAAAAAAAAAAAAAAAAAAAAAAAAAAAAAAAAAAAAAAAAAAAAAAAAAAAAAAAAAAAAAAAAAAAAAAAAAAAAAAAAAAAAAAAAAAAAAAAAAAAAAAAAAAAAAAAAAAAAAAAAAAAAAAAAAAAAAAAAAAAAAAAAAAAAAAAAAAAAAAAAAAAAAAAAAAAAAAAAAAAAAAAAAAAAAAAAAAAAAAAAAAAAAAAAAAAAAAAAAAAAAAAAAAAAAAAAAAAAAAAAAAAAAAAAAAAAAAAAAAAAAAAAAAAAAAAAAAAAAAAAAAAAAAAAAAAAAAAAAAAAAAAAAAAAAAAAAAAAAAAAAAAAAAAAAAAAAAAAAAAAAAAAAAAAAAAAAAAAAAAAAAAAAAAAAAAAAAAAAAAAAAAAAAAAAAAAAAAAAAAAAAAAAAAAAAAAAAAAAAAAAAAAAAAAAAAAAAAAAAAAAAAAAAAAAAAAAAAAAAAAAAAAAAAAAAAAAAAAAAAAAAAAAAAAAAAAAAAB4uhFX1AdOoMjbK6jgkkp3yOfG1y50ruVU9SlHcxt7WmIl1VnReGmiKppzzjjLc4I2H0ezvu2mvvt/mbtmYTk+7Tq8hbROxdwSWmfzKx6uTsU2UaQu0+O9puaHw9Ufhzj+fNRL1ZKqx1aQz4OY5MY5W8j0/JfUWti/Tepzpc/i8JXhq9Wrw8pRpvRXSLTkba32mlfWU7n1D40c9d0cmldOGCKUt7G3YuTFE7nT4bRdibNM3Kd+W/fLJcMi7VvfUeS0zmVCRqsa7o5fOw0aFU8t467rxrTuZXtFYfs6tSnflu3y5o1cHIqtxwXHNXn9RdOWh0q3ZNZO3O3w1kNI7MlbjhuztC86cvMpS3cViLdc0TPh8odRYwGDvW4uU0+PzlVcrrHHZrhGtMxW0szMWoqquDk5UxX2KT8HiJu0TreMKnSeEpw9yNSPwyhKSlkrayGliT+0lejE9vOSq64opmqfJAtW5uVxRT4y6a3Iqxo1EWlc5UTSu6u0+8o+/X+PR1UaJwuX5esue3hKFbxJFbYsymY5I2rnK7PXHBV0+st7Ov2edyd7m8V2XbTTZj8Pg6HwLsWH90d4rtpUd+v8ekOk2VheXrKDyryXoLfZ/K6CBzHRyJn+ersWro516cCTg8XXcuatcoGktH2rVntLUZZTv9FHLVQrfkdk7SXWmqamuiV8aORkaI5W6cMVXR1oV2NxNdqYpolc6LwNu/TVXdjOPCFm4F2LVHeK/aQe/X+PSFrsrC8vWXM7hC2muVVAxMGRzPY1OhEVcC8t1TVRFU+cOWv0RRdqpjymV1yayZtVxsNPVVNOr5nq7OckjkxwcqcylZisVdt3ZppncvMBo/D3sPTXXTvnPzniluBdi1R3iu2kfv1/j0hN2VheXrJwLsWqO8V20d+v8AHpBsrCcvWVQyxtNFaauljooljbJG5XYuV2KoqdJYYK9Xdpma5UulMNaw9dMW4yzhJZJZO2y62Z1RVwK+VJnNxR7k0Jh0KacZiblq5q0zuyStG4Gxfs69yM5znzStfkRbJKGZtHCsVTm4xuWRypj0LivPyGi3j7sVRrznCXe0TYm3MW4yq8t8uaPY6N7mParXNVUVq8qKnMXUTnvhy8xMTlKy5G2iiu9TVsrYlkbGxqtwcrcFVV6CFjb1dqImiVpovC2sRVVFyM8sm9lfk/bbTa4ZqOBY5HTIxVV7l0YKvOvqNWCxNy7XMVz5N+k8FZsWoqtxlObdydyXtNwsNJVVNM580jVVzt0cmPnKnIimrE4u7RdmmmdzfgdH4e7h6a66d8/OeKU4F2LVHeK7aaO/X+PSEvZWF5esnAuxao7xXbR36/x6QbKwvL1l5wLsWqO8V20d+v8AHpDzZWF5esud32lhor5WU0Dc2KOTNa3FVwTBOkucPXNdqmqrxlzeMt0279VFPhEo83IwAAAAAAAAAAAAAAAAAAAAAAAAAAAAAAAAAAAAAAAAAAAAAAAAAAAAAAAAAAAAAAAAAAAAAAAAAAAHi/NXqDyXbaD9XU33TPghzFz88+ru7Pw6fSHN8qLnXw5SVkcVbURsY5ua1kqoieanMhdYS1bmzTM0w5jSGIu04mqKapiI+fyT2RN+rLhLNRVkizKxm6Mkd87DHBUVeflQiY/D0W4iujcsNE4y5dmbdyc8t+aQy2pWT5NTSORM6BzZGr7cF9ymnA1zTeiOKTpa3FWGmZ8spc7s1FvjeaSlwxa+RM77KaV9yFzfudnbmpzWFtdtepo4y6xeKvyCzVdS1cHRxOVvXhgnvwOfs0a9ymnjLsMVc7KxVXHlDJbqpK2201Si47rE13tw0nl2jUrmngzsXO0tU18Ycoyhod779V06JgzPz2fZdpT4+4v8Nc7S1TU4/G2eyxFVHl/lPZB3fcKt9sld/ZzefFjzP509qfAiaQs61PaR5LHQ+K1a5s1eE+Hqs+Vls3zsMyMbjND/AGsfWnKntTEg4O72d2M/Cdy10lh+2w85eMb4VjIC27tXTXF6eZCmZH9peVfYnxJ2kbuVMW481ToWxrXJvT5bo9f/AIsGWN53stSwROwqanFjcOVrf2l/L2kTBWO0ua0+ELLSmK7G1q0/mq/kua0LN0uFKz96Zif9yF1cnKiZ+UuXsxncpj5x93aKmbyekmmwx3NjndiYnNU061UQ7i5VqUTVwa9bAy62aWHQraiFc1etNC/Azoqm1cieEtd2iL9maeaHGXIrFVHJg5NCp6zpPHwcPO7xddsNI205O08cnmq2PdJF9a+cv/vqOexFfa3pmHZ4O1FjDUxPDOfu36Ofyqhp6jDDdY2vw60xNVdOrVNPBItV69umvjGbkmUDc3KK4p/iHL2ridBhpzs0+jjcbGWJr9ZdDyM+i1L1v/EpT4748/T7Ol0V+lp+v3RWWt5uFsrqWOjqnQtfErnIiIuK4+tCRgbFu5TM1xmh6WxV6zcpi3VlnCscK776Rk7rdhO7nY5VVtLFc/2/w0a+51tzex9ZO6ZzEVGqqImCL1Ibbdqi3GVEZNF7EXL0xNyc8nQcgfo6/wDmH/BCo0j8b6Oj0N+nn1n9ljSojdUvp8f7RjEeqepVVEX3KQtWdXWWcVxNU0ebn+XVm8lrW3KFv9lULhJhzP6fanvQt9H39ans58Y+znNMYXUr7anwnx9f9svyd/3yv+7Z8VMdJflpZ6D/AD1+kfuk/lB/UlP/ADCfhcaNHfFn0StNfAp9f2lTqTKW70FLHTU1XmQxpg1u5tXDTjzoWVeFtV1a1Ub1Lax+ItURRRVlEfKFoyOv1yul1mhrKndY2wq5EzGppzkTmT1kDG4e3boiaIy3rXReMv37s03Ks4yWPKGrnobBV1NO/MmjYitdgi4aU6SHhqIru001eCzx1yq1h6q6JymHO+GF917/APqZsLjuVjl+7mtqYvn6Qh6qpmrKmSpqH58si5znYImK+wk0URRTFNPhCHcuVXKprq8ZYjJgAAAAAAAAAAAAAAAAAAAAAAAAAAAAAAAAAAAAAAAAAAAAAAAAAAAAAAAAAAAAAAAAAAAAAAAAAAAB4vzV6g8l22g/V1N90z4Icxc/PPq7uz8On0hSL/kndbhfqmqp44lhlcitV0mH7KJyewtMPjLVu1FNXjCixujcRdxFVdERlPz+SdyXya3jZJLNI2SqlRGqrfmtb0J0kTF4rtpiIjdCw0fgO7RNVU51S1cvLiyC0JQo5N1qHIqt6GIuKr2oiGzR9qarmv5Q06YvxTZ7Lzq+yI+T6i3S4VNa5NELEY37TuX3J7yRpG5lRFHFC0LZ1rlVyfLd7pfL6s3GzRUrV86olTH7LdK+/Aj6OozuTVwTdM3dWzFEec/Z95B1vlFjdTOXzqaRWp9ldKfmeaQo1butxZaHu69jUn+mUX8oVDmy0le1PnIsL16tKfmb9G3N00fVE03Zymm7Hp/hS4pXwTMlicrZGORzXJzKnIWcxExlKipqmmYqp8Ydhs1zju9qhq24Irkwe391ycqHOX7U2rk0y7XC4iMRai5H19X1Q0NLZaB8caoyFrnyucvNiqqvYmj2Hly5Verznx8HtmzRhrcxHhvlyq+XV94ustUuKR/Niav7LE5NvtL7D2YtW4pcjjMTOIuzX5eXo+bGzdL9b29NQz4nuInK1V6S8wkZ4iiPnDrN2cjbNXOXmp5Pwqc/Z+JT6w7DEzlZrn5T9mlkrV+V5NUT1XFzGbk7rbo/JDbi6NS9VDRo652mFonhu9lKrLRn5erRZv8AZy1CS4J+6vnL+ZZ0XssLr8I/0oruGz0h2flM5/TxXLK2t8iybqlRcHypuLf+LQvuxK3B29e9Hy3rzSd3s8NVxnd7t2yrnWKgX/Dx/hQ1X/i1est+EnOxR6R9nMsqWZmU9enTIi9rULzCTnYpcrpGMsVX6/svuRn0Wpet/wCJSpx3x5+n2dDor9LT9fu27pk/b7xLHLWRvc6NqtbmvVuj2Gu1iblqJihuxGCs4iYquR4fNocCLH9RL4zjb3+9x6I+yMLwn3lScqbbTWq8+TUjXNi3JrsHOV2lcenqLTCXartvWq8VDpGxRYvalHhlC45A/R1/8w/4IV2kfjfRd6G/Tz6z+zBfrpvRllb6hy4Qvp9zl+yrl0+xcFMsPa7XD1Ux457mvGYju+NornwmMp91kuNDDdLdNSS4KyVuGKcy8yp1LpIVq5NuuKo8lpfs037c26vCVOyFgko7zc6WZMJY2ta5PWjlLLSFUV26Ko8JUmh6Krd65RV4x/lv/KD+pKf+YT8LjTo74s+iRpr4FPr+0ucF05lbfk+/XlR/Lr+JCv0j8KPVcaF+PV6fvC25WfRav+7T8SFdg/j0rnSX6Wv0cl5zoXHAAAAAAAAAAAAAAAAAAAAAAAAAAAAAAAAAAAAAAAAAAAAAAAAAAAAAAAAAAAAAAAAAAAAAAAAAAAAAAHi/NXqDyXbaD9XU33TPghzFz88+ru7Pw6fSEFcstKO2XCajlpqh74lRFVubguKIvOvrJVrA13KIriY3oF/Stuzcm3VTOceiGrflClexW0VEkbl/bmdnYexNpJo0bET+OpBu6bqmMrdOXqp9VVz11S+oqZXSyv5XO/8AdCFlRRTRTq0xlCluXK7lU11znMun5G0XkeTkDlTB86rM728nuRCixtzXvT8tzq9FWuzw0TPjO/8An0SFfZrfdHsfW0zZnMRUbiqphj1Kabd+5bjKickm9hbN+Ym5Tnk9t9nt9rdI6ipmwrIiI7BVXHDk5VFy9cufnnMs4WzYmZt05ZtTKqh8vydqo0TF8bd1Z1t0/DE2YS5qXon6NOkbPa4aqI8Y3+zkh0Ljl4+TuV+6V8Ocu54Mfm+vSmPuKvSURlTK+0HVOddPluTeW0j48mZ8xytznsa7DnRXaUIuBiJvRmn6WqmMLOXy+7lhfOSS2TDM/Ka3p0S49iKpHxc5WakzR8Z4qj1dMygfmZO3B3+HenuKTDRnep9XU42csNXPylWvk8rMYayicvzXJK1PUuhfgnaTdJUb6a/oq9CXfw1W59Vifa87KiK5ZvmspVjx/iztHuVSHF3KxNv5rKcPniovfLLqqvyg12fVUtC1dEbVlenrXQnuRe0n6Nt5UzX9FRpu9nXTajy3rZk67Oydt6/4dnwK/Exleq9VzgZzw1HpDnmWbc3Kmq9bWL/2oXGBn/gj6ua0rGWLq+n2XfIz6LUvW/8AEpV4748/T7L7RX6Wn6/dF5Z3u42qupY6KoWJr41c5M1FxXH1ob8DYt3aZmuM0TSuLvWK6Yt1ZZwrXC++6+vhs2E7uVjl+6r2ni+fpCMrrhU3Ko8oq5d0lzUbnYImhOo3W7dNuNWmNyLevV3qte5OcugZBvwyedg1zv8ASH8iepCn0h8b6Ok0NGWH+soX5Qc5bnSuWNyN3BUVVT+L1ErR0xqT6oOm6Zm7TPy/dPZFXnfC1eSyuxqKVEbpXS5n7K/l7CLjrGpXrR4Sn6JxXa2uzq8aft5JNtvSDKR9exvm1FPmSYfvNVMF9qKvYaJuZ2dSfKUqLGriZux5xlPrCG+UH9SU/wDMJ+FxJ0d8WfRB018Cn1/aXOC6cytvyffryo/l1/EhX6R+FHquNC/Hq9P3hbcrPotX/dp+JCuwfx6VzpL9LX6OS850LjgAAAAAAAAAAAAAAAAAAAAAAAAAAAAAAAAAAAAAAAAAAAAAAAAAAAAAAAAAAAAAAAAAAAAAAAAAAAAADxfmr1B5LttB+rqb7pnwQ5i5+efV3dn4dPpDluVn0prvtN/ChfYP4FLk9Jfqq/55QhSSgs9HTOra2ClZ86aRGJ7VMK64opmqfJnatzcriiPOcnaoo2wxMjYmDGNRrU6EQ5mZmZzl3VNMUxER5OTXi91lTeKuWGsqGRLKqMayVyIjU0JoRfUdBZsUU24iYjNx+Kxdyu9VVTVOWfEs97rKW8Uks1ZO+JJER7XyqqZq6F0KvrF+xRVbmIiMzC4u5RepqqqmYz4utqiOaqKmKLynPOxne4xdaNbfdaqkXkikVG/Z5U9yodNZr7S3FXFw+Itdldqt8JWn5O/71X/YZ8VIGkvy0/VbaD/PX9P3TeXP0Zl+8j/ERcB8aPqn6X/Sz6x93Ly9consjWZ+VNJ/Cj3f9qkTHTlYn6LDRUZ4un6/ZfsqnZuTFwX/APLDtVEKnCRnfpdFpGcsLX6KDkhWeR5S0+K4Mmxhd7eT3ohbY2jXsz8t7ndGXezxNPz3OrFA69xy+V2+N8q6lFxa6RUZ9lNCfA6TD2+ztRS4nF3u2v1V/N0vJZc7Ji3r/wDlh71KTF/Hq9XU6OnPC0eij5cszcpXL+9Cxfin5FpgJ/4frKg0vGWJn0hccjPotS9b/wASlbjvjz9Psu9Ffpafr9zKDJdl+qIZnVb4ViYrcGsR2OK4jD4ubETERnmY3R8YqqKpqyyQ/F1D6Sk8JNpJ2lPL1Qth08/REXvJeKy7i/yp07XKqKjmI1E0Ym+xi5vZxlki4rR1OGiKtbPNZMipX1Fje5nmMSdyIvsQgY6Mrv0WuiZzsT6yiMuXzQXClfiksW4rndKecScB+SfVC0vMxcpn5fugLXcFst3grYcVhd85qc7V5U/NCZct9rbmiVbZvTh70XY8PP0ddilZNEyWNyOY9qOa5OdFOfmJicpdhTVFURVHhKq/KD+pKf8AmE/C4n6O+LPoqNNfAp9f2lzgunMrb8n368qP5dfxIV+kfhR6rjQvx6vT94W3Kz6LV/3afiQrsH8elc6S/S1+jkvOdC44AAAAAAAAAAAAAAAAAAAAAAAAAAAAAAAAAAAAAAAAAAAAAAAAAAAAAAAAAAAAAAAAAAAAAAAAAAAAAA9zHuYrkY5W9KIY60RLLUmYzWuHL6uhgjibR0yoxqNRVc7TgmBBq0dRM55ytqdM3aaYp1Y3eqvXKvfc7jNWyMax8qoqtbyJgiJ+RMtW4t0RRHkrb96b1ybkxvlqGxpblruDrXcI6xkTJXx45rXquGKphjoNV632tE0TOTdh782LkXIjOYWGXL+4SRPYlJTtVzVTORXYp6yHGjrcTnnKyq01emJjVjqqRYqcAtsOX9wihjjWlp3qxqNzlV2K4JylfVo63M55yuKdNXqaYjVjqgbxdH3ivWskhjikVqNcjFVUXDn0kqzai1RqROavxWInEXO0mMpZ7Hfp7FJM+CGOVZURFz1VMMMejrMcRh6b0REz4NmExlWFmZpjPNt3fK6qvFvdRzU0MbHOa7OYq46Fx5zXZwVNqvXiW7FaTuYi32dVMQrxMVretF0ks9wbWRRske1qtRr1XDT1Gq9ai7RqTKRhsROHudpTGcpe55Z1l0t01FJSwMZKiIrmquKYKi/kR7WBot1xXEzuTMRpW5ftzbmmIiVdikdDMyVi4PY5HNXoVFxQmTETGUqymqaZiqPJYZMuLxLE+NVp0RyKmLY1RUx6NJDjAWYnPesqtL4mqJjd7f7VvkJqsWW2ZaVlst0NFHSwPZEiojnKuK6cfzIN3A0XK5rmZ3rTD6VuWLcW4piYhF3q7y3utbVTRMjejEZgxVwwRV6eskWLMWadWJRMViqsTXr1Rl5JK1ZY1dpt0dHFSwPZHjg5yriuK4/maL2Cou1zXMpWG0pcsW4t00xMQ3eMKv1Km7zjXs23zS37bu8sdTjCr9Spu84bNt80m27vLHVH3PKCov8ASvjlgijcxVVMxV04tw5+oztYamzVulpv46vFUxFUZZPbPlLVWu0NpqWmimRsjnOR6rjivqQ8vYWm7XrVSywuPrsW9SiIliuV3lu9zRZWMajIlaqM5F046e0ys2YtU5QwxOKqxFcTVGWUIZV/0OBP4nKnUSafzIVf5U/acsa61UDKNsMUzGKuasiriidGgjXsFRdr15nJNw2lLti3FuIiYhiveVNTfKRlPNTwxtY/PRWKuOOCpz9ZlYwlNmrWiWGL0jXiaIoqiI35oIlq9JWS9TWOrfUQxRyOfHmKj1XDDFF5uo0X7EXqdWZSsJiqsNXNdMZ5xkk7llpWXO3TUclLAxkrcFc1XYppxNFrA0W64riZ3JWI0rcvW5tzTGUq0TlWAAAAAAAAAAAAAAAAAAAAAAAAAAAAAAAAAAAAAAAAAAAAAAAAAAAAAAAAAAAAAAAAAAAAAAAAAAAAAAZWKqT0uH1bfzNPlKR5wwpyG2PBoq8Xp68AAAAAAAAAAAAAAAAAAAA9RFc5rU5XLgh5M5Q9pjOcn05rM1zmOeuYqI7OROfRihhFU572yqiMs4fBsan3FI6GTPbp5lTpQxqpzZ0VassjvJJXZ+e+Jy8qImBr3w250zvzfLpI2Rujp0XzvnPdynsUzPixmuIjKGNzlcqYpgiJmoicyGdMZNdVWs8MmIAAAAAAAAAAAAAAAAAAAAAAAAAAAAAAAAAAAAAAAAAAAAAAAAAAAAAAAAAAAAAAAAAAAAAAAAAAAAAAAAAPrNaxEdJiqqmKMRcNHrXmMM5nwbIpinfU9TNfG9yRIzNbijkVcF9RjvifFllFUeGT6b+npfu2fmeeUsv6oYeRF61NseDRV4vtUZH+larn8ubjgjetTDOZ8GzKmnx8XrkasTZEZmKrs3DFVRdGOIpnfkVRGrm8YxXqulGtRMXOXmQyqqyYU05mfEi4JFn+t7lxX2IY5T5yziafKHrUjk0NRY38yZ2LV9XqGcwZU1bvCXx6lTBU0KhnE5tcxlufTWorVe9ytYi4aOVy+oxmrflDOmmMs5ebpEnJAmCcqq9cTzKeL3OPKH1mte1VixRUTFWKuOj1KM5jxNWKvyvg2NT6a1qtV71VG44IicrlMJmc8obKaYyzqN0i+oTD7xce08yni91o4PV3FqY4vf8AwL5uHWuwfincfgje8R8SrgsWb62OXHsXlGU+UmdPnA9mY7DFHIqYtcnOhlTObCqnJ8mTF9Majs5znZrG8qpy9SGNU5boZ0U5758Hm6R44JAi9b1VTHKfOWWtHlDIjUZVsaiKiZzVwXm9Qzzpe5RFcZMbZEYsjVa16OXSir0KMt0PIqymYye7ozV295Rl83ufyeuRqxte1mZi5WqmKrjoxxFMznk8riNXN41GpG97m52Co1ExwQ9qmc8nlMRFOckjUa/zdDVajkRVxwxFM5w8uRETuGtRUV71VGIuGhNKr0IJnygppjLOXm6RfUJh65Fx7TzKeLLOOD6/sUTOznu/g5O1egfi8DKjxeI+JVwWHBF52vXH38oynykzp84eObm4Lji12lq9JlTObGqnLfDzSqoiJiq6EQ9mcmMRnufbkji0PRXvTlTOwam0wzmWzKmnd4y8z4lXB0WZ62uXHsUb/KTOnzgezMVExRyKmLXJzoZUzmwqp1XyZMQAAAAAAAAAAAAAAAAAAAAAAAAAAAAAAAAAAAAAAAAAAAAAAAAAAAAAAAAAAAAAAAAAAAAAAD6jbnzRsXkV2n4/kY1TlDOiM6nrXZ+6TuTFcUzUXkxXk7EMeEM486peOe9/z3ud6sdBlFMQ1zXMvtv6el+7Z+Zr8pbv6ofEKI6eNq8iv/qZz+Vrpj8b2Nyo2SbQr8Uwx5lXnMeEMonxqfLnOcuLnK5elVNkRENU1TPi9XHcYmJyyKrl7cEMM98y25fhiOLK1+5udmrmxRrmrhyvd1mOWbLPL0fCec5aiXkVcURP2l2GX/WGP/apje5VznryripnEZQ1zOtLK9iLUJEqqjI26cOjDFTXE5Rm2zGdWXlD5SeXRmuzETkaiJghlqQwm5Pk8cua1k7UwVFXFE5MU2oefJlwqgmajJpGpyIuKe3SZUzuYVxlU+8xHzwRL83NTH3qvaYZ7plsmM6oh8pUPXByqmYv7GCYYdB7qxkx151snqNSOeVMEXc2uVuPq5PieTOcQyiMqpese+Z25SOzkci4Kqci4Y4oe1Rlvh5TVNU5S+EXOpUXok0dSpj8R/U8n8j5NjU+nf3eNE/ac5V6+Q1+ctv9MQ+5JHskdGx2Yxq4IjRTTExnJXXMTlD4i/Tx6VVc5NKntUZQxonOre+o3OZHUOaqouLdKfaUx8cmyJyiZebrMqoiSvVV5EQymmmGEV1Tuh5IkqORZc7HmxXEU5eRXreZ/wDWf94nwPJ/M9j8j2X57Pu2ntDy54wK3OWmj5lair7V0mMT4yzmPCBaiRqqrVwY3FEZhow6D3VjJjNcxVk+kY1tYrMMWpiqIvVieZ/hZRTEVkUr5XtZK7Oa/QqLzL0oezTlGcPKapqnKXw3TTPRf2XovboUf1PMvwzD2Nc3dHpysbo610HtXB5b3RMvY0VrY0YibpIq4OX9lEMZlnTGUfOX09zp3NjY5Va3TnO+Ij8O8n8W6GN7kXNa3HMZijVXnx5VMqY85a65jwh8mbAAAAAAAAAAAAAAAAAAAAAAAAAAAAAAAAAAAAAAAAAAAAAAAAAAAAAAAAAAAAAAAAAAAAAAAA+o3Zk0b15Edp+BjVGcM6JyqetajM+B65ulM1V5MU5O1DDhMM+NMm4S8iszE53OVMEMteGMW5z3vpjmrUI9P0cTfciaPeY+EM4nOrPg+abHyiLHlx/JTKr8rCic6n3SU81WxYKeJ0kr3tRrWpiqmFVUU76p3NlFFVedNEZyttB8n9TIxH11W2HH/ZxpnKnWvJ8SHc0jTG6iM1nZ0LXVGd2rL03tpcjLSmYxa+XPjVURd0Zy44pzGjvt3l+6XsvD7vxzu+cNC8ZIst9BUVkNSs8KLnrG9uC4rowRU59PQbbOMmuqKJhHxOjYtW5uU1Zwqr2zPdnOif0IiN0IhYRNMKaqmqpic1cFaqKjsORUwM884a8ppneuNnyTiudE24TVEse7oqoxrUXzOT8sSrv4ybdWpEeC9wujYvW4u1VZZoC82mS0XGSm86SNqI5kmHzmqnLo9pNsX4u0RUrMXharF2aI3w3cnbDFfKepbLO+LcnoqZiIuOLV6eo04rETZmMozzSsBg6cTTMVTlksDsgaSR0jlr500J+y3oIkaRrj+lYVaGtzOevPR63IWl8oik8un0IifNb+6p5tCrLLVZbHozz1p6MafJ/SeTI7fCf5qL81pltGvL8sNexbeeevPRA3Kzx0eUzre2Z7mSMTF6omKZ2CEq3emuzrzHhmgXsLFvE9lE+OXVY0yBpIZY3eXz8qppa3oUiTpGuf6VhToa3TOevPRijyEo9xazfCbBXNXHNb+6NoV556r3Y9vLLXnojr9knBarctTT1M070e1uarW4afWSMPjarterVGSFjNGU2LWvTVMlkyWgu9qZK+qkjlje5rmNRqoiqqYe4xxGLqtV5RDPCaOoxFqKpqmJhWahqsqpmrytkc1etFw/IsKN9MSqLsZVzEvmPHdo8OXPRPee1+Dy3+aFxrMiGUtrqpY6qR8yMz8xUTDOauOHtKu3jpqriJjcvbuiYotVVRVnOWaoNa6JVke1W4IqNReVVLKZz3QpaadXfLbtFvW5VlHQoqtSaZVVyJpRqN0qa7tzs6Zr4N2Hszeqpt8ZSGUtjp7EyOGKoklfI7OVHoiYJh6jThsRVemZmMkjHYOjC0xTTOcyg3orpI2tTFyxsRE6VJVHggXIzmIhd4shYlZTvdWSpK2NmKI1MMdJVTpCc5iI3OgjQ9OUTNU5qLMx0ayxvTBzVc1U6FRVLemc6c4c7XExXMSsdhs1JeK2oZJUyxTxpijWoio5qt5dPr+KEHEX67VMTEZwtMFhbeIqmJqymPsjrla32e8tpHqrmoqOjeqfOaqaF/L2Ei1di7aiqES/h5w9+bc/T0R7f7vL9pvxNnnDT/AEynsnMnHXqOpfJI+KFERrXNRFVz004afURcXiexmIjfKdo/A95pqmqcoaNypqekuDqahndP5Mqtzn4Jn9KJh0chstVVVU61cZZtN+ii3cmi3OeTRckmZmNp3MZyqiYribYy82irWyyiGPHQbWg04YrgievHZoMNdn2cnswXoMonNjMZTkHrwAAAAAAAAAAAAAAAAAAAAAAAAAAAAAAAAAAAAAAAAAAAAAAAAAAAAAAAAAAAAAAAAAAAAAB9YtcmEmOKJgj0THR0KnOYZTHg2RVFUZVPNzi5524JzIxfgeZzwe5R5y9c9FZmMRUZjiuPK5fWexT5y8qqjLKkjdmTMdgq4LyJyrzHtUZwxonKp0a1UNLkpY31dR50yoj5XZuC+piY+vBPeUl2urFXYop8P5vdTYtW8BYm5X4+f+FNu2UVwu8rllmdHDj5sMblRqJ6+n2lrZw1u1G6N/FQYnHXsRP4pyjhCKY7MVfNRzXJg5q85uqjNFpqyZd1duTomVcjInKirG9VRNHJyaDXMRnnMb26Kp1dWmrdwY8xNZZ3lPc/kxy/7MscTquopqWJyvkcu5o7TpVy6OwZ6sTVPg91ZuVU0U+Mui36ujyep7VTxqqR7s1FRq4KjGpgq+9CnsWpv1V1T/Jl0uLv04Sm3RHhnHtCOy3pG4UlyR2bmLucmDVRXIulNHXj2mzAV75ttGl7W6m7w3f4UZqo6F0av3Nc/OTlwwwwwLSYmJUETExkTSLI+RzXOzVTBNK9BnRTlDC5VnO50m9v3PI7PXHFsUWjBdK6E5faUeHjPE5erqsZOWCz+Ufs5ni5GYZy44dJe5bnJ62/NI257HXqnkR6q6SVjUbguKYqnKR7sT2cx8pTLFUdtTOfnH3XPL5yR09ucqqiJM7HuqV2j4zqqXOmJypo9Z+zn+hkCRpI16q7HzVxRERMC2jfObn6pypyzFVr4mNWXMzUVFRUVUXTynmWU+BnFURvXHICdrZ6uiY/OVzUlauGCJhoXBOddKFdpCmZimv6LrQ1yIqqt5/NB5UUiUWUdZGiYNc5JG9Tkx+OJNwletZplWaRt9nia447/d85M0SV2UNJE5MWNduj09TdPxwPcXXqWapeaPtdpiaI+vs6OyqbVXKvt7/OSFjEdoxRyOReVCjmiaaKa+OfR1VN2Ll2u1Pll1coqKVlJVSwSSZzonqxWtauOhcOVeQvqKpqpiYjxcjctxbrmmqfBasgaZai71FY5qI2CJGMRORqu/oi9pD0hVq24p4rPQ9GvequeUR90dlbWtrcoKxivzWRK2NiqmKeamn3qpswluaLUTx3tGkb0XcRVGfhueZLUSXHKWnTBXQwIkjlVOVG8nvVDLFV9nZnjO5jgLUXsTTHlG/2/wBrhvo1uWTLesi4Np8xWYcr0XOTD2FZ2M9318vPove8x3zss/Lr4/ZT8sbctFfJHImDKliSp1rod7/iWeBua9mI4blFpWz2eJmY8Kt/+Whb7jvfco7hG5VexNMeC+dowVMegzuWu0omiWmxf7G5F2J8F4ypoYrpZKa60vnrTokiORNLo15ezl9ilbha5tXJtVef3XmkLVN+zF+jy3/Rz6GB0z200LmyyzyNaxrFx5+ctZqiPxT4Q5+KZq/BTvmXRLtPFkpkrFR07k8pc3MjcnLncrn+zYVVqicVfmqrw/m50OIuU4DCxRR4+EevnLnDtzlXF7lY9VxVVTFFXp9Rb5TDm86at/hI1qNci+Ut0LzKuJ59GURl5viRc90ipoRyqqGcRuyaqpzqzeq5FRcM1M7OVVVURUx5sDXk255vPhoTT6kw/I2UxlDVXOchkxAAAAAAAAAAAAAAAAAAAAAAAAAAAAAAAAAAAAAAAAAAAAAAAAAAAAAAAAAAAAAAAAAAAAAAAAACUycp21WUVBE5MW7qjlTpzUVfyI+Kq1bNUwl4GiK8TRTPH7b1p+USpckNDSoq5rnOkcnThgifFSDo2nfVUttOXJ1aKPWVCLZzzahttdUxJLBR1Esa6EcyNVRfahrqu0UzlVMQ20WLtca1NMzHo+957n6Oq/BdsPO3tc0e7Lut/kn2lpG1oWbIag8qvvlDkxZTMV//ABLoT819hBx9zVtavFa6Is69/Xnwp+7HlrXeWZQSRNXGOmakSdfK73rh7D3A29S1E8d7DSt7tMRNPlTu/wArVQrwjyGWFy5025LGv22ci+5F9pAuf+Pis/L9pW9n/wAzAas+OWX1hzPSnKmC86F45Z4vzV6g8nwdPyi+grvuovi0o8N+q9/3dXjv0H0j9nMS8cq3LT+uaH+Yj/EhrvfDq9JbsN8aj1j7ukZVWOpvlNTR00kTFjkVy7oqpzYcyFLhMRTZqmavN0+kcHXiaaYomN0+arcX911ik7zthO2ja4Sqdi3+Mdf8Iy85N1djhilqZYXpI5WokaqunDHnQ32MVRemYpjwRcVgLmGiJrmN/B7krV+R5SUb1XBsjtyd1O0fHAYujXs1R9TR13s8TTPHd7pr5QqXNrKOrRNEjFjXrRcU+KkXRtedNVKfpu3lXTc4xl7Pr5PaTGorK1yaGNSJq9elfgg0lXupo+r3Qlr8VdyfLc8yauvlGW1a9V82sz0b/wAK4t9yKMVZ1cNTHB5gMTr46uebPp4dEVllSeS5SzqiYNma2VPamC+9FN+Br1rMfLciaVt6mJq+e9aMkGNtmSk1fImGer5lXpa1ME+C9pBxszcvxRHotdGRFnCTdnzzn2c6kkdNK+V64ve5XOX1rpUuYiIjKHNVVTVM1T5r9kJSNpbVVXObzUkVURV5mN5V7cewqdIVzVXFuP5m6LQ9qKLVV6rz+0Kct1lW+rdUx3Td92RPVjydmgsexjsuy+WSknE1dv2/nnmu2W9KyusMFxh87cVR2PSx3/qFZgK5ouzbnz+8L3S9uLuHi7T5faXOi5c0vWQl2SRklnqFRUwV8KLzp+038+0qtIWcpi7T9V/ofE5xOHr+n7w2bFkylrygrauZMKanx8nc7kwVMcfYmgwxGK7S1TTHjPi24PAdhiK7lX5afD6/4VHKG7uvN2knRV3BvmQovM1Of28pYYaz2NuKfPzU2OxM4i9NXl5eiKJCIAAAAAAAAAAAAAAAAAAAAAAAAAAAAAAAAAAAAAAAAAAAAAAAAAAAAAAAAAAAAAAAAAAAAAAAAAAAAAAAJbJiZIMpaB7lwRZMztRU/Mj4unWs1QmaPr1cVRM8fus3yiU7ljoKlEXNaro1XoxwVPgpB0bVvqpWmnKJyor9YUMtnPrFaMr6uz29lHDTQPY1yrnPVcdK48xDvYKi7XrzKyw2k7mHtxbppiYXjJ+7y3qzvqpo2Rvz3MwYq4aE9ZVYmzFm5qxK/wAFiasTZmuqMvFyXnOhcc6bkRQpR2Dyl+DX1LlkVV/dTQm32lHj7mvd1Y8nVaIs9nh9ef6t/wDhoS5DUc0z5X3eRXvcrnLmt0qq4m2MfXEZRQjVaIt1TNU3N8+ibyes0VkjmhirVqGyuR2a5ETNVEw5vZ2EbE35vTEzTlkn4LC04aJppqzzc+ypoN78oamNqYRyLurOp2n44lvhLnaWon6Oc0hZ7LEVRHhO/wB0MvzV6iSgz4On5RfQV33UXxaUeG/Ve/7urx36D6R+zmJeOVblp/XND/MR/iQ13vh1ekt2G+NR6x919y4r6ugo6R1JUyQOdKqOVi4YpmlRgLdFdVUVRm6HS965aopm3VlvUnhFefSdT3y07tZ5YUXfsTzy16u511exraurlna1cWo9ccFM6LVFG+mMmu7iLt2MrlUy1mPdG9sjFwc1UcnWmkzmM4ylqiZic4dGyua25ZIxVrExzVjmTqXQvxKbBz2eImifnDptJxF7Bxcj5T7/AP1r21d5vk8lqeSSZjnp1uXNb7sDO7/zYuKfKP2a7E930dNfnOfXdCl2mq8hu9HU44JHK1V6scF9yqWV6jXt1U8VFhrnZXqa+Erf8odIrkoapiYuxdEvt0p+ZX6Nr/NTPqutN289SuPRtZTuS0ZGQW9q4OejIfYiYu+HvNeFjtcRNc/OW3SE93wUWo88o/y521rnvRjExc5cETpVS4mct8uaiJmcodcW0xsyabad33BFiSJ0iYY/xcvTp7Tnu2mb3a5Z73Zd2iMN2GeW7L/Ku8AqH0s/utJm0K+T7q3Y1r+59llprXEmT62p1R5RGkSxZ64Y4LycnR+RCquz2va5Zea0t4enu/YTOcZZORTRPgmkhkTB8blY5PWi4KdFTMVRnDjKqZpqmmfGGSiqJaSugqIXZskb0c1faY10xVTNMs7VdVuuK6fGJdKy3qJafJx6ROzd1kbG7D91ccU9xS4CmKr2/wAnUaXrqow06vnMQ5cXrkwAAAAAAAAAAAAAAAAAAAAAAAAAAAAAAAAAAAAAAAAAAAAAAAAAAAAAAAAAAAAAAAAAAAAAAAAAAAAAAAA9Y5zHtexVa5qoqKnMqHkxnul7EzE5w6nTTUmWGTixyKjXuREkROWOROf809RRVU14W9nH/wBh1luq3pDDZT4+fylzy62Sus8ysqoVzMfNlamLHe38lLi1fouxnTLm8RhLuHqyrjdx8kbinSnabkXN0vIb6MP9c0nwQpMf8b6Q6nRH6WfWXO6WmfWVcNNH8+V6MT2qXNdUUUzVPk5q3RNyuKI8Z3OhZZ1DLbk1FQQ6N1VsTU/gamK/BE9pT4Gmbl6a58t7pNK1xZwsWqfPd9Ic3wToQunL5JGw129t8palVwYj81/2V0L8cfYacRb7S1NKVg73Y36a/wCZSt/yg0G6UlNXtTTE7c3r/CvJ7095XaOuZVTRPmudNWc6KbseW73c+X5q9RbucnwdPyi+grvuovi0o8N+q9/3dXjv0H0j9nMS8cq3LT+uaH+Yj/EhrvfDq9JbsN8aj1j7rp8on9xofvnfhKzRv5qvRe6c+HR6/s5/inSW7nDEAB0bJ7/5jIWah5XtZJAnXyt+KFNif+LFRX6S6bBf+RgJtee+P8NTLeZKOzW61sVE5FVE6GJgnvX3GzARr3Krk/zNp0vV2dmizH8yUTl0Fq591OOJMoMnbVIvnKkkMr+tq4O/MoZq7C9XHr1dbTT3vDW5+cT7eKtZf1u63WCkavmwR5yp/E7+iJ2k3R1GVuauKr01d1rtNuPKPuj8j6Dy7KKBXJjHBjM72cnvVOw3Y25qWZ+e5G0ZZ7XExn4RvSXygV27XGnoWri2Bme5P4nf0T3mnR1vKia+KVpq9rXKbUeX7qdgnQhYqTJbsgK7cLpNROXBtQzOan8Tf6Y9hXaRt50RXwXOhb2rdm3Pn94a2W1B5Hf3TNTCOpakifa5HfkvtNmAua9rLg1aWs9niJqjwq3/AOVdj/Ss+0nxJk+Ctjxh0nL76Ot/mGfBSl0d8b6Oo0z+m+sOaF25YAAAAAAAAAAAAAAAAAAAAAAAAAAAAAAAAAAAAAAAAAAAAAAAAAAAAAAAAAAAAAAAAAAAAAAAAAAAAAAAAAG1QXGrtlSlRSTLHJyLzo5OhU50Ndy1Tcp1aobbN+5Zq17c5SuFJ8oLHRoyvoFVed0LkVF9i7Sur0bOedFXuurem4mMrtHt/tmXK/JxPOS2vV38uz44mPcsR4a3WWe08F46nSGtVfKD/ZLHRW9G6MEdK/QnsTaZ0aO3511NdzTe7K3R7/6Vuw3Cntd2ZWVMT5Ujaua1mHzl0Y6faTcRbquW9SmclXg79Fi9FyuM8mxlLfW32tiljjfHDFHmta/DHFVxVdHs7DDC4fsaZifGWzH4yMVXFURlEQhCUggFvmyvpazJ1bbVU07pnQoxZG5uGcnI7l6URSupwVVF7tKZjLNdV6Tt3MN2NdM55ZZ/PiqC6UXqLFSrbdMraWvydW2sppmyKxjc92GHmqnr9RXWsHVRe7SZ4rjEaSou4bsYpnPd0VIsVOz0U6U1dT1DkVWxSteqJyqiKimFdOtTNPFnarii5TVPlMSvTvlAtz/nUFQ7rzV/Mqo0dcjwqjq6CdNWZ8aJ6Pnh5bPR03Yzae7Pu833ebYsck9Gld8r6C42mppIqGWOSVua1yo3BNKdBts4K5buRVNXg0YrSdm9Zqt00TEz6KaWSkWLJfKSOwpUsmhkljlzVRGYaFTHp9XwIWLws3spicsllo/HxhdaKoziWplHeUvdzSpYx7ImxoxjX4YpzryetTZhrHY0as+LTjsV3m7rxGUZZIgkoa25O5XwWe1pR1FPNIrXuc1WKmCIunDSvTiV2JwVV2vXplcYHSdOHtdnXEyr11rluV0qaxUVEleqoi8qJyInYhNs2+zoijgrcRe7a7Vc4pfJjKCjsUdQs1PNLNKqeczDBGpzaV6VUjYvDV3pjKcohN0fjbeFirWpmZlDXKtdcblUVjkVFlerkReZOZOzAk2qOzoiiPJBv3ZvXark+ctU2NTYoKt9BcKerZ86KRH4dKc6dmJhcoiuiaZ82yzcm1cpuR5Sn8pspKK+0kLIqaaOaJ+LXPwwwVNKaF6uwiYXC12apmZ3SsdIY+1iqIimmYmFZaua9q9CopNlVR4rXlJlXTXu2JSw080bkla/F+GGCY9C+sgYXB1Wa9aZW+P0lRibWpTTMb1TLBUAAAAAAAAAAAAAAAAAAAAAAAAAAAAAAAAAAAAAAAAAAAAAAAAAAAAAAAAAAAAAAAAAAAAAAAAAAAAAAAAAAAAAAAAAAAAAAAAAAAAAAAAAAAAAAAAAAAAAAAAAAAAAAAAAAAAAAAAAAAAAAAAAAAAAAAAAAAAAAAAAAAAAAAAAAAAAAAAAAAAAAAAAAAAAAAAAAAAAAAAAAAAAAAAAAAAAAAAAAAAAAAAAAAAAAAAAAAAAAAAAAAAAAAAAAAAAAAAAAAAAAAAAAAAAAAAAAAAAAAAAAAAAAAAAAAAAAAAAAAAAAAAAAAAAAAAAAAAAAAAAAAAAAAAAAAAAAAAAAAAAAAAAAAAAAAAAAAAAAAAAAAAAAAAAAAAAAAAAAAAAAAAAAAAAAAAAAAAAAAAAAAAAAAAAAAAAAAAAAAAAAAAAAAAAAAAAAAAAAAAAAAAAAAAAAAAAAAAAAAAAAAAAAAAAAAAAAAAAAAAAAAAAAAAAAAAAAAAAAAAAAAAAAAAAAAAAAAA2IKCsqmK+npJ5mIuCujjVyIvRoMKrlFM5VTk2UWblcZ0UzPpDLvPc/R1X4Lthj21rmj3Z91v8k+0m89z9HVfgu2DtrXNHud1v8k+0m89z9HVfgu2DtrXNHud1v8k+0m89z9HVfgu2DtrXNHud1v8AJPtJvPc/R1X4Ltg7a1zR7ndb/JPtJvPc/R1X4Ltg7a1zR7ndb/JPtJvPc/R1X4Ltg7a1zR7ndb/JPtJvPc/R1X4Ltg7a1zR7ndb/ACT7Sbz3P0dV+C7YO2tc0e53W/yT7Sbz3P0dV+C7YO2tc0e53W/yT7Sbz3P0dV+C7YO2tc0e53W/yT7Sbz3P0dV+C7YO2tc0e53W/wAk+0m89z9HVfgu2DtrXNHud1v8k+0m89z9HVfgu2DtrXNHud1v8k+0m89z9HVfgu2DtrXNHud1v8k+0m89z9HVfgu2DtrXNHud1v8AJPtJvPc/R1X4Ltg7a1zR7ndb/JPtJvPc/R1X4Ltg7a1zR7ndb/JPtJvPc/R1X4Ltg7a1zR7ndb/JPtJvPc/R1X4Ltg7a1zR7ndb/ACT7Sbz3P0dV+C7YO2tc0e53W/yT7Sbz3P0dV+C7YO2tc0e53W/yT7Sbz3P0dV+C7YO2tc0e53W/yT7Sbz3P0dV+C7YO2tc0e53W/wAk+0m89z9HVfgu2DtrXNHud1v8k+0m89z9HVfgu2DtrXNHud1v8k+0m89z9HVfgu2DtrXNHud1v8k+0m89z9HVfgu2DtrXNHud1v8AJPtJvPc/R1X4Ltg7a1zR7ndb/JPtJvPc/R1X4Ltg7a1zR7ndb/JPtJvPc/R1X4Ltg7a1zR7ndb/JPtJvPc/R1X4Ltg7a1zR7ndb/ACT7Sbz3P0dV+C7YO2tc0e53W/yT7Sbz3P0dV+C7YO2tc0e53W/yT7Sbz3P0dV+C7YO2tc0e53W/yT7Sbz3P0dV+C7YO2tc0e53W/wAk+0m89z9HVfgu2DtrXNHud1v8k+0m89z9HVfgu2DtrXNHud1v8k+0m89z9HVfgu2DtrXNHud1v8k+0m89z9HVfgu2DtrXNHud1v8AJPtJvPc/R1X4Ltg7a1zR7ndb/JPtJvPc/R1X4Ltg7a1zR7ndb/JPtJvPc/R1X4Ltg7a1zR7ndb/JPtJvPc/R1X4Ltg7a1zR7ndb/ACT7Sbz3P0dV+C7YO2tc0e53W/yT7Sbz3P0dV+C7YO2tc0e53W/yT7Sbz3P0dV+C7YO2tc0e53W/yT7Sbz3P0dV+C7YO2tc0e53W/wAk+0m89z9HVfgu2DtrXNHud1v8k+0m89z9HVfgu2DtrXNHud1v8k+0m89z9HVfgu2DtrXNHud1v8k+0m89z9HVfgu2DtrXNHud1v8AJPtJvPc/R1X4Ltg7a1zR7ndb/JPtJvPc/R1X4Ltg7a1zR7ndb/JPtJvPc/R1X4Ltg7a1zR7ndb/JPtJvPc/R1X4Ltg7a1zR7ndb/ACT7Sbz3P0dV+C7YO2tc0e53W/yT7Sbz3P0dV+C7YO2tc0e53W/yT7Sbz3P0dV+C7YO2tc0e53W/yT7Sbz3P0dV+C7YO2tc0e53W/wAk+0m89z9HVfgu2DtrXNHud1v8k+0m89z9HVfgu2DtrXNHud1v8k+0m89z9HVfgu2DtrXNHud1v8k+0m89z9HVfgu2DtrXNHud1v8AJPtJvPc/R1X4Ltg7a1zR7ndb/JPtJvPc/R1X4Ltg7a1zR7ndb/JPtJvPc/R1X4Ltg7a1zR7ndb/JPtJvPc/R1X4Ltg7a1zR7ndb/ACT7Sbz3P0dV+C7YO2tc0e53W/yT7Sbz3P0dV+C7YO2tc0e53W/yT7Sbz3P0dV+C7YO2tc0e53W/yT7Sbz3P0dV+C7YO2tc0e53W/wAk+0m89z9HVfgu2DtrXNHud1v8k+0m89z9HVfgu2DtrXNHud1v8k+0m89z9HVfgu2DtrXNHud1v8k+0m89z9HVfgu2DtrXNHud1v8AJPtJvPc/R1X4Ltg7a1zR7ndb/JPtJvPc/R1X4Ltg7a1zR7ndb/JPtJvPc/R1X4Ltg7a1zR7ndb/JPtJvPc/R1X4Ltg7a1zR7ndb/ACT7Sbz3P0dV+C7YO2tc0e53W/yT7Sbz3P0dV+C7YO2tc0e53W/yT7Sbz3P0dV+C7YO2tc0e53W/yT7Sw1FHVUmb5TTTQ53zd0YrcerEyprpq/LObXXart/npmPVgM2AAAAAAAAAAAAAAAAAueSOUNutFrlgrJXMkdMr0RGK7Rgic3UVmNw1y7XFVEeS70ZjrOHtTTcnfnwWDhtY9Zk8F2widxv8Oqy2thebpJw2sesyeC7YO43+HU2thebpJw2sesyeC7YO43+HU2thebpJw2sesyeC7YO43+HU2thebpJw2sesyeC7YO43+HU2thebpJw2sesyeC7YO43+HU2thebpJw2sesyeC7YO43+HU2thebpJw2sesyeC7YO43+HU2thebpJw2sesyeC7YO43+HU2thebpJw2sesyeC7YO43+HU2thebpJw2sesyeC7YO43+HU2thebpJw2sesyeC7YO43+HU2thebpJw2sesyeC7YO43+HU2thebpJw2sesyeC7YO43+HU2thebpJw2sesyeC7YO43+HU2thebpJw2sesyeC7YO43+HU2thebpJw2sesyeC7YO43+HU2thebpJw2sesyeC7YO43+HU2thebpJw2sesyeC7YO43+HU2thebpJw2sesyeC7YO43+HU2thebpJw2sesyeC7YO43+HU2thebpJw2sesyeC7YO43+HU2thebpJw2sesyeC7YO43+HU2thebpJw2sesyeC7YO43+HU2thebpJw2sesyeC7YO43+HU2thebpJw2sesyeC7YO43+HU2thebpJw2sesyeC7YO43+HU2thebpJw2sesyeC7YO43+HU2thebpJw2sesyeC7YO43+HU2thebpJw2sesyeC7YO43+HU2thebpJw2sesyeC7YO43+HU2thebpJw2sesyeC7YO43+HU2thebpJw2sesyeC7YO43+HU2thebpJw2sesyeC7YO43+HU2thebpJw2sesyeC7YO43+HU2thebpJw2sesyeC7YO43+HU2thebpJw2sesyeC7YO43+HU2thebpJw2sesyeC7YO43+HU2thebpJw2sesyeC7YO43+HU2thebpJw2sesyeC7YO43+HU2thebpJw2sesyeC7YO43+HU2thebpJw2sesyeC7YO43+HU2thebpJw2sesyeC7YO43+HU2thebpJw2sesyeC7YO43+HU2thebpJw2sesyeC7YO43+HU2thebpJw2sesyeC7YO43+HU2thebpJw2sesyeC7YO43+HU2thebpJw2sesyeC7YO43+HU2thebpJw2sesyeC7YO43+HU2thebpJw2sesyeC7YO43+HU2thebpJw2sesyeC7YO43+HU2thebpJw2sesyeC7YO43+HU2thebpJw2sesyeC7YO43+HU2thebpJw2sesyeC7YO43+HU2thebpJw2sesyeC7YO43+HU2thebpJw2sesyeC7YO43+HU2thebpJw2sesyeC7YO43+HU2thebpJw2sesyeC7YO43+HU2thebpJw2sesyeC7YO43+HU2thebpJw2sesyeC7YO43+HU2thebpJw2sesyeC7YO43+HU2thebpJw2sesyeC7YO43+HU2thebpJw2sesyeC7YO43+HU2thebpJw2sesyeC7YO43+HU2thebpJw2sesyeC7YO43+HU2thebpJw2sesyeC7YO43+HU2thebpJw2sesyeC7YO43+HU2thebpJw2sesyeC7YO43+HU2thebpJw2sesyeC7YO43+HU2thebpJw2sesyeC7YO43+HU2thebpJw2sesyeC7YO43+HU2thebpJw2sesyeC7YO43+HU2thebpJw2sesyeC7YO43+HU2thebpJw2sesyeC7YO43+HU2thebpJw2sesyeC7YO43+HU2thebpJw2sesyeC7YO43+HU2thebpJw2sesyeC7YO43+HU2thebpJw2sesyeC7YO43+HU2thebpJw2sesyeC7YO43+HU2thebpJw2sesyeC7YO43+HU2thebpJw2sesyeC7YO43+HU2thebpJw2sesyeC7YO43+HU2thebpJw2sesyeC7YO43+HU2thebpKq5Y3uhvHkfkUjn7ln52LFbhjhhy9RPwViu1ra8eKo0pi7WI1OznPLNVieqQAAAAAAAAAAAAAAAAAAAAAAAAAAAAAAAAAAAAAAAAAAAAAAAAAAAAAAAAAAAAAAAAAAAAAAAAAAAAAAAAAAAAAAAAAAAAAAAAAAAAAAAAAAAAAAAAAAAAAAAAAAAAAAAAAAAAAAAAAAAAAAAAAAAAAAAAAAAAAAAAAAAAAAAAAAAAAAAAAAAAAAAAAAAAAAAAAAAAAAAAAAAAAAAAAAAAAAAAAAAAAAAAAAAAAAAAAAAAAAAAAAAAAAAAAAAAAAAAAAAAAAAAAAAAAAAAAAAAAAAAAAAAAAAAAAAAAAAAA27fbKy6TblRwOlcnKqaGt615ENdy7RbjOucm6zh7l+rVtxmvNoyFpaVEmub0qJE07mmiNvXzr8CqvaQqq3W933X+G0Pbo/FenOeHl/tII/J3KRrqBm4zLC3zUa1Wq1Olq4Jo6jTliMP+Od2f83pETg8Z/wAUZTl9PZV7xkNWUmdLb3LVQ8uYuiRPyUn2cfRVur3T0VWK0Rct/itfijr/ALVRzXMerHtVrmrgrXJgqL1E+Jz3wqJiYnKXh68AAAAAAAAAAAAAAAAAAAAAAAAAAAAAAAAAAAAAAAAAAAAAAAAAAAAAAAAAAAAAAAAAAAAAAAAAAAAAAAAAAAAAAAAAAAAAAAAAAAAAAAAAAAH3FE+eZkMTc6R7ka1OlVPJmKYzl7TTNVUU0+MrrZ8iIUzZrrUMcvLuET9Htds7SrvY+rwtR9V7hdEU/mvz9I/eV0p2UlJC2GnSGKNvI1mCIVtU11TnVvXlEW7dOrRlEPqV0E0T4nvarXtVq+dzKeRrROcMqppqiYmfFXrHktSWW4Pq0rVmXNVkbVwTNRenTpUmYjF13qNXVyVuE0dbw1ybmtnwWTdovrGd5CFqys9anii7rZrVeGf6S1iS4YJKxyI9Pbz+032b921+XwRMThLGIj8fjx81AveS9RaGOnZNHUUqL89qojm49KbC3sYum7+GYylzuL0dXh41onOlAktXgAAAAAAAAAAAAAAAAAAAZ6Kjlr6yKlgzd1lXBucuCcmP5GFyuKKZqq8IbLVqq7XFFPjKd4DXr9yn8X+hF7/Z+fssNkYnhHu94C3r9yn8X+g7/Z+fsbIxPy9zgLev3Kfxf6Dv9n5+xsjE/L3OAt6/cp/F/oO/2fn7GyMT8vc4C3r9yn8X+g7/AGfn7GyMT8vc4C3r9yn8X+g7/Z+fsbIxPy9zgLev3Kfxf6Dv9n5+xsjE/L3Rl2sdbZdy8sSNN1xzcx+dyYY/E3WcRRez1PJFxOEu4bLtPNGm9FAAAAAAAAAAAAAAAAAAAAAAAAAAAAAAAAAAAAAAAAAAALJasjay626KtZUwRskxzWuRVXBFw5uohXcdRbrmiY8Fnh9F3L9uLkVRES3OL2u16m7rjXtKjllv2Jd5o6nF7Xa9Td1w2lRyybEu80dTi9rtepu64bSo5ZNiXeaOpxe12vU3dcNpUcsmxLvNHU4va7XqbuuG0qOWTYl3mjqr95tE1krkpZ5GSOViPRzMcFRcdhLsXovU60K7FYWrDXNSqc/NHm5GAAAAAAAAAAAAAAAAAAAAAAMtLM2nq4ZnxNlbG9HLG7kcicymNdOtTMROTO3VFFcVTGeXk6TR00VbRR1UdrsqMcxHqi8rMUxwXzSlrqmirVmqr+fV09q3TcoiuLdH8+iFmvdHFdlt+8Vrc7dUj3VMM3Thp+byaSTFiubevrz/AD6oNWLtU3uy7Knxyz8vsnZKGKKnWdbbZNzwVUdzL1LmkSLkzOWtV/PqsKrNNNOtNFGX8+SDtN5o7tWeTtsdrgXMV2dLhhzaPm+slXrFdqnWmuZ/nqgYbFW79epFqmPX/wCJO7pDZ6N1RNaLQ/Nw/s2pg5cVw0YtNNnWu1asV1fz6pOJ1cPRr1W6PT+QwWWpp73HI6KzWmJzHZuZJhi7RjimDTK/TVZnfXVP89WGEroxMTNNqmPX/wCNDKuSGipUo97rayWb/aU/zo81U9ScpuwcVV1a+tOUcUfSVVNujs9SnOfOPLL6KaWSkAAAAAAAAAAAAAAAAAAAAmMlvpPQfeL+FSNi/g1Jujv1VHr+zrhzzsmLymD66PvoZatXBh2lPE8pg+vj76DUq4HaUcTymD6+PvoNSrgdpRxPKYPr4++g1KuB2lHE8pg+vj76DUq4HaUcWRrmvajmuRyLzouJjMZeLKJid8KL8ovzrd/zP8pa6M/q+ig0540fX9lGLVQAAAAAAAAAAAAAAAAAAAAAAAAAAAAAAAAAAAAAAAAAAAE3QuylSijSh3w8lwXc9yauby83txItyMNrTr5Zp9mcbqR2Wtq+WXg2c/LD/endXYYZYT/q2Z6R/wCxn5Yf707q7BlhP+pnpH/sZ+WH+9O6uwZYT/qZ6R/7Gflh/vTursGWE/6mekf+xn5Yf707q7BlhP8AqZ6R/wCyIui3Jalu+m77vmJhu6YOzcV93KSLXZ6v/Hll8kPETe1v+fPP5tI2tAAAAAAAAAAAAAAAAAAAAAAAAt+SyJwWv+j/AGa/gUrsX8e3/PNc6O/S3vT9lQQsVMuFzROLe1aE/Sp/nK61+sr/AJwXOI/9Zb9f8qjHplZj+8nxLCfBT0+MLZ8oX66pf5f/ADKV+jfhz6rfTfx6fT90fkan/wDKqTRzP/Cpux3wKvp90fRf6un6/Zp5QfSK4/zDvibMN8Gn0aMb+pueso03owAAAAAAAAAAAAAAAAAAAExkt9J6D7xfwqRsX8GpN0d+qo9f2dcOedkocnydvfI9++LEznKv6DpXrLWNJREZavVz06DmZmdfp/t5xcv9JM8D+p7tOOXq82HPP0/2cXL/AEkzwP6jaccvU2HPP0/2cXL/AEkzwP6jaccvU2HPP0/2cXL/AEkzwP6jaccvU2HPP0/2ttltq2i0w0SyJJued56NwxxVV5PaV9+72tya8vFc4Sx3ezFvPPJVPlF+dbv+Z/lJ+jP6voqNOeNH1/ZRi1UAAAAAAAAAAAAAAAAAAAAAAAAAAAAAAAAAAAAAAAAAAAB1nJH6K0P2XfiU5/G/Hqdhoz9JR/POU2RU8AjK67SU9a2ipKKSrqdz3VzWvaxGNxwRVVeleY327MVU69VWUIl7EzRX2dunWnLPhu+rDvnePQEn/VRmXZWf7nSWHeMT/Z6wb53j0BJ/1UY7Kz/c6Sd4xP8AZ6wrGUVmvd8uDKptrWFGxIzNdOxeRVXHl9ZOw1+zZo1Zqz+kqrHYXFYm5FcW8t2XjCI4G37Uk8Vu0kd9scyHsvF8vWDgbftSTxW7R32xzGy8Xy9Yatfk9dLZTpUVdLucWcjc5Htdgq9Smy3ibVydWmd7TewV+xTrXKcoRhvRQAAAAAAAAAAAAAAAAAAALhkt9Fr/APdr+BSuxfx7f8811o79Le9P2U9CxUq4XP8A1b2v71P85W2v1lf84LrEf+tt+v8AlUY/0rPtJ8SxnwU1PjC2fKF+uqX+X/zKV+jfhz6rjTfx6fT90fkZ9KaTqf8AhU3Y74FX0+6Nor9XT9fs08oPpFcf5h3xNmG+DT6NON/U1+so03ooAAAAAAAAAAAAAAAAAAAExkt9J6D7xfwqRsX8GpN0d+qo9f2dcOedkoElvy1WV6tnmzc5cP8ASGcmOgt4uYLLfHRzlVjSec5TPvD53uy3+vm/6hh72uC4dJedhpTjPvBvdlv9fN/1DB2uC4dJOw0pxn3g3uy3+vm/6hg7XBcOknYaU4z7wb3Zb/Xzf9QwdrguHSTsNKcZ94XCxx10VogZcnOdVpnZ6ucjl5Vw0p6sCtxE0Tcmbfgu8HTdpsxF78yq/KL863f8z/KT9Gf1fRUac8aPr+yjFqoAAAAAAAAAAAAAAAAAAAAAAAAAAAAAAAAAAAAAAAAAAADrOSH0Vofsu/Epz+N+PU7DRn6Sj+ecpsip4BRMp71VWXKZ0tJuedJSsa7dG46Ec5ektcLYpvWcqvKZc9pDF3MNitajziPH1lGcPLx/hfCXab9n2fmi7YxPy9v9nDy8f4Xwl2jZ9n5m2MT8vb/Zw8vH+F8Jdo2fZ+ZtjE/L2/2cPLx/hfCXaNn2fmbYxPy9v9nDy8f4Xwl2jZ9n5m2MT8vb/bTueVNxu1GtJU7huauR3mMwXFPabLWEt2qtalpv6RvX6NSvLJCkpBAAAAAAAAAAAAAAAAAAAAuGS30Wv/3a/gUrsX8e3/PNdaO/S3vT9lPQsVKuFz/1b2v71P8AOVtr9ZX/ADgusR/6236/5VGP9Kz7SfEsZ8FNT4wtnyhfrql/l/8AMpX6N+HPquNN/Hp9P3R+Rn0ppOp/4VN2O+BV9PujaK/V0/X7NPKD6RXH+Yd8TZhvg0+jTjf1NfrKNN6KAAAAAAAAAAAAAAAAAAABMZLfSeg+8X8KkbF/BqTdHfqqPX9nXDnnZAAABR7llBlJT3OqhpqFXwMlc2N3krnYt5tPOWlrDYaqiJqq3+qgv43G03aqaKd0Tu3S1eEuVXo9f+kftNndcLzdYau/4/k//rK42Oqq6y0QT10e51Ds7PbmK3DSqJoX1FbiKKKLk00eC7wdy5csxVdjKfZVflF+dbv+Z/lJ+jP6voqNOeNH1/ZRi1UAAAAAAAAAAAAAAAAAAAAAAAAAAAAAAAAAAAAAAAAAAABtQXOvpYtyp62oijRcc1kionYa6rVuqc6qYltov3aI1aKpiPVl37uvpOr8Z20x7C1yx7M+94jnn3k37uvpOr8Z20dha5Y9jveI5595WfIaeatulZJVyvnekLUR0q5y4Zy9JB0hTFFFMUxlvWuiK6rl2ubk57o8fVe9xi+rZ3UKrWl0GpTwNxi+rZ3UGtJqU8DcYvq2d1BrSalPA3GL6tndQa0mpTwNxi+rZ3UGtJqU8Fcy4jY3JuRWsai7qzkT1k3ATM3vdWaXpiMNOUecOYl45UAAAAAAAAAAAAAAAAAAAC35LKnBa/6f9mv4FK7F/Ht/zzXOjv0t70/ZUELFTLhc1Ti3tWlP0qf5yutfrK/5wXOI/wDWW/X/ACqMf6Vn2k+JYT4KenxhbPlC/XVL/L/5lK/Rvw59Vvpv49Pp+6PyN+lVJ1P/AAqbsd8Cr6fdH0V+rp+v2aeUH0iuP8w74mzDfBp9GjG/qa/WUab0YAAAAAAAAAAAAAAAAAAACXyXVG5TUCqqIm6LpX7KkbF/BqTNHzliqPX9nWfKIfrWd5Cg1Z4Ox16eJ5RD9azvINWeBr08TyiH61neQas8DXp4vpr2ubnNcip0op5lMPYmJ3w+d3h+tZ3kPdWeDzXp4m7w/Ws7yDVnga9PE3eH61neQas8DXp4qN8ocjHut+Y9rsN05Fx/dLTRsTGtn8lBpuYnUy+f7KQWihAAAAAAAAAAAAAAAAAAAAAAAAAAAAAAAAAAAAAAAAAAAAAABcvk8/WNb9y38RW6S/JT6rvQnxK/SHQindIAAAACt5c/RqT71nxJuA+N7qvS/wCmn1hy8vXKAAAAAAAAAAAAAAAAAAAz0dN5XVxQK5WNe5Gufm4oxFXlUwrq1aZlstW+0rinwz6OmUUlJQ0LKVlTQK1GIx67mqbpgmGK6dJSVxXXVrTEuptVW7VuKIqp9vFCS5P0Et2WvS60rU3VJNwSHzdGGjl5NBKjE3It6mrPrmgVYK1Ve7XtI8c8styflqaOWl8ndPb9ywXNbua4N9aJ7SJFNcVa2U5rGq5bqp1JmnL0QNpsVBa6zyhbpS1PmK3Mlh0c2nl9RKvYi5cp1dWY+qvw2DtWK9ftIq9YSl4jpLzRuglrqKN64YSpGquREXHBNJosTXZq1oplKxVNvEUatVUR88t7BY6KjsjHoy4Uc73OzkkfFg5ujDBFxM79dd6d9Mwwwlq3honKuJnjk0MrKSnrqbyuGoplnix/s4IlzpVcqaVX1G3B11UVasxOU8fJG0lbou09pTMZx5RHjmpBaKIAAAAAAAAAAAAAAAAAAAAAwToQPMn0yGSXHc4nvw5c1irh2Hk1RHjLKKJq8IzffklRq03hO2HmvTxZdlXyz7L/AJJRPjyQrWPje1yvl81Wqir5qcxUYyYnEUz6fd0WjKZjB1xMcfsoCUdRmp/o03J9U7YW+vTxc5FqvL8s+zx1NMxqufBI1qcqrGqInuEVRPhJNuqIzmOjHgnQhkwyA9AAAAAAAAAAAAAAAAAAAAAAAAAAAAAAAAAAAAAAAAAAAAAAAA3rZdqy0Tvlo5Gsc9ua7OajkVDVds0XYyrb8PibmHqmq3PilOG98+uh8FCP3Cxw6pe1sVxj2OG98+uh8FB3Cxw6m1sVxj2OG98+uh8FB3Cxw6m1sVxj2OG98+uh8FB3Cxw6m1sVxj2OG98+uh8FB3Cxw6m1sVxj2adyylud1pfJqqVixZyOVGxo3FU5Dbawtq1VrUxvab+Pv36dSud3oiSQhgAAAAAAAAAAAAAAAAAA3rZdquzzvmo3ta97cxVc3O0Y4mq7ZouxlW34fE3MPVNVvxlKcN759fD4KEfuFjh1S9r4rjHscN759fD4KDuFjh1Nr4rjHscN759fD4KDuFjh1Nr4rjHscN759fD4KDuFjh1Nr4rjHscN759fD4KDuFjh1Nr4rjHscN759fD4KDuFjh1Nr4rjHscN759fD4KDuFjh1Nr4rjHsryqqqqryquJNVrwAAAAAAAAAAAAAAAAAAAAACRtd7rrMsq0T2N3XDOzmZ3Jjh8TTesUXctfyScPi7uHz7OfFI8N759fD4KGjuFjh1Sdr4rjHscN759dD4KDuFjh1NrYrjHscN759fD4KDuFjh1Nr4rjHswVuVd2uFHLS1EsSxSJg5EjRF7TO3g7VuqKqY3w13dJYi7RNFcxlPyQhKQQAAAAAAAAAAAAAAAAAAAAAAAAAAAAAAAAAAAAAAAAAAAAAAAAAAAAAAAAAAAAAAAAAAAAAAAAAAAAAAAAAAAAAAAAAAAAAAAAAAAAAAAAAAAAAAAAAAAAAAAAAAAAAAAAAAAAAAAAAAAAAAAAAAAAAAAAAAAAAAAAAAAAAAAAAAAAAAAAAAAAAAAAAAAAAAAAAAAAAAAAAAAAAAAAAAAAAAAAAAAAAAAAAAAAAAAAAAAAAAAAAAAAAAAAAAAAAAAAAAAAAAAAAAAAAAAAAAAAAAAAAAAAAAAAAAAAAAAAAAAAAAAAAAAAAAAAAAAAAAAAAAAAAAAAAAAAAAAAAAAAAAAAAAAAAAAAAAAAAAAAAAAAAAAAAAAAAAAAAAAAAAAAAAAAAAAAAAAAAAAAAAAAAAAAAAAAAAAAAAAAAAAAAAAAAAAAAAAAAAAAAAAAAAAAAAAAAAAAAAAAAAAAAAAAAAAAAAAAAAAAAAAAAAAAAAAAAAAAAAAAAAAAAAAAAAAAAAAAAAAAAAAAAAAAAAAAAAAAAAAAAAAAAAAAAAAAAAAAAAAAAAAAAAAAAAAAAAAAAAAAAAAAAAAAAAAAAAAAAAAAAAAAAAAAAAAAAAAAAAAAAAAAAAAAAAAAAAAAAAAAAAAAAAAAAAAAAAAAAAAAAAAAAAAAAAAAAAAAAAAAAAAAAAAAAAAAAAAAAAAAAAAAAAAAAAAAAAAAAAAAAAAAAAAAAAAAAAAAAAAAAAAAAAAAAAAAAAAAAAAAAAAAAAAAAAAAAAAAAAAAAAAAAAAAAAAAAAAAAAAAAAAAAAAAAAAAAAAAAAAAAAAAAAAAAAAAAAAAAAAAAAAAAAAAAAAAAAAAAAAAAAAAAAAAAAAAAAAAAAAAAAAAAAAAAAAAAAAAAAAAAAAAAAAAAAAAAAAAAAAAAAAAAAAAAAAAAAAAAAAAAAAAAAAAAAAAAAAAAAAAAAAAAAAAAAAAAAAAAAAAAAAAAAAAAAAAAAAAAAAAAAAAAAAAAAAAAAAAAAAAAAAAAAAAAAAAAAAAAAAAAAAAAAAAAAAAAAAAAAAAAAAAAAAAAAAAB/9k=;" vertex="1" parent="1">
          <mxGeometry x="610" y="80" width="135.26" height="90" as="geometry" />
        </mxCell>
        <mxCell id="PaHSEo2nT983F2EYWPFA-16" value="Core Banking" style="shape=image;imageAspect=0;aspect=fixed;verticalLabelPosition=bottom;verticalAlign=top;image=data:image/png,iVBORw0KGgoAAAANSUhEUgAAAgAAAAIACAYAAAD0eNT6AAAABHNCSVQICAgIfAhkiAAAAAlwSFlzAAATGgAAExoBsFNW+AAAABl0RVh0U29mdHdhcmUAd3d3Lmlua3NjYXBlLm9yZ5vuPBoAACAASURBVHic7d15YJTlvfbx656ZhJCENQhJRLB1QUWQLQE99dS21Pf0tBYD5tjFtm7V11LB1g2XKuKr4NaKa21de6y1B1nktMdzKm05tpZNNgErCAoIhASyQEIIyczc7x9Ia6tWmCX3M8/9/fyn8jxzyWRmrsw8v98YAfBOv9PHDYkmIndao14mYa7f8dqcV11nAtC5jOsAADpP6ZhzjzWJyA0y9lJJkff+tTXSC0a6efvSuRtc5gPQeSgAgAdKh1cfpbz41Ub6nqT8j/hjcVnzZCw/ftu7r87f0Zn5AHQ+CgAQYkedVV2c1xqfaKWbJHU7zMNarfRgQbudsXnVvKZs5gPgDgUACKHBg6vzG4o7LpQ1t0vqm+JpGox0dyQae2Dboln7M5kPgHsUACBUpkZKK1dPMDJ3SfYTGTrpdhk7raZr05NauDCeoXMCcIwCAIREecWEsUmTvM9IQ7N0E+ut9IOdS+e+IMlm6TYAdBIKAJDjyivGnWFNZIakMzvpJpclpSm1S+f+rpNuD0AWUACAHFVaMWFwxCRvtVK1kwDGLjAmcv2OxXNWOLl9AGmhAAA5pnxk9QAbSdwkYy+RFHUcxxrphUg0ceO2RfM3Os4C4AhQAIAcUT7ynD7JaOwaI10lqYvrPO9npA5rzVMdSU3dvXxOjes8AD4eBQAIuH5Dzy6KFhR910o3SuruOs8/ZvZZ2YfYIQAEHwUACKqRl+WVxeoukjXTJPVzHecINRjp7vzCHjM3L3y6zXUYAB9EAQAC5+Asf0SabqXjXKdJ0zYZe3vNgLwnNGtWwnUYAH9FAQACpLxiwlhrkvdIGuY6S4b92Uq3skMACA4KABAA/caMGx1JRGbI6CzXWbLJyCxJRpJTdi6et9B1FsB3FADAobIxVSebpG6z0nny6fFo7AKTiF6347XZK11HAXzlzxMOECDlFeOOsYreHJBZfleSRpodT9gb6pbP2+Q6DOAbCgDQifqfXt07nohfZ6TJkgpc5wmCQzsE4oreumvZrJ2u8wC+oAAAnaDf0LOLIl0Kv2eMucZKPVznKS7sqsu/9mVJ0mPPzVdLayC+7bfZyt6XKMy7b9fCWS2uwwBhRwEAsum9WX5jzVQrlbmOkxeL6vwvfU7XXPYV9S3pKUlq3NOsR56dp8ef/5UOtHc4TihJqjfSPewQALKLAgBkhymtrDrPSHdIOsF1mEjE6IufOV03fOcCHdu/9EP/zI7a3br/yRf0i/kLlEgmOznhh7FbZXQHOwSA7KAAABlWXjFhrFXyLhmNcJ1Fks6sHKpbrvyWBp/4icP68xveeVf3/fSX+s/f/inLyQ7bG1aaunPp3FmugwBhQgEAMqS0YnxFxNgZVvqs6yySNPLUE3XDxAt0xohTUzp++doNuvPhf9eiFesynCw1VlpkrJlSs2zOK66zAGFAAQDSVD7qy4MUid4elFn+E47tr2su+4q+9NnTZUz6cf6w9HVNe/AZrdvwTgbSZYCxCyLWXLN96dzVrqMAucz5kxWQq/qfXn10Ip64RcZeLCnmOk95vz666uLz9NUvj1U0EsnouZNJq1//fpGmP/KsNm8LxKRe0kizEzYypXbZ7LddhwFyEQUAOEIDPvXFXu3t+dcbaZKkrq7z9OrRTd+54Fxd+pUvqUt+XlZvqyOe0C9/9Vvd+5PnVVcfiG/7bZc1Tyci8VvqlsyvdR0GyCUUAOAwDR5cnd9Q3HGFrLlVUi/XeQq7Fuii6i/oym9NUPfiwk697db9bXpq1kt68JnZ2tvS2qm3/RFarPRwu2m7s2HJS3tdhwFyAQUA+FgHv57XSHdLOtZ1mg+b5XclgDsEdhvp3sKGtvs3bnzpgOswQJBRAIB/oLxiwlgp+UNrNMR1lsOZ5XcleDsEtEXG3skOAeCjUQCAD1E+avw/2YidIelTrrNIRz7L70oAdwiss9Jt7BAAPogCALxPv1FVp0YjusVK1a6zSOnP8rsStB0CkvmTlJhSs/TFP7hOAgQFBQCQVHbG+IHq0I0y9lJJmZ2hS0GmZ/ldCeIOgWTEfr920YtrXEcBXMvdZxYgA8pHntMnGY1dY6SrJHVxnieLs/yuBHWHQDJir9u5eN5m12EAVygA8NJRZ1UX57XGJ1rpRkndXefpzFl+V4K6Q8DGozfvXDlrl+swQGejAMAr783yXyhrpknq5zqPy1l+VwK4Q6DZSo/E8xJ37H51frPrMEBnoQDAE3+Z5Z8h6ZOu0wRplt+VAO4Q2GWk+3rti/1o3bpZ7a7DANlGAUDolVdMGGtN8l5Jp7nOEuRZflcCuENgg5Vu3rl07guSrOswQLZQABBa/UaPHxOxdoakT7vOIuXOLL8rb23epnt/8rx+9btFsjYIr7v2tYjVlO3L5v3WdRIgGygACJ3S0eNOidjI1CDN8t848Rs6fcRg11FywvK1GzT94Wf1pxVrXUc5yNgFkqbULJm33HUUIJMoAAiN8opxx1hFb5axl0iKus5z4ieO0dXfPl/nfO4M11FyUsB2CFgjvRAxkZu2LZn9luswQCZQAJDzjq6sKklI1xppsqQC13nCOMvvStB2CBipw1rzVCw/ftu7r87f4ToPkA4KAHJWv6FnF0ULir4r6QYr9XCdx4dZflcCuEOg1UoPFrTbGZtXzQtEIOBIUQCQe0ZellcWq7tI1twmyfml9D7O8rsSwB0CDUa6OxKNPbBt0az9rsMAR4ICgFxiSiurzpPMnUb2eNdhmOV3J4A7BLbJ2NtrujY9qYUL467DAIeDAoCccHCWP3G3ZIa7zhKWWf661oOvU30LY46TpC5wOwSM3rRWt7BDALmAAoBAKx11bmUkYmZY6TOus0jhmOXf257UU2sb9fM3m5S00rjjumnisBL1LnA+OJGywO0QMFqatLqhdunc37mOAnwUCgACqXzkhJMUTU6z0nkKwM9pGGb52+JWz61v0lNrG7W3/W9/Wy7Ki+j8E3vo0iG9VJSXu5MLQdwhYEzk+h2L56xwHQX4e86fWIH3O3r0+P7JpH4gYy+W5Py96TDM8seTVvM2NevHqxu0a/8//ni6V0FU3zylpy44qafyo7n79BDIHQLRxI3bFs3f6DoMcEjuPsIRKv1Pr+4dT8SvM9IkSV1d5wnDLL+V9PKWFj24sl5bm4/sQrmyopguHdJb44/vrkiOPksEdYdAR1JTdy+fU+M6D5CjD22ERfnIcwoVjV1ppSmSnF9KH5ZZ/sU1rbp/Rb3+3HAgrfMc3zNflw/trbMHFmcoWecL3g4Bs8/KPnQgEZveuHzWHtdp4C8KANx4b5bfJs2txqjcdZywzPKv3d2mmSvrtXRnZkfShx1VoMkjSjSir/M3Z1IWwB0C9Ua6J7+wx8zNC59ucx0G/qEAoLOZ0sqq84x0h6QTXIcJyyz/O3va9cjqBr28pSWrs2djygp19cg+OrFXfhZvJbsCuEPgXRn7/2oG5D2hWbMSrsPAHxQAdJr3ZvmnS2aU6yxhmeXfuS+un65p0NyNzUp00vhbxEhjBxRr8ogS9S/O3Y9JArdDQPqzlW5lhwA6CwUAWVdWOWGUTGK6rBnrOosUjln+pgMJPbOuST9/s0kHEm5eK/IiRuOO66bvDCtRCTsEMsZIi5MRe8POxfMWus6CcKMAIGtKx5x7rElEbpCxl0pyfil9GGb598eT+sX6PXpiTaNaOgLxW6sKYxF9ZRA7BDLO2AWRpK7dvmzeKtdREE4UAGRc6fDqo5QXv9pI35Pk/MPiMM3yP7q6Xrv3B/Nj4p5dovrW4J76+kk91YUdApmSNNLseMLeULd83ibXYRAuufsoReAcdVZ1cV5rfKKVbpLUzXWeMMzyJ620YGuLHlhZr3ePcJbfFXYIZN6hHQKJSPyWuiXza13nQTjk6MMTQTJ4cHV+Q3HHhbLmdkl9XecJ0yz/D1fUa32as/yufLJHvq44jR0CmXVwh0C7abuzYclLe12nQW6jACANUyOllasnGJm7JOv8irqwzPK/vrtNM1fU67XacHy9/NA+B3cIjOrHDoEM2m2kewsb2u7fuPGl3GyIcI4CgJSUV0wYmzTJ+4w01HWWsMzyv72nXY+ubtBvtrS4jpIVY8oK9f0RJRrUu4vrKCkL3g4Bu1VGd7BDAKmgAOCIlFeMO8OayAxJZ7rOEpZZ/pp9cT2+pkFzNu5V0v0UWlYd2iEwaXiJjumWux/PBHCHwDor3bZz6dxZroMgd1AAcFhKKyYMjpjkrVaqdp1FCtcs/7NvNqnd0Sy/K7GI0bnHddMVp5WoT1d2CGSKlRYZa6bULJvziussCD4KAP6h8pHVA2wkcZOMvUSS82fqMMzyt8aTen79Hj2+plH7AjLL70rXWERfHdRDlwzppWJ2CGSOsQuiil69bcns111HQXBRAPChykee0ycZjV1jpKskOf/QNgyz/B1Jqxc3NeuRVfWqb+Pj2vdjh0BWJI00O6H49bVL/zMQgRAsuftIQ1b0G3p2UbSg6LtWulFSd9d5wjTLf/+Kem1vCcKFY8FVWhTTt9khkGntsubpZJ79Qe2f5ta5DoPgyNGHGDLuva/nlTXTJPVzHSdMs/z3Ld+tDY3trqPklEM7BD4/sDhnn6SCt0NALVZ6OJ6XuGP3q/ObXYeBe7n62ELGHJzlj0jTrXSc6zRhmeVfVdemmSvrtaIuHLP8rgzpU6DJw0tUUcoOgQzaZaT72CEACoDHDn49b/IeScNcZwnLLP/GpnY99np4Z/ldGVNWqKtGlOhkdghk0hYZe2fNkmGPS1P9vhrVUxQAD/UbM250JBGZIaOzXGcJyyz/jpYOPbG20YtZfleMpM8PLNaVw0s0gB0CmbTWStPYIeAfCoBHysZUnWySus1K5ykA930YZvkb2xL62Rt+zvK78tcdAr3Vp2vMdZyUBW2HgIxeNdKUHUvm/tF1FHQO5y8CyL7yinHHWEVvZpY/c/Z1JPXLDczyu1QQM/raoJ66+NRe6pafmxMiUjB3CCQj9vu1i15c4zoKsosCEGL9T6/uHU/ErzPSZEkFrvOEYZa/LW713PomPbW2UXvbeeEPgh5dorowJDsEbn/oGa1dH4iR/aSRZicj9rqdi+dtdh0G2ZG7jxZ8pPfN8k+R5PyKuqNL+2jyRbk9y5+wVnM3NuvHqxu0a3/cdRx8iL6FMV0+tLeqju+mqMnNp7ZA7hAw+nFeXvvUrX/8daPrMMis3HyU4MO9N8tvrJlqpTLXccIwy28lvbylRQ+tqteWvYG4chsf49ju+Zo4jB0CGdZopLsi0dgD2xbNYrY1JHL18YG/ZUorq84z0h2STnAdJiyz/ItrWjVzZb3eqGdUOhcNLumiySP6aDQ7BDJpu4ydVtO16UktXMhbYTmOApDjyismjLVK3iWjEa6zhGWWf+3uNj2wsl5LdvKLThiMKSvUpOElGlzCDoEMWm+lH+xcOvcFHXyjDDmIApCjSivGV0SMnWGlz7rOEpZZ/nf2tOuR1Q16eUsLz2ghYySd2b9Ik4aX6ISe+a7jpCyAOwSWRay9Yfuyeb91HQRHjgKQY8pHfXmQItHbmeXPnNrWuH7yeoPmbmxWIgjz2MiaiJHGDijW90aUqLw4N69LkYK4Q8AukDSlZsm85a6j4PA5fwHB4el/evXRiXjiFhl7sSTn20/CMMu/50BCT69r0s/fbNIBlvh4JS9iNO64bpo4rES9C5yvxkhZwHYIWCO9EDGRm7Ytmf2W6zD4eBSAgBvwqS/2am/Pv95IkyQ5v5opDLP8++NJ/WL9Hj25tlHNzPJ7rSgvovNP7KFLh/RSUV5ujqhKwdohYKQOa81THUlN3b18To3rPPhoFICAGjy4Or+huOMKWXOrpF6u84Rhlj+etJq3qVmPrm7Qbmb58T69CqL65ik9dcFJPZWfo8uEArhDoNVKDxa02xmbV80LxCwj/lZu/qSH2sGv5zXS3ZKOdZ0mDLP8SSst2NqiB1fWa2tzIK6gRkCVFcV06ZDeGn98d0Vy9NkxgDsEGox0NzsEgidHf8TDqbxiwlgp+UNrNMR1ljDN8v9oRb3ebGCWH4fv+J75unxob509sNh1lJQFcIfANhl7OzsEgoMCEADlo8b/k43YGZI+5TpLWGb5X9/dppkr6vVaLb9wIHXDjirQ5BElGtHX+eU3KQvcDgGjN63VLewQcI8C4FC/UVWnRiO6xUrVrrOEZZb/7T3tepRZfmTYmLJCXT2yj07sxQ6BTDEyS5JGN+xcMuf3rrP4igLgQNkZ4weqQzfK2EslOb+iLgyz/DX74np8TYPmbNyrJK/8yIJDOwQmjyhRf3YIZI6xC0wiet2O12avdB3FNxSATlQ+8pw+yWjsGiNdJcn5XtIwzPI3HUjoGWb50YkO7RD4zrASlbBDIFMO7hCIJm7ctmj+RtdhfEEB6ARHnVVdnNcan2ilGyV1d50nDLP8rfGknl+/R4+vadS+DvdvZ8I/hbGIvjKIHQKZdGiHQFzRW3ctmxWIWcYwowBk0Xuz/BfKmmmS+rnOE4ZZ/o6k1YubmvXIqnrVtyVcxwHUs0tU3xrcU18/qae6sEMgQ8w+K/vQgURseuPyWXtcpwmr3PxpDby/zPLPkPRJ12nCNMs/c0W9trUE4Epm4O+wQyAr6o10T35hj5mbFz7d5jpM2OToj2lwlVdMGGtN8l5Jp7nOEqZZ/h8ur9f6Rmb5EXyf7JGvK05jh0CGvStj/1/NgLwnNGsWb/1lCAUgQ/qNHj8mYu0MSZ92nSUss/yrdrXpgZX1Ws4sP3LQ0D4HdwiM6scOgQx6w0pTdy6dO8t1kDCgAKSpdPS4UyI2MpVZ/szZ2NSux15v0G+2tLiOAqRtTFmhvj+iRIN6Ox/8SVnwdghocdJqys5lc//XdZZcRgFIUXnFuGOsojfL2EskOZ8FYpYfCK5DOwQmDS/RMd1y8zocKZg7BCLWXLN96dzVrqPkIgrAETq6sqokIV1rpMmSClznCcMsf2NbQj97o0nPvtmkdmb5EWKxiNG5x3XTFaeVqE9X5783pCxgOwSSRpqdsJEptctmv+06TC6hABymfkPPLooWFH1X0g1W6uE6Txhm+fd1JPXLDczywz9dYxF9dVAPXTKkl4rZIZAp7bLm6UQkfkvdkvm1rsPkAgrAxxl5WV5ZrO4iWXObJOcfrIdplv/hVfVqYJYfHmOHQFa0WOnhdtN2Z8OSl/a6DhNkufkT1zlMaWXVeZK508ge7zpMmGb5f7SiXjuY5Qf+orQopm+zQyDTdhvp3sKGtvs3bnyJGeIPkaM/atl1cJY/cbdkhrvOEoZZfivp5S0temhVvbbs5YUf+CiHdgh8fmBxzj45B2+HgN0qozvYIfBBufozlhWlo86tjETMDCt9xnWWsMzyL65p1QMr67WungIOHK4hfQo0eXiJKkrZIZBB66x0GzsE/ooCIKl85ISTFE1Os9J5cvx3EpZZ/nX1BzRzxW4t2ckSHyBVY8oKddWIEp3MDoEMMn+SElNqlr74B9dJXPO6ABw9enz/ZFI/kLEXS4q5zhOGWf7Ne9v18KoGvbylRQz0Aekzkj4/sFhXDi/RAHYIZI6xC6KKXr1tyezXXUdxxcsC0P/06t7xRPw6I02S5Pw9tjDM8te2xvWT1xs0d2OzEkF4cAMh89cdAr3Vp6vz31dSFsgdAopfX7v0PwMxy9iZvCoA5SPPKVQ0dqWVpkhy/sF6GGb59xxI6Ol1Tfr5m006wBIfIOsKYkZfG9RTF5/aS93yc3MUWArmDoFknv1B7Z/m1rkO01n8KADvzfLbpLnVGJW7jhOGWf62uNVz65v05NpGNbcH4XM9wC89ukR1ITsEMq3FSg/H8xJ37H51frPrMNmWmz81h8+UVladZ6Q7JJ3gOkzvnt11xdfH5fQsfzxpNW9Tsx5d3aDd++Ou42TUvqUvK9ncmPLxRWP+RZGi7hlMlB6bTKrl9y+kfLyJ5an401UZTJS+ROMuta74fcrHR0tKVTjsnzOYyL2+hTFdPrS3qo7vpqjJzaf0AO4Q2GWk+8K+QyA3f1oOw8FZ/uQMSSNdZzk0yz/pwgnqVpTbs/wPrqzX1uZAjPRkXOMvZyq+a3vKx/f66vcVKwnQ5EYirl2P3pjy4Savi/pcfnsGA6WvfdtG7Zn3k5SPzx9wonp8+dIMJgqOY7vna+Iwdghk2GYZO71mybDHpamhe6szd68k+QhllRNGySSmW5sc6zpLXl5M53/xs7r28q/oqN7OLzlI2eKaVt2/ol5/bghtEQZy3ua97br2lZ0aXNJFk0f00egc3CFQ2LVAE79Zpa+NGxuUHQLHyprHyipXX2lVNS1sOwRCUwBKx5x7rElEbpCSl8oapx+sH5rlv3HiNzTw6H4uo6Rlze42zVxZr2XM8gM5Y139AV328naNKSvUpOElGlySezsEevXoppsmfkMXnfeFoOwQONVI/1E2uupVkzDX73htzqsuw2RKzheA0uHVRykvfrVJ6nsyNt91njDM8r+9p12PrmaWH8hli2tataSmVWf2L9Kk4SU6oafzp8cjVt6vj+6+4f/q21/9UjB2CFj9k43YP5RXVr1gpJu3L527wV2Y9OVsATjqrOrivNb4RKv4TZK6uc4Thln+nfvi+umaBs3ZuFdJXvmBnGclvbJtn/64fZ/GDijW90aUqLw49y5APuHY/nrszmu0Yt0G3fmQ8x0CxkrVVqoqqxj/ZCw/ftu7r87f4TJQqnKuAAweXJ3fUNxxoVrjt1upr+s8YZjlbzqQ0DPM8gOhlbTSb7a06Pfv7tO447pp4rAS9S6Iuo51xEYMPlEvPDotKDsEYjL2snhH9ILSyqoH8/Pb79r6x1+nPkbkQA4VgKmR0srVExqUuEvWOH9/PQyz/PvjSf1i/R49saZRLR2hu8AVwN/pSFq98NZevbS5Reef2EOXDumlorzce/46s3Ko/vvpe4OyQ6DQSNd3tOdfVl5ZdVckGntg26JZOXHhVE4UgPKKCWOTZvV9Rhoqx59Kh2GWvyNp9eKmZj26ul679/PtmIBv9nUk9eS6Rs3dtFffPKWnLjipp/JzbJlQJGJ0zufO0L98enRQdgj0stKMRCJ+Zdnoc6fVdG16UgsXBnpZSqCrX3nFuDPKKqtesSb58sEXf3cOjacsmvOIJn6zKidf/A+9DXjui1t1++I6XvwBzzW2JTRzRb2+/OIWvfBWbl77kxeL6oJzz9afZj+imyZ+Q92Lne9aOVrWPFbW2mttaWVVtQK8byeQ7wCUVkwYHDHJW61U7TpLmGb5f7i8XusbmeUH8Ldq9sV1++I6/eLNJl0+tLfOHljsOtIRC+AOgUFG+o+yyqplSWlK7dK5v3MZ5sMEqgCUj6weYCOJm2SSl1jJ6RUqYZnlX73r4Cz/8tqc+EgKgEMbmw4uE/r5UQWaPKJEI/rm3jKhAO4QqIhIvy0bfe4CYyLX71g8Z4XLMO8XiAJQPvKcPslo7Bqr+FWSnG+tCMMs/6amdv349Qb9ZkuL6ygAcsyqXW266H8OLhO6emQfndiLHQJps2astfa18sqqFyLRxI3bFs3f6C7MQU4LQL+hZxdFC4q+a6UbjeT8W1TCMMtfsy+ux5nlB5ABi2tadf6vt2rsgGJNHlGi/uwQSJexUnUyET23rGL8Ux1JTd29fE6NqzBuCsB7X88ra6ZZyfn762GY5W9sS+hnbzTp2Teb1M4sP4AM+fsdAt8ZVqISdgikxUp5MvayvKj5emll1UMF7XbG5lXzOn2EoZMLwMFZ/oh2TbfWHNe5t/1BYZjlb40n9fz6PXp8TaP2McsPIEsO7RD4r3da9JVB7BDIDFtkpOsP5Jtvl1dW3Z1f2GPm5oVPt3XWrXfaeMJ7X897j6RhnXWbHyVMs/wPr6pXQxvjfJnQvmW9bFvqX0Gad+zJinQpyGCiNFmrAxtWpX54JKKCE07LYKD0JVub1fFu6h+dmuLuyj/a+e8eodCzS1TfGtxTXz+pp7rk2A6BQzriiaDsEDhkm4y9vWZA3hOaNSvrT+xZv9f6jR4/JpK002V0VrZv6+MUdi3QRdVf0KQLJ6hbkfNZ0ZQkrbRga4t+tKJeO1qcjrgAgMqKYrp0SG+NP767IrnZA9S6v01PzXpJDz4zW3tbUv8lIIP+bKVbdy6d+4KyuP0ua3dX2Ziqk01St1npvGzezuEI0yz/va/t1ltN7a6jAMDf+GSPfF1xWm7uEDikcU9zUHYISJKMzJJkJDll5+J5C7Nz/gwrrxh3jFX0Zhl7iZjlz4iVdW2auXK3VtZ12kdDAJCSoX0O7hAY1S/3dggcsqN2d1B2CBxk7AKTiF6347XZKzN62kydqP/p1b3jifh1RposyfkHoWGY5V9Xf0A/fr1Br2zb5zoKAByRMWWF+v6IEg3q7Xy1S8re2rwtGDsEDkoaaXY8YW+oWz5vUyZOmHYBeN8s/xRJzt9fD8Ms/+a97Xp4VYNe3tLi+KuPACB1ESONHVCsScNLdEy33LzgWlJQdghIkozUYa15Kq7orbuWzUprhCH1AvDeLL+xZqqVytIJkQlhmOWva43rsdcbNHdjsxLu2yYAZEQsYnTucd10xWkl6tM193YIHBKEHQJ/ZfZZ2YcOJGLTG5fP2pPSGVI5prSy6jzJ3Glkj0/lRjMpDLP8ew4k9PS6Jv38zSYdYIkPgJDqGovoq4N66JIhvVScgzsEJCmZtAHZIfAX9Ua6J5UdAkdUAMorJoy1St4loxFHli/zwjDL3xa3em59k55c26jm9gBcaAIAnYAdAtlgt8rojiPZIXBYf/OlFeMrIsbOsNJn0wuYvjDM8seTVvM2NevHqxu0a3/cdRwAcKK0KKZvs0Mg096w0tSdS+fO+rg/+A//ystHfXmQItHbmeXPDCvp5S0tenBlvbY2u58xBYAgOLRD4PMDi92+0KQhaDsErLTIWDOlZtmcVz7qz3zo33X/oVESGQAAEXxJREFU06uPTsQTt8jYi+X4GwPDMsu/uKZV96+o158bDriOAgCBNKRPgSYPL1FFKTsEMsbYBRFrrtm+dO7qD/yn9//DgE99sVd7e/71Rpokyfk9EIZZ/jW72zRzZb2W7dzvOgoA5IQxZYW6akSJTmaHQKYkjTQ7YSNTapfNfvvQvzSSVD7ynEJFY1da6XpJvZxFfE8YZvnf3tOuR1czyw8AqTCSPj+wWFcOL9EAdghkSruseToRid9St2R+rSkfXXWxtZom6WjXyU4+fqBu+M4FGvtPI11HSdnOfXH9dE2D5mzcqySv/ACQlr/uEOitPl2dfiKdlgWvLtf0R57VnzducR1FRtoj2TtNWWVVraS+LsOEYZa/6UBCzzDLDwBZURAz+tqgnrr41F7qlp+brxMB2yFQ57QAhGGWf388qV+s36Mn1jSqpSMAF3wAQIj16BLVhewQyAQ3BaCoa4EuDMks/6Or67V7/2HtXAAAZEjfwpguH9pbVcd3U9TkZhFwvEOgcwtAGGb5k1ZasLVFD6ys17vM8gOAU8d2z9fEYewQSEHnFIAwzfL/cEW91jPLDwCBMrikiyaP6KPR7BA4XNkvAGdWDtWtky7UKSccm62byLrVu9r0wMp6vVbLLD8ABNmYskJNGl6iwSXsEPgY2SsAI4cM0o3fuSCnZ/k3NbXrx6836DdbWlxHAQAcJiPpzP5FmjS8RCf0zHcdJ2Ur1m3Q9Ief1avLs7JDIPMF4MRPHKOrv32+zvncGZk6Zaer2RfX48zyA0BOixhp7IBifW9EicqLc3PSTJL+sPR13f7QM1q7/p1MnjZzBSBMs/zPvtmkdmb5ASAU8iJG447rponDStS7IOo6TkqstfrV7xZp+iM/1+ZtNZk4ZfoFIAyz/K3xpJ5fv0ePr2nUPmb5ASCUivIiOv/EHrp0SC8V5eXmL6oZ3CGQfgFY9V9Pqm9Jbo70dSStXtzUrIdX1auhjVl+APBBr4KovnlKT11wUk/l5+gyobr6Jg3714vTOkXai5ULuuTeBRaHZvnvX1Gv7S3M8gOATxrbEpq5ol7/sX6PLh3SW+OP765IjvWATLz25u43K6RocU2r7lu+Wxsa211HAQA4VLMvrtsX1+kXbzbp8qG9dfbAYteROpU3BWBVXZvuX7lbK+vaXEcBAATIxqZ2XfvKTv38qAJNHlGiEX1zd5nQkfCiABxIWOVHja4bdZTrKACAADPm4He9xHLtM4EUeFEAukSNTsnhrVAAAGRabs5BAACAtFAAAADwEAUAAAAPUQAAAPAQBQAAAA9RAAAA8BAFAAAAD1EAAADwEAUAAAAPUQAAAPAQBQAAAA9RAAAA8BAFAAAAD1EAAADwEAUAAAAPUQAAAPAQBQAAAA9RAAAA8BAFAAAAD1EAAADwEAUAAAAPUQAAAPBQLN0T7G3ZJ2uTmcgCAAAOQ/O+/Wmfw5RVVtVK6pt+HAAAkCPq+AgAAAAPUQAAAPAQBQAAAA9RAAAA8BAFAAAAD1EAAADwEAUAAAAPUQAAAPAQBQAAAA9RAAAA8BAFAAAAD1EAAADwEAUAAAAPUQAAAPBQLCKdnTQ25jrI+9lk5F+NsdNc5wippKQ9Dm63q6QCB7cbdnFJzQ5ut1BSFwe364M2Sel/2fuR6yF+KcwSs0+y7a5T/J09xnWCD1M2evw3ZO3PUj3+//xzpZ66Z0omIwVGTV29Rp7z7ZSPN9KmHUvnHp/BSIelbHTVdFmlfKdMveoiXfbVczIZKTBmv/S/unLqzJSOtdKinUvnnpHhSB+rtLLqCSNdnOrxD06drAlf+HQmIwXGY8/N120zn079BEYzapbMvSFjgQ5TeWXVRisdl+rx//OzezVk0CczGSkwrrnzET334oLUT2DMN2uWzPn3zCXKDNoeAAAeogAAAOAhCgAAAB6iAAAA4CEKAAAAHqIAAADgIQoAAAAeogAAAOAhCgAAAB6iAAAA4CEKAAAAHqIAAADgIQoAAAAeogAAAOAhCgAAAB6iAAAA4CEKAAAAHqIAAADgIQoAAAAeogAAAOAhCgAAAB6iAAAA4KGY6wDZsGjlOv3Lt651HSMrOjririM48dhz8zXnv19xHSMrmva2uI7Q6e75yfP66fO/ch0jK3Y1NLmO4MR3b7lfXQu6uI6RFdt27nIdIStCWQD2Nu/T629uch0DGVRTV6+aunrXMZAhW3fUauuOWtcxkEFvbd7mOgKOEB8BAADgIQoAAAAeogAAAOAhCgAAAB6iAAAA4CEKAAAAHqIAAADgIQoAAAAeogAAAOAhCgAAAB6iAAAA4CEKAAAAHqIAAADgoUB+G2BUZnHCJC9P8zTVsmZsRgIBABAygSwA25bMfkvSW+mco6yyapCklAvAJed/UZee/6V0Inyof/nWtdrTnPr3v0dN5LSOpFI+QVTxjpRvPA3RSOyejnjyp+mcI2KST0n651SPf3ja9zTi1BPTifAB77xbo69Nnpbq4QeSNnJKOrefn9/Rls7xKeuITUnGknekc4qISc6XNDjV45+beYs+cUxZOhE+YMXaDZp4y4/SOcUrSRu5KJ0T5EUjTekcnzKb/ExSsbxUD8+LqDhhk6tTPb5Ht2L99zP3pHr4R3r8l7/SE7/8dcrHW+lJayNp/awnCyN16RyfLYEsAEHQs1uxBh7dL+PnjUbT+9SlVa2bG5a9tDdDcTrNtkWzGiQ1pHOOssqq1nSO79unV8bv07YD7ekcbmuXzX47U1k6086Vs3ZJ2pXOOcoqqg7IpHF835KM35/bdqb1vyRJrbl6n+5Y9uK76Rzfe/QXundRQcrHR6ORrDzn9uxWnNbxRmramaP36cfhGgAAADxEAQAAwEMUAAAAPEQBAADAQxQAAAA8RAEAAMBDFAAAADxEAQAAwEMUAAAAPEQBAADAQxQAAAA8RAEAAMBDFAAAADxEAQAAwEMUAAAAPEQBAADAQxQAAAA8RAEAAMBDFAAAADxEAQAAwEMUAAAAPEQBAADAQxQAAAA8RAEAAMBDFAAAADxEAQAAwEMUAAAAPEQBAADAQxQAAAA8RAEAAMBDFAAAADxEAQAAwEMUAAAAPEQBAADAQxQAAAA8RAEAAMBDFAAAADxEAQAAwEMUAAAAPEQBAADAQxQAAAA8RAEAAMBDFAAAADxEAQAAwEMUAAAAPEQBAADAQxQAAAA8RAEAAMBDFAAAADxEAQAAwEMUAAAAPEQBAADAQxQAAAA8RAEAAMBDFAAAADxEAQAAwEMUAAAAPEQBAADAQxQAAAA8RAEAAMBDFAAAADxEAQAAwEMUAAAAPEQBAADAQxQAAAA8RAEAAMBDFAAAADxEAQAAwEMUAAAAPEQBAADAQxQAAAA8RAEAAMBDFAAAADxEAQAAwEMUAAAAPEQBAADAQxQAAAA8RAEAAMBDFAAAADxEAQAAwEMUAAAAPEQBAADAQxQAAAA8RAEAAMBDFAAAADxEAQAAwEMUAAAAPEQBAADAQxQAAAA8RAEAAMBDFAAAADxEAQAAwEMUAAAAPEQBAADAQxQAAAA8RAEAAMBDFAAAADxEAQAAwEMUAAAAPEQBAADAQxQAAAA8RAEAAMBDFAAAADxEAQAAwEMUAAAAPEQBAADAQxQAAAA8RAEAAMBDFAAAADxEAQAAwEMUAAAAPEQBAADAQxQAAAA8RAEAAMBDFAAAADxEAQAAwEMUAAAAPEQBAADAQxQAAAA8RAEAAMBDFAAAADxEAQAAwEMUAAAAPEQBAADAQxQAAAA8RAEAAMBDFAAAADxEAQAAwEMUAAAAPEQBAADAQxQAAAA8RAEAAMBDFAAAADxEAQAAwEMUAAAAPEQBAADAQxQAAAA8RAEAAMBDFAAAADxEAQAAwEMUAAAAPEQBAADAQxQAAAA8RAEAAMBDFAAAADxEAQAAwEMUAAAAPEQBAADAQxQAAAA8RAEAAMBDFAAAADxEAQAAwEMUAAAAPEQBAADAQxQAAAA8RAEAAMBDFAAAADxEAQAAwEMUAAAAPEQBAADAQxQAAAA8RAEAAMBDFAAAADxEAQAAwEMUAAAAPEQBAADAQxQAAAA8RAEAAMBDFAAAADxEAQAAwEMUAAAAPEQBAADAQxQAAAA8RAEAAMBDFAAAADxEAQAAwEMUAAAAPEQBAADAQxQAAAA8RAEAAMBDFAAAADxEAQAAwEMUAAAAPEQBAADAQzHXAT5M/9ETTkgo8Zn0zmKHyprMBAIAIGQC+QpZNnr8N2Ttz1xmOPETx2jQJ4/J+Hn/5w/L1N7ekfoJrBYqYuOpH2921Cyd+63UA6SmvHL81yR7bjrnsNKZkkpTPf70EYPVp1ePdCJ8QPO+Vi1cvCrVw5My9nfpJTBv1CyZOzm9cxy50opzr4gYk1ZJt9JYSb1SPf6sMcPUragwnQgfsLtxjxatWJfOKepl7Mp0TmCsnt+xdN4T6ZwjFaWV4x+MyPZL9Xgrk5fOYzw/P0//58yKVA//SOvfflcb3nk3jTPYrTLakE4Gk4zetWPZ7AXpnCMbAvkOQBBseCfdH5osMTornXc2jLQpg2kOmzV2iKyqXdz2IWk+sWdDRNaMTecEVirKVJgjYswoK7f3ZxrFK5tK0r5PrVmWqTBHIiL7BSsdl/oZbFq3397eof/87Z/SOkd2mAGyGpDOGWzE7S+0H4VrAAAA8BAFAAAAD1EAAADwEAUAAAAPUQAAAPAQBQAAAA9RAAAA8BAFAAAAD1EAAADwEAUAAAAPUQAAAPAQBQAAAA9RAAAA8BDfBghvGWPUvfhvv0yvsGsX5ef99WERi8VU1LXgb/5M9+JCmchfv5GxID9fBV3yP/a8ee8/bzSq4sKuqtlVryf/478y8v8DAEcilAXgtJOP03e+UeU6RlY07mnWlLsecx2jU/1z5Wma+Hf3Z2FhgfJi0b/8c14spsIPeaGOvO+FusvfvVAHwZr1b3tZAC7+t3/V6GGnuI6RFQv++Jpm/ddC1zE63YzrL1evHt1cx8iKR/59rlb/2ck3qWdVKAtA6VElOudzZ7iOkRU1dfXeFYBjyvvqzMqhrmMgg4afckJoH6M7ane7juDE5z81SmV9S1zHyIo5//1KKAsA1wAAAOAhCgAAAB6iAAAA4CEKAAAAHqIAAADgIQoAAAAeogAAAOAhCgAAAB6iAAAA4CEKAAAAHqIAAADgIQoAAAAeogAAAOAhCgAAAB6iAAAA4CEKAAAAHqIAAADgIQoAAAAeogAAAOAhCgAAAB6KHV1ZdVrS2JjrIO9nkzrWGNcpAAAIr1hS+o2s6es6yPsZY9M6fsM77+qOh/89Q2mCZV/r/rSOt1JJaWXVjAzFOWzG6tPp3av4UFYDXdyfkkalc/D8Ba/qzbe3ZipLoKx+Y2NaxxtjP+PiPrVSSTrHP/jMbBUVds1UnEDZ8M67aR1vrP230sqqwRmKkxHG2hZTVllVKylQBQB4v4FH99PQk45zHSMrmppb9Ielr7uOAcA/dYF66x/4MFu212rL9lrXMQAgVLgIEAAAD1EAAADwEAUAAAAPUQAAAPAQBQAAAA9RAAAA8BAFAAAAD1EAAADwEAUAAAAPUQAAAPAQBQAAAA9RAAAA8BAFAAAAD1EAAADwUNpfB/zUPVNUWFCQiSwAAOAwtLa16aJrZ6R1jrQLwOkjTlX34sJ0TwMAAA7T3pbWtM/BRwAAAHiIAgAAgIcoAAAAeIgCAACAhygAAAB4iAIAAICHKAAAAHiIAgAAgIcoAAAAeIgCAACAhygAAAB4iAIAAICHKAAAAHiIAgAAgIcoAAAAeIgCAACAhygAAAB4iAIAAICHKAAAAHiIAgAAgIcoAAAAeCiW7gnu++nzys/Py0QWAABwGNrbO9I+hymrrKqV1Df9OAAAIEfU8REAAAAeogAAAOAhCgAAAB6iAAAA4CEKAAAAHqIAAADgIQoAAAAeogAAAOAhCgAAAB6iAAAA4CEKAAAAHqIAAADgIQoAAAAe+v8NKFJU081lVQAAAABJRU5ErkJggg==;" vertex="1" parent="1">
          <mxGeometry x="640" y="200" width="60" height="60" as="geometry" />
        </mxCell>
        <mxCell id="PaHSEo2nT983F2EYWPFA-17" value="Mobile Money" style="shape=image;imageAspect=0;aspect=fixed;verticalLabelPosition=bottom;verticalAlign=top;image=data:image/webp,UklGRvDMAABXRUJQVlA4IOTMAABwewSdASqAB4AHAAAAJaW78ZsqA51Df+Fv4B9gHyUUSfvr/kP2e/Zf6v/m/8//hP///wPTNjvtJ9N/s3+J/uf9q/+P+h+fng3kb75eiv9M/qf/Y/w/3Nf2emPqb/l/cB8R/jH5f/ff65/lv+Z/cv///+PvN/if8r/df2n/rH/////4Q/R/+U/Nn6Af4p/Gf77/Wf8b/zP77////r9Zn+8/kvub/dH/q+wH+nf1n/of4/98/mT/sv/C/yf78fJn/Ef4//hf5r/Uf//6Af6p/ZP+Z+dHxUewh+wH/39wX+p/4j/m/nR8un98//P+2/53////P2l/rx/6/9J+/n/i+0n+cf1P/wf5j/bf/z/k/QB/Ff//2ZH8A/f/3n/dP9N5qPqn6//efx5/tH+79e/EB4x9av6//qv8/+IvJn4sfnv7//t+jP8z+x/1D+vf4v/Bf3r/l/6X8L/eh+SvnD++/yf+x/MT+8/IL+Ifxf+of0r/Gf3n+/f8f/N+up3DvC/8z/u+oR7YfPf71/cv8n/mv7p/1f9r9l35n/A/LP3S/iv9j/x/yH/uX2A/z3+i/27/Afsn/f/+5/tvvv/e+D79+/137d/AH/MP6F/lv7r/q/9//gv/n9v/9V/zf9T/r/97/mv/v/yvlV9Hf7r/L/6n/df5H//f8L9FP5T/Rf73/b/8p/mv7v/9P9x9z3/i90v7V/7n6////+pH60/ej+////T1Bk8abRMabRMabRMabRMabRMabRMabRMabRMabRMabRMabRMabRMabRMabRMabRMabRMabRMabRMabRMabRMabRMabRMabRMabRMabRMabRMabRMabRMabRMabRMabRMabRMabRMabRMabRMabRMabRMabRMabRMabRMabRMabRMabRMabRMabRMabRMabRMabRMabRMabRMabRMabRMabRMabRMabRMabRMabRMabRMabRMabRMabRMabRMabRMabRMabRMabRMabRMabRMabRMabRMabRMabRMabRMabRMabRMabRMabRMabRMabRMabRMabRMabRMabRMabRMabRMabRMabRMabRMabRMabRMabRMabRMabRMabRMabRMabRMabRMabRMabRMabRMabRMabRMabRMabRMabRMabRMabRMabRMabRMabRMabRMabRMabRMabRMabRMabRMabRMabRMabRMabRMabRMabRMabRMabRMabRMabRMabRMabRMabRMabRMabRMabRMabRMabRMabRMabRMabRMabRMabRMabRMabRMabRMabRMabRMabRMabRMabRMabRMabRMabRMabRMabRMabRMabRMabRMabRMabRMabRMabRMabRMabRMabRMabRMabRMabRMabRMabRMabRMabRMabRMabRMabRMabRMabRMabRMabRMabRMabRMabRMabRMabRMabRMabRMabRMabRMabRMabRMabRMabRMabRMabRMabRMabRMabRMabRMabRMabRMabRMabRMabRMabRMabRMabRMabRMabRMabRMabRMabRMabRMabRMabRMabRMabRMabRMabRMabRMabRMabRMabRMabRMabRMabRMabRMabRMabRMabRMabRMabRMabRMabRMabRMabRMabRMabRMabRMabRMabRMabRMabRMabRMabRMabRMabRMabRMabRMabRMabRMabRMabRMabRMabRMabRMabRMabRMabRMabRMabRMabRMabRMabRMabRMabRMabRMabRMabRMabRMabRMabRMabRMabRMabRMabRMabRMabRMabRMabRMabRMabRMabRMabRMabRMabRMabRMabRMabRMabRMabRMabRMabRMabRMabRMabRMabRMabRMabRMabRMabRMabRMabRMabRMabRMabRMabRMabRMabRMabRMabRMabRMabRMabRMabRMabRMabRMabRMabRMabRMabRMabRMabRMabRMabRMabRMabRMabRMabRMabRMabRMabRMabRMabRMabRMabRMabRMabRMabRMabRMabRMabRMabRMabRMabRMabRMabRMabRMabRMabRMabRMabRMabRMabRMabRMabRMabRMabRMabRMabRMabRMabRMabRMabRMabRMabRMabRMabRMabRMabRMabRMabRMabRMabRMabRMabRMabRMabRMabRMabRMabRMabRMabRMabRMabRMabRMabRMabRMabRMabRMabRMabRMabRMabRMabRMabRMabRMabRMabRMabRMabRMabRMabRMabRMabQ8Y5H/ptOAR0h6Qi0HLy8rxQqNbvgEbH8YqTQloFK6aROurg8tenzJ402iY02iY02iY02iY02iY02iY02iY02iY02iY02iY02iY02iY01ZJjP2PgeHQKQiEQYwgws7IZ6bRMaaK+ZtkNPew7ZxEaoVd9AcSqOjnOHlr0+ZPGm0TGm0TGm0TGm0TGm0TGm0TGm0TGm0TGm0TGm0TGm0TEjsKXv9eFutU/1bn/iJjTaJjTaJjfK5zAbHlFbzzJu6MOHtofp8yeNNomNNomNNomNNomNNomNNomNNomNNomNNomNNomNNomNLFZmnF3+JBjpNWLgyeNNoe54Jgr7pqC8mrC/Kxx6Saq6KXSsxjGNZmXRs91X13mdk1fzajZvFD5DPsTQ8tenzJ402iY02iY02iY02iY02iY02iY02iY02iVt4Am+l7iGqBRJjTaJjQNBYbOSrV/PnDy16fMnjTaJjTaGVCvrxyNi8RtomNNomNNomNNomNNomNNomNNomNNomNNomNNnWUCVZeCO22pOWiY02iY0yK8vEjh2ObxlFDIZx6Saq7Lbnz8IQYks49JNVdgm6OL87ix7IgREjmTxptExptExptExptExptExptExptExptExpbL+Vj+P0E4L7aMfMnjLW3H8Vler6Wm2BC/6UPbxXLOxkkC7Fm4lnYhi1P/PYA5WrUnJ1aJjTaJjTaJjTaJjTaJjTaJjTaJjTaJjTaJjSySiHJJIQX54CJMabRMabC1fNCN8qO0jteXjtBk8abRMabRMaa4vPyWeQt9sXH1/bRj5k8abRMabRMabRMabRMabRMabRMabQ9bmI7BjP8tenzJ402iYkdrNgBcxpa8yeNNomNNomNNomM/tWCywEQvhtGPmTxptExptExptExptExptExptEsLhfh3OxCy/F9+6PVQl9a2SUHieimquy258/CEGJLOPSSDymOxgq/OcPLXp8yeNNomNNpFCtmTxptExptExptExptExptExptExptD53+ZD//8YjSJMak7GSQLsWbiWdjJIF2K2zP8WjL7aMfMnjTaJjTaJjsxvRj5k8abRMabRMabRMabRMabRMabRMWbkuA/CLHzh5a9PmTxptExptExY31rq32/KKLV1YVZabr7fWgigfnWO31oIoH51jt9aCKB+dY7fWgigfnWO31oIoH51jt9aCKB+dY7fWgigfnWO31oIoH51jttdwc+9hwZPGm0TGm0TGm0TGm0TGm0TGm0S1EKgZjQlR1JLgOkeuPFtz5+EIMSWcekmquy258/CEGJKK1cOLXyjyTmfYqSborUDTtBk8abRMabRMabR+tenzJ402iY02iY02iY02iY02iY02iKLqSuq6xGzH6pPTHzJ402iY02iY02kT8MkSLeTW46HuxtgL32GhUa2fE7XO0PkKgmDMo8RZ9hoVGtnxO1ztD5CoJgzKPEWfYaFRrZ8Ttc7Q+QqCX84t6MfMnjTaJjTaJjTaJjTaJjTaJjTaJfNDwqCGPr7U8tenzJ402iY02iY7L5+MxaZ9XKRBiSzj0k1V2W3Pn4QgxJZx6SQkpd1r0+ZPGm0TGm0TGm0TGm0TGm0TGm0RLsOfZOcHy16fMnjTaJjTaJjsvn5PmTxptExptExptEzyFFox8yeNNomNNomNNomNNomNNomNNookNpU+ZPGm0TGm0TGm0UimfznDy16fMnjTaJjTaRQrZk8abRMabRMabRMabRMabRMabRMabZeipNMi8RT+HhjEkvSwjWqyeimquy258/CEGJLOPSTUaGY9uQq/OcPLXp8yeNNomNNpFCtmTxptExptExptExptExptExptExptmm16fMnjTaJjTaJjTaJicJjB8nOHlr0+ZPGm0TGm246tO2jHzJ402iY02iY02iY02iY02iY05X9tGPmTxptExptExptEvJSwacHlr0+ZLTxql/49SmYW6yhj5k8adAfCfMnjTaJjTaJjTaJjTaJjTaJjTaJjVTtpxdYzqfr30w4Jj+8W8xUGKrstufPwhBiSzj0k1V2Kj2YsKUEMODJ402OFJEGiokBAyMCN402iY7Mb0Y+ZPGm0TGm0TGm0TGm0TGm0TGm0TNc5Tjw8SZi95q7DAyeNNomNNomIhx3Xn+cPLXp8kDE1pugi+Tc6mIeNoNox8y9CtmTxptExptExptExptExptExptExptm0Aaa++ZnZ9TbyweWvT5k8aWXj6Lq2kZ4LW8hQp4XRRbyhocC8Oz8Loot5Q0OBeHZ+F0UW8oaHAvDs/C6KLeM7nwapjnuZv2++KEaUy9xEmNOgPhPmTxptExptExptExptExptExptEw9CKyHEBh4pqGrg3FiLBk8abRMZrPyPQf/smdx3spU2iY02iY02iYkRlHu8rUIkxq4NYpc69EEbRj5k8abRMabRMabRMabRMabRMaZUCvTOhkQSIDDxTUNXBuLEWDJ402iWF9Bhfm/TsBfNxJjTaJjTaJjTaJh7P94WVOC+2kJQKJyuQstSweWvT5k8abRMabRMabRMabRMabRFACoyIDDxTUNXBuLEWDJ402bsT6MFWO0L1ULGC8sLHjqQHu0OdFArCO6TkmSklzoc2DZDPugyBVLisuy257KYRGCO39pRNKXRubojjtBl6GgkETZgX20Y+ZPGm0TGm0TGm0TGm0TGm0O2quv6st6EfM166uJFcehptExlrYJ9ULwYZ32v/PhCc7qY0qnlHF49/oKTiyQ5PzQJE5mTqaaVmZJML6YeLFkirB5a9b+3+bz//hprvlr0+ZPGm0TGm0TGm0TGm0TGm0S2j7RX/M8+sLhU3yIOeNomNNWxKho/s8cLLsI29p8uO5wZPGm4Z1sYq72PgsloKsMf0cWCaBzR08S+thvXc4CD02iY1cZjTOxa95eH6fMnjTaJjTaJjTaJjTaJjTaJjS9mX24D4r9p2J7TIYpHWBw20Y+ZAMUjPn2cxUUdA6khBwZPGm0RhaPz5UtP1jlT/ITySnq23zv/827NpL+hsCYl2vT5k88h+pOKLtcyeNNomNNomNNomNNomNNomNNol8E57lqzj8+sLhU3yIOeNomNLyan922YUhrXO1g8tP6odGsf/kWdK+nzG/DgRCBu05oXTK/1huMYzK19PmTxptuPh+y1JDNomNNomNNomNNomNNomNNomNNohqLRsAuR+Y0ImROQzZH6fMnD6men3uQSKtnTRbQYZy4HqPpYWw+u4Ml+3GiUVeyoAWSm64MniHN4HzeI06BCnIWZQiTGm0TGm0TGm0TGm0TGm0TGmz2GF/jJJVYrp2J7TIYpHWBw20Y93Jwu0A15gXJMJ4hz96uAieG6OJhkMkBpfvBLod8MrJzaeItA+ADC8hwip+16fINI9JJi7kiWuImbAWyVrmUIr/4RcZj6UX5tExptExptExptExptExptExps9hnfSdQMWhWRXwpk7teNNoMkRbIOc16d5pieME+6AtmRxpjrtraFIlktBFSefzTMpWK189UGTtdIiiWSPjFC08pF/kg9ttGPmTxptExptExptExptExptEWl70lEYDybPgiZE5DNkfp8x/0E4BQpNr7aB3QtpIp9cyMhlwLzLWYAIuVWzbmGXV7L7ZfG5yiTc85eQEsTaJnpBcj8y9DXkIDd12gvtox8yeNNomNNomNNomNNomNMe/E9oG5cPlSXyeNYk/TnDxPw7KDp7DtGE/s+cM1JdeGmNUseOfveRIVRTO1lYPK42Oaxa3hWA27gyhIss5WDealpWcIvmDaMfMnjTaJjTaJjTaJjTaJjTZ9neLeamkgzVS95rEn6c4eIP7NCW3AuUQNq/8rPzn42hg+h835TwhTPO7SvIjbLp4jF8vePmS0/n+QS30Xgbiotkv04TH6fN7FcZLDqAwQBk3eBj5k8abRMabRMabRMabRMabRMZ4KC1v7xy7IYkdcq/rbMniwkJYkcuPcu2FojXldVx+aAbtxEtB/NvH331jNZb9qEpiaykplqUkBnzh6CZs0J1DAYIBRcMm/Jzh5a9PmTxptExptExptExptEFtC1BhW350QyJEzPHF9tDXDCzO1lt4dqFQqqseZpOPMGDjZrf3MS+55iUtS2iFrJ9ErLf8i7tBl7MoAHy9Oisi+isAiTGm0TGm0TGm0TGm0TGm0TGmvS80/RGA8mz4ImROQzZH6fLL6bbDhRCIvYLtQmxaxNwT+lProqtmgB7SZoAzJMhO0ZnWugT8htShlZbvceHIgRst8/jS5Zb+cPQTNmhOoYDA/lgg7gyeNNomNNomNNomNNomNNomNLdBDlSMGkGaqXvNYk/TnDv6EDDC147kTDdtGD2836r1ukTLZsgMPddAbwhBwkBAMkR5XOswehDPCTC/YcNTDCtv1v7veC45tExptExptExptExptExptExps9bje3M/1j9iE5syyRXHoabRAJjFKqczWvwkMnDiuW78uEtR/kVozsWImjSrRsr6tR0czZzrQfp51i8c6ntr0+1MMK2/W/u9uyEx2IBEmNNomNNomNNomNNomNNomNNZqZJ0CFysFMiYrZNHlSL7aLWULYUyD3ybMBfXw3cNZy8LqoaazXtSJfEmJJE7+aCcMaFazJ41dDYC3+1BhKZwundwZPGm0TGm0TGm0TGm0TGm0TGl+frto+SkYNINBDjGPyU5cHigT609m6JjTDYyY8LEeAj9SwKWDtp8p/5xWuCypJZKw6U3sn0UcadiXjN1vrhtE21RkUmHluy2qE8abbvZJJYdQF/bY+iD5k8abRMabRMabRMabRMabRMabRCHvgQYDCqn4lC2liMraaMfMnfxEHWbfffPnYtynbRjG6wydxYlWiY0ITsgELirGJXGXqbRMdp0bH7FIr/qO0sGTxptExptExptExptExptExptEYor3CdNY2vT5k8abOn/sboexe+law4/8J73zJ3IjrBFOV1O2huJVplhTZSb/TKQHGm0TPSC5H5l6Gtv1IT20TGm0TGm0TGm0TGm0TGm0TGm0RcmkmGKoELlYMnjTW8x5BVi2ttS5Y4CJ3XMeRW0jSAfjKucqP13Ty7J402iYzOsFZfGm2+3hLXUONNomekFyPzL0NadZpCXxpOcPLXp8yeNNomNNomNNomNNomNEALefOA5r/YcGTVEstruIGrA7jgiCzM8M4TQ05wIO5dIboExptExKKIAgOE9B3BZ5PmkQhhPGm0UkWWcrBvNSwIOtGlPmTxptExptExptExptExptExps/Hr4UmS7UAXI/MnjTIrfa8B+1lLPrf0pPJxbKvRWy4M8Y29WnxNDJFj8PnDEyv1Ma+HfyfvFPf0cthEmNNomekFyPzL0Mj8ZVK58yeNNomNNomNNomNNomNNomNNold7ypubf8wFv9hwWA5ltdxDA5+kSGotwq5obLstue8wiYsFwJFtbyjp2pU+kqvy3ZENM7eF+CcWr+qQb0Hg/uf+bt7iA9KXFJk4f6D2HBk8auhsBb/agwFZL2mJK7QZPGm0TGm0TGm0TGm0TGm0TGmzsUaPn3IxkklhwY72V8WO20a+lD28VeO0GTxpqyb8Zld2U3Bk8abRM9ILkfmXoZUuvFzra9PmTxptExptExptExptExptExpYlpksobjiE6fMZxwdti41NomNNomNNomHlAjnT7vWLP/tQm9M69sOw2kDHea+0rohFHYkqzYJu31oIoH51jt9aCcVyuU2GPW+WHwgFhcZATshFQoH5f9mBcbuXH+n216fMnjTaJjTaJjTaJjTaJjTaJjTYrK32QgDaMe9aqGNR6tJVq3tT7uXFK9e/hCDElnHpJqrS1SPsb9LL5V4IMeD1A3jSqEIlJ402iY02iY01/ZdZa9PmTxptExptExptExptExptExptm0AabRMaF1KxXw/hrVPjR3y8zOnzJ402kUAi2vT5f5hU1nUG+m+8EnopqrstufPwhBiSzj0LNabLkODJ402iY02iY02iY02iY02iY02iY1VmefWWvT3uDW4Z9NRagP9Gm0TGm0igEW16fMrfSh7eK5Z2MkgXYs2w20kUtmTxptExptExptExptExptExptExptm0AabRMabGA8OwbYNEvjhnMiTGm0TGnQFeKptExptExptExptEzyFFox8yeNNomNNomNNomNNomNNomNNookM4fOHlr0+ZPGm0TGm24tAUtExptExptExptExOE2eC3YmNNomNNomNNomNNomNNomNNomNNookM4fOHlr0+ZPGm0TGm24tAUtExptExptExptEsKadAT8V4pf8n3J402iY02iY02iY02iY02iY02iY02j+B5NomNNomNNomNNomOy+fk+ZPGm0TGm0TGmzmHPBru/eEIG2B9tGPmTxptExptExptExptExptExptm0AabRMabRMabRMabRM8dQ2Ttnl6537xJCsrwYZS87En16MWBvC51v8PXO/eJIVleDDKXnYk+vRiwN4XOt/h6537xJCssQHmmc/+CxAXeWgEaG1FwZPGm0TGm0TGm0TGm0TGm0TGm0TGqstNlVQtXFTbtGz3Ve0bv20Y+Qa5ZenaDJ402iY02iY02iYzLsjGaC67AG0Y+ZPGm0TGm0TGm0TGm0TGm0TGm0UQKFRD3ZZttiSaq7Lbnz8IQYks49EuL7grpwb3xd35EmNXFFfU9C1cVNu0bPdV9d5o6HhVIpQ9KMzPSsvJhVXRcGTxptExptExptExptExptExptExptmm16fMnjTaJjTElhNSsEjf2HDSqTiMVWW3Pn4QgxJZx6Saq7Lbnz8IKh9bAUzbQULAtienzJ402iY02iY02iY02iY02iY02iY02j7naKD2UC9M+T5dO1ztD5CoJgzKPEWfYaFRrZ8Ttc7Q+QqCYMyjxFn5YVGIYSo402kUAi2vT5k8abRMabN1E5ldUqPynbRj5k8abRMabRMabRMabRMabRMabRMacrBAB3yY02iY02iY02iY06ArxVNomNNomNNolcbIg3gaasHlr0+ZPGm0TGm0TGm0TGm0TGm0TGm0TGqszz6y16fMnjTaJjTaJnjzZLB5a9PmTxps7Rirj8ttExptExptExptExptExptExptExptExptEAVLT+OiEIvS+2jHzJ402iY02iVLHCQijhFjHXBk8abRMabO0iqzMxefMnjTaJjTaJjTaJjTaJjTaJjTaJjTaJjTaIpCmo2ZKVbLaNuO4MnjTaJjTaJjTaHvv1loEPoYxQstenzJ402hxiOcFx9FUxfbRj5k8abRMabRMabRMabRMabRMabRMabRL3lgheBmvwUNvNrRTxptExptExptEqNS7Z0/5Cd5EoKcSrwRAy4eWvT5k8ZmCeFhVgbKwbRj5k8abRMabRMabRMabRMabRMabRMabRMaXFivUKG0NrthSeQh4xJZx6Saq7Lbnz8IQYks49JJ9ityRsuLovvGuZaN5a9PmTxprLK/2bxJXMnjTaJjTaJjTaJjTaJjTaJjTaJjTaJjTaJjTZ2+PhSiERHEmNNomNNomNNomNLIose4hIRVg8tenzJXimvpd02uvPmTxptExptExptExptExptExptExptExptExptEwpSCKUVwtKkQHPJw5e4qbdo2e6qit5FY4HIpKrLsE6JdUflB3wfLh8NxptExps6BV4Fe1mN4oaMfMnjTaJjTaJjTaJjTaJjTaJjTaJjTaJjTaJjTaJj1jnDy16fMjH3SeCWTNzsTolI+Kx4zJ402iY02iVF+lRSzBNXhXlVhEmNNomNNomNNomNNomNNomNNomNNomNNomNNomNNomNNomNNomNNvLfokLwDRwUWSLjaval48IdIO0GTw82mPaop2msyzkqSM770DvInjTaJjTaJjTaJjTaJjTaJjTaJjTaJjTaJjTaJjTaJjTaJjTaJjTaJjTaVmMIPYJcZqt9fwGrL/ijLkErWLJauXIeM206lYdhFh/DMq3Pg7hWbB5a9PmTxptExptExptExptExptExptExptExptExptExptExptExptExptExptExptExptExptExptExptExptExptExptExptExptExptExptExptExptExptExptExptExptExptExptExptExptExptExptExptExptExptExptExptExptExptExptExptExptExptExptExptExptExptExptExptExptExptExptExptExptExptExptExptExptExptExptExptExptExptExptExptExptExptExptExptExptExptExptExptExptExptExptExptExptExptExptExptExptExptExptExptExptExptExptExptExptDtrV20OZNE1M3jV+06fIBo9gcuMPmPrFDWm0tIDTUDYTLsxlRacyutK9b3K53PtE4OJFqm3aIx/PA3Xo7CHJY/y60+Dxlmja8brA1d/iH8aQL+RNuxEXmvptHIcExcvG/mrO1ME9Sg4SfOkrzD+twZPGm0TGm0TGm0TGm0TGm0TGm0TGm0TGmzlYWjGJjePFkByK/mq6G7JTmiY02iY02iY02iY02iY02iY02iY069AzcMEj6P0WPViLc61USmCEDMp20Y+ZPGm0TGm0TGm0TGm0TGm0TGm0RmZKh8dzaYHsr0T0CZ62wGBN0xuEn6dsKE2LxHFF2lUBRGBC1zk0CweWvT5k8abRMabRMQ5nFgO53VEV9ocCJUMO+PWwn7/KfDQXqHFpy1WTv7kEPiJ/uoerRwiTGm0TGm0TGm0TGm0TGm0TGm0TGm0TGm0TGm0THuChxMioNz91pid0weUVOSWYKjSkbzPz6ZfvSz4oqESBnum37i9QP9rXCtuRGhdxfR67MFFS5bwFJuq04jBtIYRJjTaJjTaJjTaJjTaJjTaJjTaJjTaJjTaJjTaJjTaJjTaJjTaJjTaJjTaJjTaJjTaJjTaJjTaJjTaJjTaJjTaJjTaJjTaJjTaJjTaJjTaJjTaJjTaJjTaJjTaJjTaJjTaJjTaJjTaJjTaJjTaJjTaJjTaJjTaJjTaJjTaJjTaJjTaJjTaJjTaJjTaJjTaJjTaJjTaJjTaJjTaJjTaJjTaJjTaJjTaJjTaJjTaJjTaJjTaJjTaJjTaJjTaJjTaJjTaJjTaJjTaJjTaJjTaJjTaJjTaJjTaJjTaJjTaJjTaJjTaJjTaJjTaJjTaJjTaJjTaJjTaJjTaJjTaJjTaJjTaJjTaJjTaJjTaJjTaJjTaJjTaJjTaJjTaJjTaJjTaJjTaJjTaJjTaJjTaJjTaJjTaJjTaJjTaJjTaJjTaJjTaJjTaJjTaJjTaJjTaJjTaJjTaJjTaJjTaJjTaJjTaJjTaJjTaJjTaJjTaJjTaJjTaJjTaJjTaJjTaJjTaJjTaJjTaJjTaJjTaJjTaJjTaJjTaJjTaJjTaJjTaJjTaJjTaJjTaJjTaJjTaJjTaJjTaJjTaJjTaJjTaJjTaJjTaJjTaJjTaJjTaJjTaJjTaJjTaJjTaJjTaJjTaJjTaJjTaJjTaJjTaJjTaJjTaJjTaJjTaJjTaJjTaJjTaJjTaJjTaJjTaJjTaJjTaJjTaJjTaJjTaJjTaJjTaJjTaJjTaJjTaJjTaJjTaJjTaJjTaJjTaJjTaJjTaJjTaJjTaJjTaJjTaJjTaJjTaJjTaJjTaJjTaJjTaJjTaJjTaJjTaJjTaJjTaJjTaJjTaJjTaJjTaJjTaJjTaJjTaJjTaJjTaJjTaJjTaJjTaJjTaJjTaJjTaJjTaJjTaJjTaJjTaJjTaJjTaJjTaJjTaJjTaJjTaJjTaJjTaJjTaJjTaJjTaJjTaJjTaJjTaJjTaJjTaJjTaJjTaJjTaJjTaJjTaJjTaJjTaJh4AD+/7254AAAAAAAAAAAAAAAAAAAAAAAAAAAAAAAAAAAAAAAAAAAAAAAAAAAAAAAAAAAAAAAAAAAAAAAAAAAAAAAAAAAAAAAAAAAwohWVNt3V7cjuk891YBEj3ofjyqQR6qOsfY8CjBJGnKCLUc7VAIjWvVL+cF2HbLY3LNqBoBrwls8xZsihW5YJeCUcFP5vfZw8tCDlZ04nkUI/TJBPMq8gSAdNe7IrketpSKkn8QgKxnxwnbRGTMzjuU9u7Svd9SvjqWTGM/J6pS1cDOnMM6BBO/rQZ9zzamvS2Vk9+bcEWVGKY8JQ9XP5P3Rd4kmCT5jXjmLmRBLzOGWsTiSf+etM1BjFr4Bdk9sAP9NEf+8yvNSEK9FyAu/VhyoLXy3T/tDM+y9lN0OvegzyfuRLtPvCByAEGAsnAxDig5+eDItIUoWDoo6WIrzPqyoWjM1gBjYJwIAUE8s0zYFn553Z99e19Q2dOGQ/nL2rM+4hd2M+NFVXGXHNN5FxLpL5XSGCw6o6tLsBWpRaDbzawdjSGaAWRPpIH2y6iiACVuomIZavC/82g0G89A9Rr2XYKKAh7VX4AoNAsSU+7HBGzETFeI1pJO1Xzlzgv59IT8cX7t76z7VfeVNFTaDDG2TfFlawLkdCBi+jWByiJ8KilvV7QMEP5zXiJaNmtHYAAFjsTofBMI1DjJkcOZ9e2cJEaT2UHPju+HuqwUrrppikQufj/0El2keDu6oTt2mCxlHD9LLe4slPiV7835stnDVIeT/XAlvsTmGG7zdg766HVBpD4xO8SXfX+6xdR/UurjW0zgGGWh05BvEgv+cK6V27ZBtX9txpbAEc/0REFxMvrq1wp1kgVKfcVgCtF7Ig+bK91amiTdW6v1VikCfG974pJB/6XZnX3Q77JTMtDMByMNLxf6WiXkt/Ip23LY4ATsB2684zv+d/x5WEk4CXtUWSW7A5aCIOxxXpezyPuCLLywIxw7Gl0cwNKlZPDLYdAknMoIt9UgxiKUzohP0OFyNmlJf1hgjlUTOSJIsIBTFmfjgFyUebjEB45swzhHAjtdHp5kLf5IXHTphOV418iQAAAAAbQRUc/uwF5iI6Ag4UaI7aeNOqQxD2+bSEX3vX6q4/pz9kysD8fUMzGW7H9rtMiD3GJLzC6T7ofr6Cb76hYxLrtvx+2BDNff+0bNN5qVMn+ylaA5FoCRqr1fvmLRMXP2lL0FmxmjYTKFCbBqRBW7in47emcZ4jI8H589JcGJ3eyQV+exm7F1AD91q2EQtONvv8BAWjlQ9oyS3F/s1sY9VVw3nnNFD7H6X4+t7gc72fl62MYoss5CAE9g9WeKYsxIpImYgrOOhHKNPyTHbzuC17eZn/TTj6SlFNhGgwRt+hI6usq4UlEdX3BQYXjwybFwF+IjjANLr8eg1V3iC/zNHI9bzYjQwS3P19hleqNU7HWAAB01hNz3KTcMk+RIVVRGk9lBz47PFnxg8UtsZEsTOKIhE0uKlsFz+l3t0SQmb6Jgy7rlCjdr5c58buSdPLubSqyVhRk4IJXodHFqJp4UbGzLQceT+GVCeN3kdPhxJGjqE9xSn/CiJTJQ5uYo8mHa4YRi5w83BEyCA4G2FCT9R5EUBQUQvbDLv0TZNZmYIiMZN6FSmDhT8ET1uKLSX071BtXyPOelwt9rpXZgr9W6AFvNjeRcYJNyv0prRsDjpoYEFtbdFrn41Sm78dtrGlDpnqCwKe+v6ETNTFyjG6HB5I1eF0AuIIkgAAKMjw5ZGpHSw2lD6OL3S7fIMd8bL+Ik+mpSu9r/PVEEFA+6KV4QjBVIWT5Of5HzN34W7IJumMltSVbDdEuNu9uJ32BQXjlj4OOfeV80ld5qfkz6YaGaYQpCbZjIyQpRdEys/NRfPLs2hKhp+iQYw/+j/FOzASi1rnfwMYMtNdSZYXgLZcrcVJ/YaiB9ni1fFky9TU4TqAuCRrfmtaboc4l45NEF/T0TX2+PRfM/cVoUk/NjZH9tlf8cA+s05iLuhCEuhOIYTjaJ1rar7HxQOSAAAsJ0JD3EfVGDzKATY3ThEJoLXFUhMbPzUlIeJILHf5wuFFtdvXiBbKVkLL4N6Ax+db8qZLvwE+Qej+HpRVZEuOvsIgfnsPAQe22zFgpdmQKia+dl3L1FLIl4gHVAqTlaP7vxuAqgiGd0+774e5BSZwJlt0exm2IY/GnGVUZS4z3aLFbFxvtIvDobSXPOA2dzs4tDeCaE0V82VUi3oE3HbpLoIC8Tml8HR38WxDcAeF5yRpP6PfMG4DJ+2AgLQYP/ok8mO1EAlHoTLUUMp5c6eFyCZlgQxG8imrIVdoMTKt+2GbY74XcsJKk4Bdv6tb2RNZqNAqGL/4BjgaNgtSjzTHpkgxFZNFSQdqIr4reyRaVPEQ7hezrqcz2qSVRq9QUGEPsdLDFOQ2OuswdSr5hWyACYRqOGoC2HLjttH/bYBKh70vNI66brm7HgG//2GyBTRcmzK6gdFf8P6De2H0xKVOXIiLrGukjOe/Nih3L+DNedM2nXzzv0J4TKsCutEfxjZM+RzPJ5741FnU1VQ53PUIW4SvvvFGsVhEJd/x3+tXWRZKn7tST/lw+NmC6jzPBDf7zEoEJzUlhzCzPUDuqK4sUwQI99yqGejo5jp2Uz77at+Dc1MuHlFBuVn5ACSK5hQ1hl/9sz/UYHeUsV4wfM6cKXqysVv8aXeU/lvoHWkTTTGwXGh5WXJ5MISohZzvKyPMEtFFbdUU1qep9pLc56Uj7+oCt24I6NWXaCQFhFpgFBFnoLfQ2wUZ0nbEQIN5prpr7xJHbG2kb5E+55Y1aAJJP0De6Jlr7kbiRFPt5jm794/Ngi48Yd1FfOpDbORwloH8cuNDOqkEJlaqrXUadrn+ilz1Kt22kkwPOJZs5Yk8O0PxT+osueM/+2EGzXzb35qQq1QiwyuPt5JBtjzsHXHTV7jpmBedZA6K0OBBAnv1iS8buh/Q5MGyQiCq+t4A0ZmAAYxB3Jzbs/jyGIcytoZSf0xhUPeRdsNEHL1fX6WKCAAFVNxUCDRFpgBc3128hEn79XK22d+JJFu/IWxtKCjZwBlkZwPle10l8hIeEt4fHb7vcyjN3daPJ5L7GECTk/f3bMS8+ol/ekh6V7vrzCEplHRNu1hBOSaKZs4d2VMYPjKsRtxzxT8S0dV3E62KyTnVj3XNUwR/PYUJxT6GrHgptiwM+2AQBAysSfi7AeOh8SS8egfbIetAAZT8hiRO+L58arQ2lV9f84o+m+AYPHgk1PtyarBGWMiyIxFtH/iyCCkO2ICW7/6MFIERIaoc+l2NxFtnvLNbbZL9Fvk0GN3Ne2Vsen5+oi6eieNvSmb3dFznW3A3gmdjfrdKwQEBtpbn4YxQUNsm8pzPmkZA8Zam+O8hVru3151kVgraX/IEhkwjmFAdFBZ91AzjCn2Sxe97Ey6VxSXEeBBScChmIkAGd9WeukDbYrI55glTyRuHoRJbV1SZTqGqAXfuQCuwBwBktAGx5eDzwnoz9WZiufE/5sZnbD6Cuxe9q0FUFvq0jmNhNEUNw7XlDV2Rf6fgMhjmkpyxeOosNAujBDp4Yd9iWX15MH1pFNQMt052hiHi+mBrrLJ2tmnP9dDZz2gttvCAIGl2ysT18HIqBqjlhYNy5ZLIbUZblWGKlARBLF8GEgAcG1DbS0nIWmn+iKNgp89uBtBJxNxGms/x+/fYsxnfbfjL6K5214/Ohe3KzB/94nGAkF/bj47VlXD0/J/sORtlXC8QAZugfRN1dBo6z38CEmX5AjsY/7YAa7wIAQKX89/rCx2RCdFTGLENPpKzo4TizOWHAaBcyvrVIyJKkkahdiwtedtyXkfVfkMcoXDtEoKy3sQhbslSSVzfH1aLdKXRy9oASClbclD6XlHu+JAGIWnV/lD5RYeWn7T5vCvaETjv0xZr/lrU9DNaIez6lhiSmty/uwCQXL/b4OZPxtwhh7hHjlhToGcov3szTtRXSkFOhTuyJ6mFu67GxUg/vpbsVE6skQZORBhQEVfMy2qHrVZAD630WEylvGGL+fSDvif4X0+/fRHG+6MtVwHQ3NWkv+7UroKz9oyyCz14CCMhRhHKgYSoAIBibhh7qTd02XQAmZ8JsjlIfliHOUOkIS951KSi1clvNmK6LlLrQy3WtEqkKXU6+o0Z8Psa+MJIC4BoALo3mGn43YBTP6DNHp9uWRcACh3zqmRCIwhZAIcSWknWyXqZo0UPlxGJSqAen3fdfE/p3zxrmYv3Ef/4kPKbuvF9iELQc6+0qAVCBxQposN25sXqEgLyBArRcK6Slc3m19OoHFLH7b81mAHZjq+0cnqt4zf+AKWoUY4k33kY7zpM0qKmUt7ZWwWVLP8Xq2ioOUsQ0wCaeLDHsXpS46vPtD+oqBlgtih6jZqi4f8FiuaJzxQa7CXvI7gQAxelU/hO9nx9cGmg5toeC8MXRvsoDmIGRjVs5g6YXdsirg1GuhtFjDQAC7zDH+ttocxL0vL3pFHpCVfrbfggkDCQ9YlKyVG7w+EWEFAXUq3cwlnrREvOTI0vYy/6qirakTP2pE41uiVWjyekrY9gdtcl8Rzwm5wK6oZU1bfdlMxG+yW69mJHx68n8HLR16Phz5ItkivNOTfs7daLYwgp1N6pttct+BCMda33GcLvty1BwypR11ES7tvK2BPW1btsOCAQYj/peF5L5oc6zwPO6W5b8bTRovrafDBQ0+XDJpEcPo2PDnz+mVq/YQ7AncntEp61vIulV5lWRWULg4Ly1DSh8vHHlddPVHZt/lUbN67xk0A+UYHr1BvBdIZPLdKyq+C7BgAmFug5kiua1ADX8JSrhsMF9P6EJ+rzwDrohfg2/AvjLd/jHuqBitYbDs7RfdaEUwkOLR+4LB8hlegMLPGYF3qcBeXO2sqHB/8MStqFVV/PjgWbKd7jDN0q+cqb0rJ+towxdjNrSXybS7nDpizpHHS9C2uOciwXAhwvS1NAkOZ0mJp7XnAy3a4HgVy3DUHIwoSl5o9wVTRvwo8GkpSQaaSWo5B41l7T7chfaD5Rn0Fa0b7oO+/Ls2FJvNVmch+9WBw6VILiX2hK+hkPzDj2bcvgfEzk9hR5t1exQrmKA58IcPzOmZtIUxtjeRRis+o0SovIBwzZUAC8WRPb/oG4kgAzon5jsVv9aaiK3OWqp+W3bDVnkcCNtotrBG1a/1qigbdsRQ7odIvkFqCV0X4brz9H7LvDpBQJJlLibFQobLFJ28ThagZSc3zBmqQTHB9ACh4Az8n1VPrWiBWFR8kFc0GauVvO9+YzbTlH2vLLCmhLS7WALIZlh7WpJehwHTmKgjWsSm3GlU2MFAUSQN8mDTbtB594AU1f0ldsVcfYafVxHgz2U2d5lM30IGtCqwZniyw342yMr163MYXCVHFTgFIuxLUqE3krOk7GPtFZbb9p8OfT0RrU6ULT7RjK6dze9haC5opBYicVz0lUeESoGaiX4jAhZRFYr+nw7a5i54vamUq2EPxZ+hlja+m+jcXtd1RxuXicLErY10XEGPEQTRbsu2bwABr04mDBZgx930AeQC2vkOZVkLVkiEhkYIE+3El8LA+/kbzLBiTXl2lZW8ETOjm62K2yRmbDqYN/qFQMZ3KqJtZxjrxwB7/CQHeRmdIt399L/owdnYRhdbtp9+tLDCvUvpP081YTD1i4Z8XzhGRrVeJvweffIb6qxLjTEYeUbtxAbRdwVRqNYiZOMU1cmMlsnCUAH5PUU+zTJmwlbC0vDpZXwcHUhgOkkpVdckvka7cdACHYvFyaGY1acYrVKihMM8SqJ/P/2qW4My5peZcjdD3uur5yfAM2XDsGo6cyGLgXUG+pH5X7wdckWu29J9RrTB+vawNeulm/ZN7a0qTa8afmbDwc7puFbTvQFo2b6et1QBzkvc3EOmpvJaoqIgXzKBfM+KlOvkxl3etdrHNc6ZxW3Lixs/OJzwfJltvJC12lbUzltTE5tp/Zl/lIodwnLf36kx+aGtTSdQACXfG5ceL3nL6JijCRXnjkN9dwRA2ZrJA7xf/wBtCicAHzQ+z80rb1E75OhTk4GqhTxLSShbzNk4k+QusINLguUO6wxTBC8rwGPlwozts8+VlL9XnWjCca8kVOzorVhrHes3y/W0wDRFRJDiF+oFDP6YhxJP5OMax2NQqLGL40LRSA2QV1Ygo4h3QrkkjkTSxn+OAMFayNQKmgCxTrpgbLNu5ozgan648SJDlsm+hNzF9WQAHy7EImwJOqAZI0EgH8GxnYfSaFDRxnRGkiwz79YAxyLjqpe+9OLYqmgmvkokLSCMsp7Q/jw7tHmeB8ThE67etPfMEYGVtcQEIu5tBXV0FfovrzsLq05ngeB3GTnZbrMZ+LR+5lbLSfii8XcqeKFamm/esoPnBZNfnov78mufbFFaHm7Ny/S/fDi8q6QGE9hj1cUVu/OCOnX/MsUzcRTDnuEE2z4tjHgUsg7JVeQZWBSAKqOh0VBgOjzO1nDG9nHVjigZkmmkj8C2SNe1jVi9QR8FadT0PMAqStOT4thhIOD94+KXWMIus5+Q2G84yAegd2b/kF0DCkjtrKUgEX5lAgrfviFQfG3nVtutxKyVRr9OcXTOjlpeZ2EkEA0ZMm27/aSrL5DLE73Gi0EQZyg/oWABKjLXf+cJEBJ9S8GAkn96TNrTOaMeRX9pIITfRZ1dsx6EJbfPeSmWRHA6oiZuxjDx3+4I3sYAOP28BxLqIlaeUHQlqL2Hmucno+Fv8Rlior4tTkIDGG24Y0FB3GeWQRih/fSsF+4R8RwmCppgHretgL9IeKF+xyHzbEspY6jn+ZdJg81MFOB7Owe36W/r86AJYi7tB84b+FnKfd0V1adbldq57VyNzrE+rd5x3w/OXVVysG3x0Wjr2CTR1flGF4B5u3/EaWrstaOXcTPJBm+GXrKcPnAgKbz9hOiX6cyczZW2PXQB5DKPsO/YPQUfp0nCFv4bpOS50k2iZrNRS06Oi8dPS9rT1WOqHc2mIkmzvKx9yMsYNtAFieZHtm4iMA3s3eyGvqCfbaALE8yPbNxEYBvZu9kNe1pJeq1vli5ZQuszoskxb+Ma6eyWduizN4fFclvMSQYIne8CxZL3k6FzZBkTddDAAALvMLTkWIdHNtLsVLZ0l+YirajmYV05lc+sb5WFOOr2PrjpXe1foKEWGvWmn49tLlbT6jlhErk1f+p8z35Gp7w/1W4RXW+oSCzCMvFKcMyNP17DdruMHa+cF5MOf46bhi24hEJ4z6ue56nlg9U5duUY9UZQQ2e5e+B0dO+g+m4oedEb7s4RZw3+EH973Yw7NrA1h09g1wFCoC86+KS0aHqB9wF1Q7QjLpyGujyFIIiNZMKQNgiNw48uyfm8YA+6NTAAABYQM1Xt3LPk0Z9LcRKqeAA2MMKlKh0/Bf1X1H9OfzznwvAbxpVPVJXN2VYqldU6tWFidHj8qrgmdtwUUOccngU0POhZI8XxzShd2vZFk2f+fr7N9zB391KbP0SMLof+hB7WONyGYDDktsSwNfs+QZ6Jz884ixG7o3q/xsNtmslW2qwl/mQ8KFIjuon6SHyCgARshsa5wx6CJWE6FY2jkDrsedO4BNxFtDq/TnuZ7i4BoWyvcrLTD9TcrHX6s+2kG9TKhQfJdyewOq+4htWiiuqCSyJ0ECStjfPoovvyEOp1SbJURS1+cPxdwrkfPR84oysKNMIBjh5z5TFojiMzV/fQ1QxeVbfbisqcuIEUlMgUzsbZlCgR+fE6MaJtu9laR8ZwfT23uiIQ9H95KetKPosOYPJftJbIUPl/RpUO3W9DoCZpDM+JP/6H22wUiIwzy/UVTkPIMhj9CZE+QX9ZmfOOT2jXIoQhdAFRAAAAAF2iWSL86qDnpYsMx/5ZWJD/u5D+J3+IbjuQ3Pkh/XDMUQTze8bMk4e+Mco++xLBunYAXM8qsKrrsrKCgCcLJkYpklCtV8ZqqKk3BMqP8V1UViaY5pLujbaG5jIP+6Nitzv0eYZNHd5Qu9x1q24pQ/XxHJz6CdpM8IxvxngauM+BNlNMeKMMCkfNS/v+n3r3yvvAZ6BFhAqJLCXms2NLXxdKwHJhvC5qrP6ttqYMoVeWiKCRVe7Xcngz1LDiDJGWpnG2IpsmeKCV8XYKYJaGd1r/cojlvkZrgNbsFqD1MMkamAGc6sX2gUAtjxi2nAeJ6ATGM7Emx7q7Rhl0jtrrR2rpNH5mrYvO98CSCvmvSbHRsv6Osmgets54K0aD0N3pObd7Vn7DdqhSijHT8Ik3/InVRI1dPz4IFua2NY7huHBIJRhZ3dSKXU68kaDhszVcUgLrTR4fpVPEU9yKyvm56Ia5/MBtoDpP5xJKf0UDDbfKyGCt+kFQ4cW6+wp8vgcNAphRtpNz+XjI+8gcQLBqR1WEFionVD5T/alid3kp90vPgnkDKWrX0/ook1H6fyVNvV6J/op+53y6LGgMiVraa5uFLTiin/OOdwpg4qUUtnEKjI6q6dN2EIEGM9QvgevXG6su4+rmFajaG8wGwAJq649citu5EObDiMPKyissqVzUg4AUGAldwo7CnRMxDzpHFa0WjSAMFjcskjj/thKx5C4vQxvfsqTDWS1PbxJNgtwoAAAAAMaA4Z1AJmhiTlRhwPjg7V+xZWG4XzbZrGZpckGBFGF43/iuEdOCuyOaI5cFAknmcXkSHHMbgwlr2Az2Xn+OEI/65ZUbcKQ/op/1UwwPKhuhNCP2UkHKGjCBKnED8kWKpF4loqdpVctb56ibtHQXlvwGTq2Zuie79zJN0JEPvlf+x4oltJGKQxPZ4LhJED5np+PJQLDp9CoEMWOw0BuEvl1ESY7jfUoOKdgTtIzDz+UJW85pAtDZQ8cXEEceJ+fUXAu1S7cCBhPte/+LXa9M2xE9MvDmtWZHNiedt8l6U9k8F7BbwlimAnjJY/IBEfYpP4vkJG252M9jTe9wAqGWV8CRobVo2h0cc3fv4bkkn6sHwugZnMrqfnGs/BWZpx0bqDfdXCyPydE4xGgSMMuAzj5+A9NH3gw224lfrdYKSM9fGzTNcMRZeTO8snm9+0xK5S4tsxnQSWc7vKWkBjUBClvfcLTO0esxfLIIR8Z2rxU9rzXGnkUiZmTdxfbL5CGxqpF7gTp5Ll04hYM23jRZLT3iUruum8ScLz1McAeCb3bGwjMmNKyd9QyRfErpOGobUBZUDariC7vb23VNqAsqBtVxBd3t7bqm1AWVA2q4gu729t1TagLKh1vij0Tgqv3YfQWbA8HuiLdAhMs0HjLtCD9EJkJEscThiQsC82gB/ij1ni1gjuVImwM/mGPSU0jquNnPe49cBzCBYBG1DKAbilJtHdTgF29fuk8adAtYM1/I8+WGPQL8dLB0M3vrvaA4JBi2cHGckx2yDd08EWPeFl/Ou4I8DCgTexxr6LllHe3YxJLpKIr9O90SjtvpTJscQLQhrD6MOwAMEWuWWj9Kg+ATVatbASwXvUAAkUPCtrN3uhMbF0GkMz/DrNPKfi6QAARQkWPMoMZ+YTMOAfEGxsQAAAAAACt8F8O3Dwz3AH0FKSmDgo+HBuLtbrdVWzcDiFUTW0AsUBRtVlIo1KV/AQAK18XZRxFirUR2dHM5VAjuAAAAAAAAAEaVVeCQsHnDlo7ZKN3HQI2YwqO+16krulr2ZroSRZjysdG0bydHdDJ/LxTletdfQQr3rHvPQwGKAkDwOIMuAtSVPe1d/iOE1Ptjg4hPnse9rJuRlKSQCaNReIfZruniiRoyYuR0+GhY84fSUm4uiTnE86dRLlC1j26QMuAAAAADxpyFwAAADiwR7t6O2jyiXwsOusCIV+hQy4mU5GLMDkFKoRFzQvFTWXpFgFBJY45v/Sbpw3+HepywpdPGve1mHj6le0xaV4iVRsCIMP8Ku+xq114htEcCk0mHBapMGXH62qVqqgrM5wf/eXdnjfIV6wBiMZ9BWqFLQ9f14iocl/lCsvvV9FNWhj4mdrHhs6RUEWMPtvMzMCWGjXIeYD+sjnUUhokpFrgKk5XJMGplgBeLVPS7DUy0JUr5u78JoT18kQq6UNGqxnm8TWLoHtl588qtSFiLxaO6FNNC1BvcLPF5N1fzQUQm8jUp/5xAjfJwWoq/jgGOY4KXPlsAvK2RGSD29xSi7R6gV6JHkkPBJym2xnZtQ65roxCjEHUU0Nb9n0MSuVynAGiKFPzv+1R7ZuEGfZOG8LePb57UOj6A5lzIR7rr/3lRPz9o9Zj6a3iz9dRQ2Mf8EaVDtdhNaqh6HDOp7Q+dRf0BWyPKcQrHxTuJBl1y75Z3ILH+JAexOY7LH32NdU9zVZETXfc/idYb54UQUn1VUoT3WKmwLjiM491ghmwYMxBtC85z3nqfSGL0mk9dE0DSujExPIgXHkY+4/fVsOQsi4FwBVAAGpnXOIOXitEE2wBQCbgg89SblN7i/7xmN0reWTmUxmbwmA+RMJ0giKZD1tMeD1wWj9AU5aISSh0L7mMLxu0y/yggm284KzIMmwLtRj8tVvJhbqKqgfNCP0C/NIooN036JMaQ1810b5GlAiXzwyASNFTBj+q9pO3OD2PdasNeOlRVxcRGXFqGQ5ZWtLIbdWNn1HxI4iG6lkq1DDzLYt0vGUA5A6aC0IsFuw0Lpn8Tfxwyh/9VQoyFNlAdo6A90bpkKpsKj2ONsHBA4COa8K+fddfp6FyfwJS0QWkoRoP+pxkBZof6eHeYnnKqC4gYfbKfPfKgzJQtMOFZ5OZtbU38QGoLOcM3ghFE3QDpG2GndjncTrADlNJbeBrLPu3MK0SCxAFBfmfrEdr0ZtIRp7htCxFJj2Scvcm8kC55PiX/eQB4I73IR/3sR8KItqx7kLtwq9ERjmfui8Wg3NsCh4mz34kcfAg5gEWSzdSfTAABFYHtgJ53LCJDCcAHDBfWcbSNNJvUMIi94sO5FlSII35E8wpM3bSdf1axyb/bSv9J+i3WP8tSuuQryBebYfyOZYsyudb1bMc2k1B4rwUIySLLJDqY5UQnu/0yI4v4GIlK0SfghSiy/ditukvjWyibvrjlI3D3n9Oxgt15xYiKk2LB/Z3fIXNA/WK8NeYNn7iki5Hl70gF/1DXHSD3DUkdIKWpg7y0aROe23TTNZ+RtA6hM5n06c0/FrlT42MTi8W0NbLSGkMV0EGrHEMnEtxASJqQTAme80CqkONgIXVsk0Tf180Va2cauZl1S4rAkTjr2uVPjYxOL/TqfGXo/WgW0TK3WOnBidL91rTJSIg0j7Yuwj9oa6eV93W77SsN5kvOThl4picwIAAEUqxIZ6+7BSnCP8CXNcI31FByjpKyfZXWi/5DI+OeXYDQimVBDMua3F2HolrT/GDao5WD7efcvCg00ahUk9HJZbrC22c5PRnQKxbo4llIKktZg00Gr1YqyGvGjneJi3YTM3J5asd0bG+if2gcGBdf7nqcXFH/2uSdiqkdGwRSgHMp8yIkOoaoJOQEnOClmVX01SHGTlA9+Xt8oe3oE0KTvhAwW+JQKE4htJoQPlpvZ5Wjk+bh84VqWl2Na5b6VNa4TZWg2qwkW3kR1y2+oDljEmCzUxpP6MnQmRCHGqDuLr2KtPWsFLf/gWFp5EdR1HTyI6jqOnkR1HUdPIjqOo6eRHUdR08iOo6jp5EdR1HTyI6jqOnkR1HUdPIjqOo6Z3gE0jSLc4F+5sp1lT5iMqLmY/OA+OWk72FsDizOXeZrQLGrEYHTmTKeTGlT+ryg8XbfefY4RfAeTLkuN/tiQHObPrtzJ1L64OAdPgTSlXAUUL/+deK7vVE29kjxYQX/ba+iPuaL1/Fa1FrnAeXUNfkv5xcMyhbHYBggpts5f4+oyR/45UbXDMHWhz3CiiTjF8hqCt/u2Kv0yC79tn6nkzYsewGZMSomda26/7cjX4ZonX8fvcNuDnBXKF+0psG6l22WkBrGTMjNNJZzsNQ6JTpdQkGnUAnBWv+63vl/uMJN7uPqe3Qms4K3X7nv2rvnQDxDldpuJ5PRtsKbOK6CDVkFnrQnHRgWwzmn94VJAtUUqdhfqE5WduWu0MkqwQ52QDdeqDVAIoaJI9amci3rOKJQ5ckFB8WBz52uzwisPoolHt9WazQVOqwESs5PjujI6mKCm/vBVp7l9VJQAtSwHGSbfEIn5uXHpsnlUAhYNuozGQhXoD11BObXr2zgPh9okpBlm0y9cesb474JAxHn3w0I32nA3WR/gWfCus8xYq9SbvqLq/tqmc8Ycl0K3QNyatIO59LatpFgVl7i2Bvbu3ocPb9gwkQvrE8zxDHGyYXROT8d4YHASSNbux4FYmPcWGOMxO56FXMHyMVEc+pmVecX8maHGMYWZEQSiHjXOGKx6Gflbu0+wGjH7br/sRrtVHkg/GUG/Jt0OkSBD3sK7OMZpb++Hifkz5hIlU8qZgMH2fYskb7bpAo1+A8g/9uI2TZboSGuHZm1mBo7Xp22gWFsDF6YuUbT9c817s5vm1uY/wiN6LPEQxCRxwhC/oeLCxPwir65BEj6ZYXkrUOHhRxzw5HELasBqh/QMehC/+QNESXuNhqo0qudadqf3vZ+SfSV0jkB8hQBBxD1k2mtnlQRTK1GOsiCM5xy+gFdzlt4WdoKJ37OraKNZJTxxmrlccjm6gLhW5fnB+KTKh+Fm/wQAAH69Yt4BfTU3qlP0uQEbabNubix1jyjQaa8ga+lE9U0YVxXQtOq7vBIK76W9djhWsWqDIC09QZQPDfA8DjdPwhF7T44QH4SYW3kLQBNj+n6BdXgbpukJgO8dLs/cvZsklpnrp59x79dUCWPgOTkxTW9u1TJpU4pi2UN1q4CnHvEDDFNgJ/tfCSO4qrIX8b8zkyFJxG5h/IHNk0O8UvLnSCexiet7RPkLvx6jR7aoKLUM3bmwJPsdpd+tIUnrJW/Fbb+IGCUmle31fny2pXAyteUXccOyYtgCccZulydEg0XMDfI/uZtXK7PgSepdVODWC9sR1DUQ+zLEM7DM1a+AM/sMg4/zH43R5mqZxRFaNOZNonl8xgMK6ZHZroJDiH+oYivaJm9QakAvczs/PAERNZB0GSUODeANnWQYFlnBE6L18gw2GgJvGRMi/vuDXOy9sLgpB1p7zve+N6Hz8Byz8X4ZkLvS7ePUEmkmiXmR0rOIUNjRjqeHcAKIgzjjaREwUaEJ7JtL9vyHNXZJQ7FF35iLW5ObztpGk0gm+U9Bqv2haE9a3tTrDgBpm2Jy2eDNazB4jnGPZI39kZeRRjbwPb/AMdRD1hXQ6Ky46vPL2y1to7HEzxJgIVdztJsc4/62NZlriyykgX+oOz1MrGcSYBCk4EgVDfE6jj5b2HEAC/45nFIvGdiP8LW9TpYrP2KR55q8fGpB6xd8rmbMPbgUsRvEhJ/BqrMmvFz9erXvv3X+3ofX6zOLRgtJvdNRuEeCU0tgjAFIwACP5Osq/le1KiOeuBhP8Ew9XL//Duf1DTFZWaGczdWHd/sVYggsIU0YXW1lgHQWlMrg1H93DtF0z0ZQ0r5xU08U8XrBOsgcucwyRLRuDLBblMYs6+c1jdew/5hnamP2KzZF9TtQUOIVX4tPz2zFHM3BqhqF0awuAdFZwBj/vrWhLTeMC9VOuisrVGzqyXNvswHAaZttvD9P5h04sMVQRQpZXU7APBIO0vXJ7EP+olcGZ1B4zkGeXkvYKSoun2dc+jYU1a/x1jQHNF7HMsMaWSieRCKwswB5Jvh97bQm7svywUNZqpEzIwUtjC+Ri7wJXVRCXp8sXLwhKfxeAhLmMqEIgJ/L26crCUqh/S4V68gsDzlD4Mm3ttSh8tMUACFoUrl0nO8ADb34L9fbXDv0kfvNBtCldJ/bjdqCc1OOKk5vHdIjzAPNerFkGK31q0ObxMSScRJr0dGBMRpe7qR69KvbQ0eIzMQj/tRYIJ21A3meCDXFzK4v3BD0BuZD8SdxTWlj4n5QULzB7v4wfoVW0Zj9SxQx0dnbXpuBcVlW2XWcu4gu/TkmWCG2vpdgRGJSIfpleUnu6ncMIXKVFTeLxuVey956ZngJR8QOyltv53A6Xd/rNkYdHBooNRuwmh4fgRldiVSA8LS02CDq+ipb6c/4BMiviWC2M2HMWmUQlWzpbz5AIcAvfOUUhb3Hf6/b62cpqVp7qgsdwp/Gl6tzzk9d6GLEJdHcK3jYcgJK+AW9ct2qFF3CO9b0qrr39FLRQVsBDuRLjVA0G0HVpbZVWxony8Lv9Fel8Tf+lTUkJIpbwNuWPTCF5Bse16iN/y8UF/6b/WqbJRLNBeADI2Mj1h+XbD+HwfMvs9/7qIX5fPTnAMrWiX47bzExd5NGCsBfnDU6FV6MMPzmsrT8yAaxzvc9+7FzpFciBBrhVBGQU5/v+9VQDqD793cxUnWy1RHbNzLiBSjf7lhSk/MDgDA6d2tMgF8SjaifnwAcc2bMNJ3n36CvKkH+3t+LL5uu2fRKMBDdlh1ZoqJo55E2I4RhlySKEicuENro/4OgZiR98Z+0Mbg0jWr2CJ/aaLlwnCEGtsYkbQaYSBD35TrC8rjBXUWPXDRxnYme4EqwnpkasEBpPDsJ7V2pIq1WSDMkgvnomA6uDsRKAPA9O//k1qUDrDwNCdtKe9/JEZnW7GeJV3zv01mhuUks4Ecf69305dLcylTKA6j1QKmG1r6xbi7oJ8sexz4ZxyPZ1ilsgBK5hL+d05G/rlX44HotpSKaKuemdMF24tBF1kBuNBIKWTevIcTzX0COGbLNdZKMKYprjJ/xhUyKDj71EddWDCbraXFGj/4hbgFrt7/mnO4t+/IJXHN4KtBTL5uz0WGjc9TU+ie0mzegiz/PcDmZ/zmN8NzHkgt1bhDDwlVSYvgnO2yRXtfZHWTHx44KyMdo+KxX8ChLrb0KT4GG1HZgnAppxJDjFR0ZrabGCMmoVTmX5CpTvB1ixcRpLC9k54no/1ydJB0jWqHitXJOTGvZLS1E8Dnd2ZWPanUQyf8hLYxiba2x0ZpdzCUlQ9cA8i4v10NnAzB3kCPSqpvCNMMMix3I8D9hTezWqVebjvo6o8sAE9+Gu4d6dUH9nUm/8Ie/rb/F0WFjY5uEJ5xFZQfKJPEsvbfTSIfGr1N4kL1eZhCvbUw03/5oWk64EviBOPIHLa8cr0/kRl/Iqwdavur/egwgPAMZ72hv3Z7wHcN8XdxmPM4WA2H+fM5jKKgQcbHQRIrARe4c+5gHI0Mnhn33o0/0sVCLeeoxPB/fBg4G0+ffLpNt3Ry/9dNcOcZZbPgTy2iSUFzcD73uKRZXDZOygwCaG5vbnA7h7k/i1MvtzgaeDzbHqoPZkQAs0rCw6dAMxxTfHB6kw7A3+26dakEzVFpScYQ2a1lO/hoUCLwUu1D7MWzTpLbkoJNSMdc3OULhyt11uJB3ZS3bk+R6x/7iwC8MKWIDHsBHH+P0aDo6uh5i1QKWKADvfVXhn9YP7Br79XVoUIieAUHxYHPkWiCXDqeb6lMTlKl4GWybb8rFZs9NWMReKgUEnHK6yJMPAt+XkOkijZR34m7YzAVC/WVOcsSsk6spA2Jy4uq0wkvfXAET+NfzVSkjQOWmW4l66AmtJT9qxOh0OPv6CQaiLcjvO9hiJ32efWRFQnywkWnKszXPxPxt02eMF5c945sotYPtp8OlUPlqCdYdniLVqcMQLeEUqJv4w2M/rHcEgmV+PuRYk5W4oBZvdM5QJvYvQuykm4Hb3VlKLVojCvwkzYC51E6QoZ7ICaRyDC9UvHxcekH4CetDFg13NU6vShJvLHfDVPP4+fjYP8i5yDUn9m7bS7b6gA/ZBSGfV23YRVW19QCxnCC+FCUj8/VmiEden/IuQwvDPkuClCDHmwp09/Dlr8rY1rUCZahbW0DUzABWlejvXgwGo3SM+lIHGoM2RxO1fZ6fiJhkdI+5QqAVYi8ZiM3QhXGB3RiTkBn2e1jAJgzJsvCDYviuEmwAhU8lAJBkesHOMVmcgwFdJ7Ab9YCePRmvEB1m1J+EdJPB06fe3XF0yZjEBnJ2W5gtoDX45Lib9UQtklrCaYM6NO9UnwtTx0td798SYA4bMAvqAfXMnVlsYkAAEuAycnUUfri/RxXhFe6hfDvRz2+HcxWpEhqftTha9fYxNjlcF+FKvDkgX8YlNqfnWqMlVNvVsjQnYMjXWHTMVFTVV7cMl0TbaE64v8Dc2pBXjrabp7yx0j6QKez4e+j0//cqw+iWD9On3J78vPfdUDU+vLh5vzN5EDvz4Wm88r4eZgyUvpUlGPQZ3wr1Rq5uYyLqkIA819k2YongdgMhv7T1fcMMTDprV8ixzBsQg/pPE3fn3qrarmLnK20b0uMH0m6RuJGyP4o+btDzI0yMVYCwY9jbqt7aIiEIAAm1KTkhX5TVYvyDu/nBCiZHGz+ZSTXi1XTat8xULDE5rxbnT5ponlQZC6h+cOmwZdI+HxQjfPJziDGFlh+nHKWGlcqcHHqI3+i/zQk9NZMPePICTxrBZWJg3rJmXT085b7MMzrjcdCTn8fobpfHQf7X2pBXd9CrkOqm24YzOWJ7MPx6RlnsWP6ge0EKwa6qn8sbnVIqH6DfZgUXgOPXAxKCjT8NAI/g2l+9PTrsjsCAbLdxzPdYFYCZE5O8sglFkfbl1s/rb/hU9EZUNNaGbMcTgDVfwFXiip/geu+5VO3OnJEOg9lNd/C6JGJgzSHeN3EKyl5eGh87LVr4HMVYVbXZEraV5MAK/G+g66hPGLQcwA0rldn6Im+Lveudfuk8/Vg0SiBgAnkUPs1/e2CCqT2TXeRynQc5jjtRfYBUdRY1yDY5Ufw+3rjOjm6ZYXXIQQugtGCdl1s3g+c+pORhhpsy5pDjJ3gwtSc3du27X06lX+OJWAC+N2RMz2Uujb+S9PhiafEAIVuPiDgqNZZxNstegpw/Esze3OB3DxequtH7c4GmcnUjDBq3J265IpjyHx5C7NIZv1j9ppzFAWG7t52FmHV2ggr3N0367NPDEhe5aSLsHVzwLZUt0mqmuOBnN39Et6z7ciGP7VafcM2mwOIu/RaubOULwT0dZ4Au3e+azCgXMrzz2rUunyJ1bxkFhGhP1M5yUJlTrlQ2oGL2fKWBFfidaRn4xtgJBjTR2K7NeUQYpAFgCTJx4EfOFAJPBK/Uzcbi5Jl6SiWRk3YzCE7uaFuAREsbaYGsEry3VSPPfNTyzSaBhPxS7RXiLasDLKwCJgHI2MeflgZz/GAzOplaqiA6o8jOuckBEwaLTVM/QlKoemY2Pw5Wyqa+7jJcCvjgAWJ3XdE/erSza3n6U1FszVbF56o1lEsksOF5o/mkZqpc/D1iIeYd9dswhjpZ2SryHINCpi/Ilu4zvAU9+yFHctiutl1on+swEEhPy0VvpyQxrUTeQ3CxH9mErDDDro4829udDTmnILwZH6pcExaxEs12XxvyWpn3P1pJaALx13Y9PYRh0Qcwp2Sgm4MXwnA9krmfMg4x3bBfmeuyXrpNv8ssvzPnMEkx/Z9WVPFvmHdFNVMlolv/eF0mlYgqA2WWl0Pa7GzufPI/dN3p2maZcUxhnFvNgbG472a65IpgC09LrPywxFpZKTJDeX5eG5UM+9EKHVNv9UtWiWomAvBmNxyDgwFox+wkMyoj8QQVTsBMoj1SPVSEM0yGQNB0ROhstfY6HQmLmtY0SCebONKPd3n/kJ8qs/3KqR8OenDouF410rH+LMB2M+GTl3L3NOLX1K4dhQgLhdTK8fPpeuh1I4t3RrN4Jv7ohb0x8KTqT0wThVv4W3os0LVQgG0cOyX6V7OTPffd63ewKS5nDh790WHwQOSzvsq2CmoDpuL8RLB4zP2Pza3ELvUts2kX3Ajaf11PjxX9vjgJbYdePlThsGWHlRER+gjM6wOGH1hY5Ca2JWDqQ4UqzGVmp657azblUl7+Xx6AV59pD9fj3FaaNNqAjCV/vqW2D7YPFWxDkXr6a2vM2MkyWmLlequBrSFYidFTslcYhEoa7H2DVF8K6pvPsbAbi8eht4iW5rUJW6UUYljFGWldihmiq2XVO01E/GzgY6tSmtc7pZyIA/OWY9cbPwjaH2a/vbBBRabPzQzMAXWqVheEALSlerzMIV7al6LBytogmWNugx9vXdH0pTucfMU28b7iHsrGqAvGibhVSZwAOSacQnMknkY0DhV3ZWqMhWR2oNJzV4MFFtZ9muoE/P1sQOmdwKAbGodeUn68wfuuNPQVvZcednJI8JB/EAIVuPiDgqNN+j25wNPB5tj1UT9ucDuHi9VdZqJ7NeEsUwk9EsMkDAMveyuqnHOETxuOdayZbOLifv3Af6DEb7utp99ThuP5pUb6vzvfXU/yqyYmKxNid14LCXYJB0DHVWkTlUD2SVfwPdDRGc7YzASE3ZO/WPSaKZxFYkghs0Si5ZuObF3kSwmQnLzAwRt+usRTugnExiqz3Ia5CJnG3pdFmz1IhikQPqsVsawwALx6/QtGpNfx5BhgX1IhclAyBdPqmnwHOZs+L19P5+/6lhFHCS47pEgDLuJUY3jppSVCCuGl+uGdYwsdTbwuWOAvygWay7iJ4EjMUr2+Nf2LPR48Peqfy6H8pQb+UC4KSp8t7ViuB/8sl6DTcxwr/KH5X4F1JuCgyh/fA0nhLQNYYimpOtZX7gTm5ImzgNO+j92Dw5UlsE3FB4bqod2iansUKpEnV5E0zSLmTEKkngav2IXDcL4E3bd64pjbPc0h5Q5g9dM0RkuoDmN/xKN+rCKJIeKNkHB8ZeMx7ADC61PrlUgNbdueV0QGs9pPlkegnG2p9uXaVtZzfkwDK6ZZTjegDB537jNVWSc/ADdphOCsR6f7ge7TZlllHIq5r2VolxRHZynmYLEf5DdYoZwdnq9s00E2wcX/81hMRaVVsUkLXGwdaSQ5mCcsifdRy2RJBX3LCD5JdlmbB4TlekwiO+jqfpOl3aGJfzZe/6UUW5T7UpScKZlzEkqOVk8bksUoAKt/apK5+nV/kiSn6XWDc3sKguOjQZ+m4Jq3bwY6/IJ4Ov0EyM0hyGJz8tBR+vgbjqWt1sf/0YKqcltwPbx5neqbYE94yjsaOqOcO1ATC/VJlQG3HmpjSSQYQ/iMkdcGmfPQnGHNcbRcoFjQTmReKUpVT/fV680P+UiSzJnbViu0cI9JUmydoUHL/N05EhPg0Vc2RRZGaekUUYoBPhR2S4yCTCFR4SkQmJrOp8zm+NFdfpDMTsjUmA/AqW3pTgxsb/umKa4QJ5dGRZ9qM2iH7iY39jTmv0fluxi87ILTxYLke2f9ZvRtQqbY5F7H+9KEkecWmn+LjXY7g30lrk2UJijsutz7okeiHAUWZRLrHBdlHSknkaP1KKU3tfNaTeV9sKaFDLuffLEaieN6BtacOtwVUgOzq+vJ2e3Tp/zKxk7nniQDI3bGWLhgVzHbn5vFoGgkaZZTHsNXD81pb1gTRTUV4Jgrgff4FlIANTEJ8PaDTiNicLx97P4L/rCfjRngl/U5hPpN6+XtCUuCpSVLNbfDon4QKFSc1G5VeP9gN03HsDruXFuXps6vDw3eIRV2IOWtAKOPS9aleWfKB6jjjPfOir4zFgss9cU2JSxXeEjoWdDbWQlVk+yApz4pJLLrK2B8vdchn40q+yb+jPIm5mIoTlzC6cocXTs/f5g4/mIM7iYWrjAm6SiNiCC5KrQmnTu0BT9XYGn7FMCbrUa1tdcfbC4HYXCaJVGczNw0pyhlvfB/h2LvB/Ev3/n+J5VwEqsAIR3nvtk5oVbH8+bgl3ov7/wSd9A+u6WervjDGOt5RYKjwyr8tu9wPK5Y+GlftbyrV/h40ANV+KPwk3p7oLMQOde6QSl5ERNNn8Fi2PdK+u/DVn3rNSRD1WvzfEZHA17MMA5VN5FerQKzgpp0t81zApjdEu3F8XX4k1XU+ajEOEBT1pVfM7VP7JXt9y8Zj2Do5MY0PRKR452zkoOOxG339VvyMwi9rVM1fFcrD8zgfmsquueOgp74ox1C07pNnQ5iLU8XkSLixywVOra7yUk+qBWAN2tZN+7JAuTQdCGvu9tnKgtphLwQOkPsGqhEQLDXDvVEpVWSeMlZXHGXuMf2YmGoYDt8HdyqCZ0c9N8g/GDz1dqMvVAV+eJNMuiP3xykN+GJPnqybMh8mv4CEuVpI4TU1nsDW7kh9IggjAzkLmz7DYMzGujO9wmMqbSZOC8aceHrJJ1bLWeYyqgLtQ/KP4AFvkOKWN637PffUXhOfo/k0SfDVz3Z64a0jIrkkJ7EcwVn80WzKgIFH5pxuW5RCUVilFB9P4c4uBQlu7Aqfe116QauAJUfccp5ct0fbJ4gFE8Y0Mw70rDHSIr9sbrfbe7COUDPUFtHEverv0BjEfoNzUof5UCAhP3zkC4ADGMkmg5RJVxiQHi/BYM3Ug0vjdKT+xsAms5aDua6tTaIVoZ3KXuYP4kV9Oop4ZRK5Xeznmuic9wBBQyWwOBLiYQo70CBg2PSs4jQgbCEy8HKw1jLPaGKTQd6eBPTdIvmEjAlba7+oiuucQtF+oU/k2XbB7oPiE5jusidH+5B9pkmm9mq31gogS90dlopn627r9rsI+AQsz3QRz6bet4xsQ03lrBVUjfG/GB88UNHCWguWsuDP0u6p1XBX/GWD4kHY7/hVPj5okRQpp5vyWAWh/oaXvkbnq6TXGxFR67jj0NsgdlSwfUjQMX/pQYAiNkN0Gaf2IiDw6w7jkcvKwsc59g0pcqX0SBG9P92NrTbeAFWV0NWHc6NsgubrQhFGyi0c1Obkyvt8IJYJinIVjULF5UZui4uqdh/qtWGhm77ixRTOfygZPP6Uaub6ZOdC7mnWakCf5zc3qibYGbkxIUiQ88E4mw8ePeKBVftxXruiJItVb2VOQeSyeA8kn+LJs7LIIr0tSKUfSfMSDi7xLYOomXfIrtagcZi91EaOAd+JCS3rGiJ//WSd15GvKKiPf0Weuaay0wjS37DfGuhU43tAP1J6iIRoR25bCkL1SPInMLZwF5eWf76ZRD8vpPQU++5Y4W7h1kFmuCHK+JFFNSdT82a4j5/h9cJzcfh4P4I76EVcLNiSIPh/D8/Rw22eRZ/XTrgz1rshjJ11qdBRE90E1HYWq05a1WI2zqBn8KVzq2HTWwMb3IYeqLip/6qahmDnqVl/KF22WfRchiNaJshhUdMkjh91uZJ/QW8dbTjmTOvosZGOx0l7VanPEVnF5C9waEOo/ch9cbfgC/+xHYG/X8jozgr2Q5RpYYe2p4baaLIuS4YWfNpCY/jlDjTcf3Jvb9dZUacEfROceUpXJfqGdgxS+dg7mNCMuAzND8hzcSWWGr7zcf1sr1sR7devIIaH3a/VhmQnYQ+Wgk9fXLlDLtabd1T65lqsV7MhxqRur36y/Q5T6b+nJg1gFLP2Vh3H0eRqa9HieZ89PrKUzi5D4p6NNqo0gwAncjVahvZcR3vJJCjorwnjd+5mJTf5btpW8wedm5TWR4cQjqsjjgZzaNYsCeIxfsb09fak9EQGxzKg3f+PSwDN/JoA/HJbHDZZXY560S/bRJ/E2BEqbYAY4PObY8uokP68WE/TncuzdkOO1YBcdznRY8nlD/l+xEF9vdvidkywqc7DhiBqFxq7aSv54EHDgMVIXBB/K7LYQyK6VJ30340TyI4UwuBi9kpp0bO4i0neUm8Rg/eKodLIBGcCoDQRm+gvB/AVL60ft+kl2oIBYO2MCbVbr8YUBF25M+sCk0lgE4m+YseuDSDhq8hT8Y5hgrwqmvu1CtXhPsuIruSbAQxizf42aiWiX5KcDSt0BmhcVdzd6QqBokaxHbWP3ut+giJJ3ml9fsWdMwBp3ssdqqactHPFX+jHqiybrG3XQNYyWujEjFYOTuZH4mivrFo3N1Qhl8VmAOxxpA+LU4eBVhsYEgH3GwjBLtEGEYn6ep2/FZzuAAPjwV6IHzrJWpyRabPeScCXzl3Ief7xCxEO2oVhPKnMNFb5e2JyYEx6iqeBz8d2VJLqYziAadQtE2IEbfORVQZBimSrv8eypcmUFNrqANPJY5aZ02dUxTD8Kml3sa5VRcTAM+rvpXnIQvfRif+1wgl2mxKcIzHW7GEfPExggOkVsrvnsamZNdx6aeYJ5ON5IYOzoXwE3ad5bEplujLttcpTfHF0ew1VQFqSMISwr3Cf0cEBUUqEVc0AiHA3oGVj004o+KciHUE9Xct1gyIg96ydoK3vjVOtZWrGj9fYjvuXU+U17356dFkpiFiGGbKfGZJ0G+vgyrel69e9B32jw7BhRr5roD9RCzUYw4o0JO/pATiyLWcajh/8xXYxAEdghXC00S2fRcmJuv4x4kDiwTiVa7TVUuTDye94NcieZxKtMP7g0sLmtP/ipHty6K27XmEfqXcplr8m2lV4sHzzenRuku1tyeyyZ6quFS8WEf/dHbwaJ5IVC9U3BVErNdKghwuQfEh3bOfF04U7qBFpy8t/6LFXw4TZTTp9ILSXI6GgRlS6NdLCQcF4x1xtaiSGyR8D0nvH/wRIW0F6s4U/jbqzZxwf7Nlb/TvEYH7HFQK9tMCCg4dIbl6WpYdOPRJf4sY3MOkuq0Zw852dcyUOKJWvw90Z2IqBwBKpZYsUg9n0PHnUs+xOm1TbaqZtteSyB2dwlB/Oqp9T9caKDQDjVBqotSTCKra1Qx4ithtXNWc32rQaQaXDxnhb3qZQojxk+jOEqA7KMGk3eajBKF47FWIMg0i726Hybc1Xn4vi1XKwwfLpLrHTfrg6jx2lTHGsqsxKN+U74LHf4qfhBO09BofkZnu8O7BzlaisueIIfQP+AusN3owrnaeK9KXCoE/vkvWpHns4hB52jqmawlVUc+XbbeU22ptAiRtri6mpNVMKKwiTw1FvNuer7eZOWEbQnDY/FQM/AbrDIkoiMZfvllpaFfKzUd0mCE/wgPK3Co+NNpHXfOaXFiZvu++fhe1xZz2uFRpSGsES3VqB9h1XzZKhtM4XpJisNNDFTJjVDzvp73RCdsb0WPK8RmpuoMOfzireMCSaonbgmDIcefpYn2CqcFRCo2W2E/gqCJphK+zaurnurXZIyyJ72VMpsbQhkR9TkZgGgUlM7eA8iS6LSNr1xcFk6c0dfCQOe+MVYTPMC0YtK6vVrTjmwKjlHiHAVZDtK0Y/gqTEBURM5VHpWF20CrA93eq/t+Gifo7XRBteJOQUe5k0omvzHrFV3vNEDIMyIc8jLsSIuI4gZdAA0+bF3o9UJNMvGQLGIdL0cCLHwg0MtvMfXN9aQWXxcAAHDjr/mvhVsdFrkRCCp9a5QKH+HMwVWYTBIDoXl4woqrPwGr4HukyA/KPj+wS95eA6h0sMxdXawkGHoK3xZVDwlgG3aBYcz0D5umEuxy+PHxr17135gFdyH311qAFQMS3gHQ3UmmIMSe+1DcZPmyoOyBqp9JvLVNDXJeMFrD8EQzypQ9PsgCekDTUppiLe0wNXlp/VmETojgYJsUOeDHVc3sanVo5RE+GOSxawSj+DvgIborM4MlgImUK73IrvdCFLFcolO7ELqOZqJDx+OkskgrC/Zi0Jum/kuayqSE6AgDF8O5fMF7c4IEPXpG0XulH5I/FiFZAnn87NLuuVWMhFxoIABONOwMFsBYun7wEpIWzPu8D9BawG4T9I+OQ1CtbSM0Z6P3LVuBGnlQGBblxGzUel3G/6hMi6TTLZLJecWXiqW6tidw85aoMGSoYJ2eMI74iKYfCFwv7dO0pKyGmAxnGdLLXMQO1vDlroyAS+mzydNRpscL/csEAjlMYIU+8HvQ5thgRzF6bYm3QHw4xFZzqZzzOZduDBWzNaqfFdANq1oac5LJ5pQdrpmjbqyFimcssslPzuClrcoh5d3XNMiY2k5OdIwAqt/ZYYnAH6dF1zbo8GQG11GPkNv96lxl5tjxjmoSbgCEiDljN0kkedI9Zc6vC+Rp6Oxt5EqgWq0BpkJevnb9lbdRWDDAAqPiLqu88++JfAMYRRkN4oB+AJws6rGT0LFHdVIbZjmhYK38Ome4/p2cKBoENi4JK2yByNDXVQsgvbxOrUDwC54GqHX8rNUmmTyOQNm6x6bu3sZx48q8a9TOcMIzAdgHm9DX/iH9A7HFU73cj9xaSJrCIFFjPaHVAjtf45vFA3dS3xntCw5FmXu2I6JlNnI9yYuSTQTULz9H5+ZfgNm7bc83K+eO6m/kEPaeV5tcIhs+Rmfnvu1ju3AH6mTR3dmpWoxOhjSoGAeWZy1Ry9A3HI8vz2UtTQ1eQvmLBs+oEH5c26FKXLkaPJjiaCszOI2hNut4Zj4Aay0zfpAOpJfipVkPPRGNvLITkHFHwSvz6AHd93LufovcTVJVlV6BLk2Wb6EGftrBjTQNjHVkfxvXKM4eVQCGnjEsXcbXPowUXoclUknDToZJSZypWagMizICp+DvOw8EAe4/fKKFRRgpR0oTKJiPxVtfnt3hGvPOgyNcZy8mXpoNB7CjCfp/9O1x3QWPMtzF/MNZJ1sbQoCbiSW65YQx+QxigeBHbDzpqPQ5gxhRGAlDZsINaWUEkI3wUu8z49XGipIytj4DVyT6bQODA8KqwapWbTN6yr88ENcc47TvEfs/mC2r9mKd31/i9McVOTkTfzy+JX93ENWw6h7vqYNfz/YN5j19duCIglZ3VOn86z7FTtnOzoGAmrPYcaDcWmx7AiFt0R3GgPXPyAkBtjazx27MYbrRd3wBoD2jU1dZr0kmZyi79ppHgM0t7hogFslH+/gY7WI761KKHZxtxSbB5o7ZP0iAhaov+2YaMkZNjL5pQho97UL2+cF1HK9OCuYi+mwy9ixqwCk3iPFDr9p4/WgEFx353E2g7b2hZR62Vkg8Cv/1oBrOkdVM5s9ARE3HKIbtH2L0rIL/IIFk+LgH9GK+6jlCv9ftM0wS53L/gCXBKu5XwS/GgSs6jdoXPZNEjo/X2xFaJW50q6Bg6ze2WxAhJ00AacU0pAxDKvDGA06LsVeK97LGEvx6K+zUcDeMPOZ2WAbeEbJ8v8tLS7qs+NGlQ6Jr+RWqzAOBsGCKt3azQf4jvSXh17/4QoKWHtTFcSNLCoJK3uFSgZ+ZfWvbBTKGahh0W8pQUKL1SKb1Zy4P0UATG90VRw3PX270vTQ/vdIuHKQnjvx0A1UF+fpSchYVNSrPMHaispOpPxzcj0JpPvSfQR4yCIC7v4FUB7zKvjgnGUz6382DiaVebg67ui1K/aKJu1FJ1W12uIskqCGyoRvooGOpb+n50OVxKYijW96YTgIjZkCUDKc1h1tVfrs0qX3vnModAhowy0491Cze6Qajg4ImtzqQv5z0wPrpbz+PX9+eA/q2JaScBvRFEj3i7GgCjUa4H9NpS99DTvJhKgKbvmbImE9V4mV2YdG+A3/L1lLsa3FE87Dos41VnE4kK7ah/i8lvKZIVK9Kw/zw1r1RuEaIZXUXYxZ0/xoD62HPkC0OSMpbTAG5ZRGtN0pz+eQ/HnQeCaLhsLtVgsiZuk5c+xy1iAu9waDhU5ycVe+WQIs9dcFxDhWNeAh+TKekBoEQV7OkQnO6UWx2stXd1pEius/d9nBOZQGklF/B8OFs9dqgckTqUmaa2U3XLmZO1SBQbq1EsxkizpejImQE4dxH0CpHXQJdoLKoOo4N+FuOvfs0Pn1Q3vKAA/At59aNBkaPl8ktYKDA5HvI38ofHaBKSe/FNsnXYvwAw3X57gzngxt9VIk/d4pYtYFly18mm5keTz8j/0V2d7LryICjH91vioOPEt3PgACYdOKzVQPhdzg8kXGl02myRaFTS/8MZJbI5HjoxnlKYsw+ON+mUvB8DftY3CNz3U3dqtWQjuYQOERR0ZDpEOUjTmqQPZvHyQLWoPbD4lhBOvAr5lHqiX+TbjU/vCIAs6cyjZkXw74NYl5P8J2lFxLQpMRT7PxYsW4GLgk6L20X0hmR8UI4RXJgJwNG0SCshTu1yrOVhC/jfgPG+iaWi7Sl/5Cz7o6TdbMvxSX47ZEIesnP96Q09+X4CdYFx23MTM1UqIbnOvLk5iGLC5RHTpNOSMO0ZiYar+PyPE/zpZy/C1hAJcEsr04uchbEpnPZmbi7aJFKfXFdgeS4OTOZKbjw8Xp1nQxx/ZwEJGXCAnqBqoPKIX8+5KALrJIwgzXq/HniriVvF2SxwP+nDU3z00Ik/5X98D58fy2AsaVUi18o8/pOJClcDgLaZekd/AzRniGfbFkQu2BhooIBQJfVXBu00DdoX8mKZE7yYVRvwNs4E0grjDLLhWhAcYDQs8+CHuSnN4Poq5U16IsyxazQlBBExC15u4Ry5k+MU3zdh8bvnsY+pvMbBIZZYjW4EopUHihjLW/jrDImIsV1OIma9iBU8y2famA5s47bdJlaaTdJT60jLRGDOxAigLNfHPQWmjLncsYKsxrCgowm43PbzHrPU9QPbDK6PiKe1Ac9bi5wJxiPbTScn7NuEpESLm97Nt2AwjCz3lzanCbbmfJ381oYfF3T8QWBTYA7LB+L+bNeA3ToOaVQvcXH7MfpLyORwvPxZs10C0qe3yMNUaa1A6liKruXJUS0rh3KPeB2jQKnztej472WXlQ6cPsM6ycf03QCTxcMEzPGE4Nw0Izb18jMJLXk9xb7JiLheNSxJ0ZRZICS4jrjM0R6FaaehW/IPZsIkdeUIyyRekk6B/9d71uKXFaLaSG/11MqfPAIACOu13eBuhnVRBKrF/9p/vwzc3ApzOt+IWG+72VFjiNc6Qfsw4SsCrtn5E1A23tz7tPMwx/3QqFXroyKFj8tEeQuhL1l2N9GB1G7EfjJ9+TZ/YjV0+m0Rqm1nv3dpk1NsicuQTI/iC6s9GkYZgCCYzT0sfP139ZGqyRiWGK+NdJidomeAb2bUhOKHT1IffY7SHpFfRzraFuQHnJ5hDZqI8DKpOAyEONnBmEgTthSoeElapsNFcgWOwPTkP6IX5z28cxWDF3qeCaI3qjN2nPqXkzlFsT6lcctZc2Gco4pGZNNE4y+9TBR2S2I2TMmBxO1ggoWOzwzDWMKYPn18awJhZXNv8aONSj6P8MKqfdLSSBCAtgzGmrsh2cvk1Tod5UPTb7H1+JqKlIpeULFeUSRgOt8744qQh4izwzuF7qrvIgAOfsjowTRR/c/g0TyRFD/XOGPBhNWom32Ip9UlNKNmLjGVjuTSsm7hzsfiscrnfOIqNED+YJ7ZojvBnTsWPPq47T0LWQBQPa3InD64jkpkaFZWSMrHdqOCvZGQDSGI0yOyz3hqzQhSjCeILkZ7UX0tZBLH6YU0Lu4UQ9b0YO7ifD/N/3lUgDNdb28MF7iWts0cjuYHGlgV8e6rjoooEib8J8JPwuskBP5yXC0Qjx7Mxp8m1NgjbcGI6AMw3YLly0R6Ck9hPwtjONbH2OWIH0vDRsLWTdS8QX8xBx05+5EkSsL6CwJ0u7RAowhXZzP2U1sRcdSWTDLzUa5r5NHkad06dAJFYfc7nb0cqUf1VtcEq1DjQSjKkqfCU0+WhcYaqkWpvEnnkOBa/W1J98W51WbXyyiCZzhdmqIvWZ8U5SYNJLqzwoOlrtIxIra3raM9QRRJAgwOzmxfamOiwmEGFd8hPclPTN/K+rYbwsh4hx0iTGb2A6R6YoQoO1ePx450H8VzINb4pebYZCJ95dQr6by+NYdXPXrAVKwbLNtU5BKZzeHGS5O2mlT+vH13c2bMhtNn3wrUCorB8lCfr4Fqej5O9vKaBHVeNIk/BMKoq4Uj/tgTL3vCg0Z8nrjE/aDOCTgiQBvA+4n6setf6gU4rTIRcyDSsULqfVi/6eTekl2it3wpid3Wk4i0eonBRvXhFPxBFdCp5OTAg8b/nKxTM5OevzvHybBUxG7KdAWkoFPpwJevC979UMtpnYBg3pX++3PPeumEMF4exfdQkQsTnVtTHZTSXiBh6lAEq5rMozBTBLHt2lpwNmrANRJJLCeO7vclLnALbtgZ/24MUQvTu9fCLByC8cyMA+GXjgxluebMzA0bi48MX2vMXwdPmXGWekmOsL4s1H+3LTbfy300x9KP/ijy/ERz0XLrSdROvA/5sNC1ssHm7SPHhwDE/k1ZgZ/l9Fj/iUzVjk27Y0GZtOVWNGBZvv3CTaBsnAoTL8+BNmb5R1GvFAXTomIbqo6j5hf7IteaPCemb8Re+l22eUxQM9MVQXcNnhqcTG0fukoyvKIvlZHCCdXYXL3uyTjymFSMEUVvi2z9Hc5Tv/H6o6G5lbFEjVqnKS4nnvVtnx5nVqK9L6JJ81TaPptb57vq8KhqeHT3PF6lpQWuwAeTJnVQB6txQfXXTFPChVGDAkO+B8Kk8kNDu5cgcRaFsCmfSaJjVKhlcyae0KOkyhGSWqbJx8iymFQauVGTpEVaIT6yax59GInagLGgK5PTMQ/ry8QtEs3yGjOxUrUniogFDuErjrbI264HoLxn5KXnRawYf0ROh+VoU+188Gy+q64v79j+oOIZYLOCn6aGgP3BYiPVPXOkRpImKU/agCgsaQvHKhchMunlBL3T+hJtikkJJNqb6CS6+anvUxhAGGzjuTw4dwBnegs0576nZM/BWuSlfrKEQTpO1p8aOpFFWFlaoCcQ2NWPeO84/PNSpIdVMveQMF9xfFjY28IvOgMJO8kagePQe/BsGhdAoiW0wFOfFAMC4Bi37utlfoFRysxCxA0jnWZeeIIVEl0wRWa37vpHjzWcnqBPtI/sHkTcTANNBleySaxXp9O1Ls1oOd/9sg4Wxh6l90oro/s+UCpa9SYNVfnkvQ9m226DK34KpfAOys6/eQAjzc9TRG3cTRjsoJxgT58N5myAB0fZs7RbOlpBb5ln/aanhL3gVzsZFR2oMXRYREk6x6k706XRcw8eBNqCGLxksoJlvgybOG3lD8ikETMLpzdDcPTHsNIkjtfbqbVuePgBe3uZVe+hcVX9M9zp3xFskmuenwnAryarP5hoZR3XCmcMYAxq1byR8GFPD90MFr/dEHoV9wPlznslq8iHt6jQNWFuHyC4SjcKQhBpA9pAmhELO9bDllNH+yhaknlwNKYXL5U/DKMzdWwZGvI0zPXxrQNoyxuEKXOg4ooGnZPcH3Piv+PaJIdBw6aKrZy5u8fIyfhSOX8+3+69dHSERy6/L31gSBNLPcsrMJbOJZCoX9U/JT4jn961R7h0mud3DQLM81cZr3bKixLQfn1eySpCvcGaQghNN+Z4FiGQWh6WKMzIQ2R7sK/btwyI0kj5dhs0S8R5HeSoAi/8SCWGF43noMvCle79lzDBWegDO/j9Z3v5Oc2vTeuAlXQ/+XObjYe+6eDblncT87OHPNGCwyX+GQ4F5GLSbi2ILkulkK9+FrY+a6bTCh14ZQB6sm5Q+Vm+c8H/MoqjvsoSmJcGhv3Sp+EyjFYwelzMQC6daew8vgZQinYmaiEsSaqXOGQTegDA6rQy6rV6eMdXXryijQ6CBq3YQGUjyjYmRy1TQPsBUFBaNJ+HX3UZ0Ro1avSRD+3ays07GBaNXmrhYBSDRHL6GpVf1VDjdeJQS61y+s3+o6+UlDBgrAyQZxs6ExT8P06iKUzMHlkHYqQVBBTtcM0DxGqLeQaVVBl8ovGwhVbd2pk6anEwl1PF46K7JFus+vQ46WT3kv+LzNHF+n0zc2JTeBoyuHIf36nsHx1EkGa2l6BkhbLsUyGtafDcy6rfUOCJTpV3U0gYRc9/yhkOTKyv46jr0Ye1pq6nqvT7tufQEJegAaVcSHHbK4F1LVpxXTf5DtI5jo3IgZ+nh0pD32SZ5xJ3ppNiTcijeAom1WJmlhzi5/VkI/MJd9/7csyLYDC0DO6xQDklm4zEmlzUmPwybVFIyngF9oX+gKY/eKmOv2LsvhfnSvBxgIjpDAtpN1/gDveYZmKOpexXpgoQoDSc4Mb4R9sUqrh1p2v/8xCc2/R2oNUK53FgXkO19tF8qQ3Szrlnbyph+4qdHDt7NwATFGRtlMrYFcbXz6R6qBlptUKhnl3kT6uh9qI4+TgXI3BuYHBkF9w/2R+TabowYWi1tzRU4SdVFpoHaq/KPWuN+htkf+iusMcFSuK5hxgvd26eR9yJxjFy/mdpkx0K4BIfEPvsJUfUMYM9pGVfnGeZjmqlO/3SYbcW/ckKIWymHcllezX1trJHgX30oLQN0CnRtXb2pu8DAOVkgfN8IAh6AY3WuAGO5SuwByzGJpnGr9hENGz2uyGKsQzGFjRZF6nVEbwTQGjB7HR68bjs4PnrGqr9NN0aHkpehLKmwd7CY6q/bdijX0dl3WCdS7cDM6SBi7UomoxQlnMIEdsi2/lWZkoScCTbQ5Y3iBPQp77Pls5kxiWsl1pfe6WRBwL3+VgNukzcwX6+1aPKyhQBNA+yrSkpbn3id+qGgTQYSOgSN6JnWWKbKdaCrgZ9oJsG3RF8gboHF8miojdIB39o2+sOD/hOoASIpjih38Pgne5wEU0COjmvAXSzOnKvxNyZmh3n61aJnGEXwMt8hpq7u9SQMOZjqHNThUCrasKphu4si6+GI8EA7hmRhz7us36UuHndEYEde3UvH22BlISCoLS/ycgq3q2KXj8ebsNntK+TNfQZkMxDPAtaEJZm2GxfziXEl0JuUeBnDWaYsz6fEJK1k5b7hb9tMiSpab8KFhq9wH24jPoie3xSDmrlYlw3O8hT1G6nVyb8i5MGxRPp+jlR2WA4eSRD3ABL/GcnNwDh52cQymQY2nZLZBX7nLcFlZTbbEaiMZG53c81BiJpPkZxjMicJB7o+mw7TiuJiV9Go2EKRwG26GUjl65O70CU/PkXa/Ylp4sn1SY/DJtVPX0zzCuHVfsalUwZ2+epK++/LJHkhfUA4B08rGyjY4SHGfcD5yTG2dFLAjeajFLu7A8tWgeJwGsnOTvXYWioTXiTwGzOok1BYJ3/51e8paKCzorhiDgK52sa1a/TBrLGgMOsj1/XNzEuNpby/zZvjomaLmczDD+rspH+hnONrfJnCVUMN+YqvIt3k28fhsfi9RfvAGy6UGs0aOW8qOOzRo8K28+Yl628i5T8epkQLBEi0RzhuPtIuwwzuxIcXiy9fHuW4s1V21u5pptuzoTm7yaFgX/KU7jG5NLuFNpt7o4pYC1/7BTUWURrAIfRRgT095VbxHSgUONrP9GpFy4DqeHdGJLH3X8U6xTGXlLGhApvAopIALTMXaI6b5NCWMQXy6TGrwne06EIkjcPOx3UjvJuwhY8vzNtIko1lNg2rGO23UZ70jy/Sz52b4Oa1YDuCJf7M2l71yrCwrIyl+cRoOvAnzFEeRc2rRxV6TUr6ntFZuvQ0GBR/Qv6bzsGuAWKNE1JlG3ZAb/4FWrXAGZRKOodXRyk2DwlL+XMjyc9jAIwghC/SMk8fxIy4SP+tlCMGjk0sotVqveM3/cbsbHPVWPu8rnxMS0vFkwUl2DFtzjSuJGY4uB9FfL1zVEvZ/uewZM9KweLdHauwGiGaDUGbWkciv242omjhBdbSlMXBa6qFoJTkEFgRs8qMP8CxyXwNnYtsrHx5S7EFenMuwL78TyF6ZAQEvFtc5zzc7X3v6cdyMvhfMAQ0ypIJXVn2S6v+tuxOxWMkkgRAQZ0HpDlPUN3TFnAYDAd2JlXvfxS1WsCR1BTzoSkV+1N4EG5SlQD+hea08sKxvPQRu29DXJr/RujLd7PstUpzxEFNP8rfhaJ0iZTHBf/x9P9BrPZ1r1cbbHyEmPG/N3NnwD1P5q3B2HHVWOnK+2d7tnqukjNfox6pvBjkIUmlkCswko929fAqOJrZhJNAcMrnBdrr1G1Q4XZ1eO7425jTQF/XhO45UmvNYqR2aQyqQKo/NxxfMbOuGt5gu86+3ondma++IoVCE4ZkdNYyLc1+PBuqQU6gB/OGQmynHbyJHb4PaxuP4R7XdD2KVN5Bced9Qjd+BXc2OC2S4LW7MfuE63lmSkaaJ2fiO0tOd1F3aNRZS1CGxYtkZ6/VJCHObKOfh50vgDpvA97y3eWIPlSbxEu4wTvGf1u1RcYpAtm/JGq2p4L/duogu79o43V4CHx8VFIu8tkk6kywXPND5SaGhPLMFKkuf1FIrnynPYzD2gkZ8COUws6DGbqojOX6yqmR5+h9nJgWV5QLl4rFcMEQ3aOFlRX7Oe9yveY7ZNYHL1ko/vJj9NNjg351WveUDkqCzIFO3l+QWuayu39lSTuBmgYH9qrwa9dMYkQw0PkKaoKTRdrUbDbn81qUqjDT5m1Jh4Mkd8NWr9Sp/g5OyUDsgTxXe7S+6A5cKWtrsEUKdp4mlS+vNL5P1NAyWMQ1XsGL6efjkY56O0LxzJfT6kFgsnSzCRtRXjARBWTgwDj7gU0BTpeCIO88q+fZylwf/t9ydSX9EtGCZQlcvRdQozEd+6bllXo92E3Hm2NtXTyLxB6h+bK30yc8q3XFx95XAPWaJoFLmcNgHH2Ix/355BjBQTBvG5E+gc/9zv0Qteo+M04J03U0Z3VPCZRmuEfbnZkEdPeIn76ytlxIMcjEYpsm1xen5J9pSojkk2s4ARnGlA8UaC7djgDUTKfklXN8Lr/bTUy8IYPLcqGZyVCKpwLeOpUsMbkhqGG9OhoAlFaN57jXGHQb/8eTcPPEFEFdFEWBhApTr2NiEu1/r12f5ldTRLR68plBfKn98hJnHEYBKO2I8iYrSGYh76RcYw+Kb4r+2BNDocCe+s9yVkJJa2XekVXTpY/BsFLajLNDlcG9okIA95NeYYzggu89Rj29pFTQZ7YDCOUIzaXnw1mYJDBhyIqhQvo7JE1UIPLacN1vUb+gsAjfXapOl4q8BfftDwkMAvHQwsfIuBE7US9p8mrVeWlqfpSWhbOcYFtdepkYAE0ecF6XzaO5xttFFaZq+aKU/8fttEo5U59UndsaY4yDsowT6ErB+t9C0hpsImawSqE6t1T7akAqDsyALsDewvJ015EEhbRwuiqZqvzWj9h5SuMaTO5mpmOZUh8+QxUfB7TMikOTV1E46I3NePS7RNzBntYtM2XXtWEkjxO/WixSaEseM33PXb9Oz8/IhUSdbCSeaX8WTJq9R2Ey83YfUal4LiwLHvjEaMogL774jpmsR8FFRSEWxJa/TPKaWTIiSndqM7FdJnYdc7SwU0CbCTYHnFZrsilv1TZsXp4GSKisJLPer1DfWdBcvSotLoMtoS4mx9wPcck/OK9kJ/aMXNy/AWqjYDezIjdUXicZ7dOwEUpGpkkQtC31b/ZrJ6GmfBZCQC3OqvjgZf6UJQ+qijv2dDbF+a3QUn376s8sBrWT/7y/+5iRihoKmSWsgEA7UEjZ8QfBych2c5db3yik6LeuMcRc1HkkWLoda9oWz290UBWKQzgzSWyzCHl7MIVlrApJLAUfqKU4Du0tewymIKsgD12g/CsXFd2YyEV4SRhuPLZJlNHPF6HoDHBaKF5uJdEi4mjPsQkM5GdXyASWEjxZ2jbhgbPgx4psK9ZIyU/2n/JSAleP+g8nXHVA5bB3DalIMJbZo+gPzfYOk6+OxsbTnjlQc8HS6YGDBffUTEoG1EE5+iI1qzghWjXfyLeJt3y2ElfiXV0qE7H9YNpgJtwqqbzTX3OSmoOwbvmmygqdfHfsW0WUUeOivFdewMmdSXWF6EnZ2+nUI3UNewjeKGa9+X3Qk/9LNVKmYJPTIpBvgpgjE88f3MuCLNTV0SjbSMbF3xy0OoyOISQ04IzYXc0PwVjaA80i3frpz7W98QMxzg6kgNF1UhlSc+tKuE0J3g/aelqCDYROF1cN/Y1BCkKl2YnhiibHjMFXC2ybTTcQt1UIBuNhs9Yf64sQSXWrrZc5BOXveb861uxrTtwUFGpayHBsc7Qo2PmhhKQ1lXkRGLbVKxoEP40WnLO4dj/2mHHBAaFIHgy8PuGYoeJR2wMp5Y2LrnMTeYTQBN3+h0+3zG0mbzbpgaRJDm6CBG7lNaXthudTALaqACgNukqbrBUk0aVer2YYEjFsKNWf3+ue6EP7EqV+1UxQ+XSfSFt2YraMrrzqO4W1zC0TkpXPKax2G8SBmSDLgzECnGQ8P3d44jCQc9fs8LvO8VGxv+8BecSFYhBWD64mPsVq8uNygRcj83/utmT6mKiwGAGzJQk4X77mgd4pJUwRvJK5/E+HelcEXb/XmXSzJBycBirBGuYaiINJaZpjXkBIpBsxRKplFeOqHt7XUjAJQw8zT8MnaRUjmdA/HtVUqmpZLmcAzBqzjXa/SewFp3raYwFsqeimFwuztWZacZkK9Iha5qauDy2Galm/ZIdCsLrRaHzpaY66kAqlXCUFnT1ySPChWGcK+hbeu6PiPmUarn2hQkVuYlNQ4+/dITVK4xpsSNbpHyGJIvjgIhHiDbKzXGYyVN+1wYyWKAZgLMTvA7/3bLvfQoS5V8NXV7u36tzkoDvq5W2BdcgSi6eaKBdyk6yQDLOT/OF1oglSHQ4z0CEATyowHUMlAVu1p0Hy1k1PS14s9VfVJehnkjl8bf1DORBMLa9O2Tbf0GTLPDzOYHbaVBF6vZYMJBQh62/yGMAYqRvrpy50sPo5gYQkDCAvGGwBxIFkBmh+Mx5OGfZvzkPs9pMunflnNlMESV849LAT3E6LmyvyHiq1kfNCojCnb8th/p15ylJ2men+5XAiFWKH8u/3PwxAVdO3SfZ30hTx6Zae4yqGPJ9Fl69G/qlXPfppIMw1JgJjtl5X7ahAP2Xfu7gwPszQKJZAeDvDAMzJZTlGEcnj5Vf78kAp2opmECGu6C26Knn52gRBAJX+YY96OY35cW4R+WT1SnyW0+HzFZBByAb+OCAb7ZO2DOWnanR/cOWnlrGm3HDVyMGoqEIM0GniFDjeXLVKdI3SpDYN+60E2ZdDuukDghL7gPeZEn3mlan1/8S3Ja2foVOEWqaXnXBe+HMknnTl4lBH2NUrVY/+00AMlzXE+xm7GVG4m+dHgWA89Pc+kAZeThIy7Lj075vJWlv9+kGsDrpva/q6o00jiclK3kJDzY6Kz8Dyv9ehWlRNOZFI46SNBbpc64CAa08FRKibP+SEAhmXMRkjUrNO0HgY5rXdCeijvl1xXJasimyZJSRXY37lJkFnB3T7WBu/Hig+IzIpcR6AnH7SYEDlpePI/SfmGV9oVPVvipjHD1atMQlPZG5rhA6YJWtW74dmCkdRbqC6bWRz3teViRx+5DyhQhg/PyARIyR5QF5sEAatb2AkvXk17l+ohXOLKlEMq85m4cXGA41+pvrJCh7CX4Fzdw0WNfFXMcYXS5FXlF4n8j3f1xICCjLKfrBcHYIwXKgKRWp3u7CfE9BCodG/vkGbzQGfJ8CUP4/O4Cmpj4lvFn74Zrj3sv6q9EFoNLcb6JV6lsKlXdGww6ok8hFpDFbffZAlGOh+mhHMxIEwL7LKkRiJ8Fs6UTPhZoVWgcIIJgPpQq6KKebXPTdHaw0kvfGG4+LVQqB6hyMrM4dqYFgCoK6+xCk188iv1uUagjod2TSrWLIwEFbipaUlC8fiA4dKAtPr1QM+oACnCWqkvyNuszVTQiQef2XFpQu0mNyBi5TMbTN/o8Vzsb+aU77/woCji5Tsi1KUuAUpPXtzf7lJaeqKDRt7UYHor49dmIe/p+D0fzfPKrB8Vlasno47TdoiknwpyShv5EeA4zOlSKi22nnSrEjo6zu1/c0v2wxMEVeMXhYR0fmcQMrYPtl/vEBpgzXEeDJF6U9FHm/2mNZytHungl71od9LmUcbeATMYBh3FvTEc3PVa1uT5Y7nAQSrcA9+GQg9UdviforBCcDY9KEq688NDTxHEDrGAvd7YQD3d2fWsLt7IrYnPK407BVNhNPbA+i4NW/PkV/5fc6Sw00tCrPw3+d1QYU2xOVk73rnEEcrHemyo/NIwzVUAFUafhlSte+K0YPldVOSA8PIxVcpb6YVEtA4lcwS0zUCiQkGgVd/ea0O9H6R7iQg9HUi5Kd61SRwdiRIq4qbrrPbTtq0jC8asH3eEJccS//iK9FsRonKwZ+FPJqxGR/AogmLXdKFzWnniPAahKAsogVn81RPzB46VIi5JS18MTmJeA8NSCSrsm0VJ5LFUNZgj5jx1+VLp6yHwAFJJZAvb6ExXes5eeJa3vsUUv6flKSlV8SoRkMU/6swac2L5l43cV5Bza6sXRTnMFC8te+z2OCQPed2IfzSQ3luwEmf2l6YEu0NkeV6DG7UTq/a+q1pxl5q/JQwWfeClXrvsSgTHC14rgvfLnurQ2A5vr9RRWsiXb3Mg5Tree5lflH5jCAip7eZEgQNmmecPipvZkKiSqTZQeGnlN8QV0Hd8kcsROGtqbVejOdCnz3/PXH7mKfQ3nxeG+/lS31i3KfAySHY/G7+NF2u4D4B+YakVacZhduLnIoA1uBQ0PoBS5W0iPmjC7CFaGlTQg4lBTVXg2DqWevNcq19wDV85+erFQmNI6EcOcTRyLyN26gv3qa7Vfk2UViDa66muEh6X7MrsYZeuIIkxHfaUqZ7oOyqmMYWGYVoIIrgtYnMhIR564mxv1zxp4hdtOKe3fKw4+VzA28wVu450hGLW7HpgoDEOmmS7MZ4NL9JylWDzhtrmX59ZxAEgd/oitJNBB90faAPAGrG6eKO2RD8JCNvFvAbPi+qPBRuOJN9/cfYfyIL2SFrxdxvBn2m2d9VQDa58lRyXtfhaX0MNZK+AU1LSeZDdGUWUo8uJnJUt1yRBh7visZNpK3J3G5fNBg35Y2iAm4ysemPBQ8bVLRaEUojUhOH/0h2xL5UkHTHEafuqlxDRKUgJ4OUFtHbrIb6kFtPqb/dBE6LuJYzHbWecL1DSKYhyTPnDKnMyXO5gnhWh7rf9AdYWGmV5mnLlpg8qapYlFFSTJIg9Wc+VdSAcv5W+7qLTaDJKyBx3t71Ac4VZWkNmLM536gmmOD+zgB3kV3UgqD2HpZ26GqJkrbs4CslgFJ2OtDGLULBOsEn9/oUbJDYKcD38p/O28kKk8x0Y/GdFDU5oIlJvMeqT+E6b/kwTjEpOtfyBqsJTt6b60Ff6bfRDwPjCt9jnel1h5xpSRyaHan4MrDpv7jkQJjbwzqeLJPzQczSjXiyTOER2Zcz43686jkxiPamKVbdGiy9gQ6+BxhDuAV61BLU4L4R9Z/sLfXjiv9cENqwOtoe5Rjy2YA5qLmmyJQE5LGqymPaF/3cbhF6qzaHlvdfVherSGFsYyrg8Grn7/w32PnFMU5WR91z429i0Bpo0qXGEPDcuNXs7KRMTimS3QpiAY6i1Wqy+CPL5kRvV0ENxNoA962+QVOkVnrQGvmy2lqtaNzLnHvlTaKD77rR3tXslmondehnQpJ84FJORbJJ0nUgIUsuMvYfQtAogJqsOzDFKZ9MWwKqJZQ9fkmPodYUQy1/idbJrv55LP4pDDSfhAfOyT+g9pMgbKDzp2zAbaL+L7YK6VQezqtROwTsJvM6E3oW3aJvBNNKvx/cUlqGgDbrn2Gk8Xuufo2Lry+Xpgx2Mm66k32Jr6X2Wr3Z7/Cf5s3TGncFCdR8NYuh74Ptvi/xjOdplf5ixV1LhuxP+RhHUA25Y/pLDVLWRw4LEy6iRsmkbSlmOQP9wPvOBsMaPC1QN3O99L8Sh9+jgvUxLzQbmyKH1KSc2xAENl+v6gizmT4uIQ55wh5YQMPdwPfirIOU0+t4QEWvQauBr5Bri1y2joqSDiChPomsaZjQkdyGXSdDrOwZQ9nBHMfr47rVxdIWVGaCCdtgzWHtr5GQwMLP/8krcsz543RzaUJjkN2+Xb0zF0pKtUUZBYX9EGVoPmeHZduuOL9zjBlh/Dor4uOMdS5tQqMJqc3K7K0jiQO/vJpjb1zNqWuDPm6xli8ufK7ECexpOs0FDh/cIxaF3zcdeBs6SbTn+2t+W4fu63EWctWwZMJncWm3q0/HNg+IUZh94L5SAz7ftYpMNz3jCy6dAMluTicR0m0xd8lPKm90flFfoOmMAsxqJgg3tc7hGYqWoR+elCojGdxKGkJSBsAiMNN/G83dbcjbmvRCrax3FDOUGGmikYaO16MJn3QXSFTMAWu3ayyulGIjBXrfvcLjJAkr/tYzZ0hHjccFl9Yk9hFQtAL16Sht3BVSYEsWYJv0l/qbOz4DeQJv+GgMhiY8CMyyWyI+9QEdRoJXnRylzpWZL0qnYwdr6Xe83nLUtzmzKsf/aed3fP2W6t/Vx4ZLLnVJk90jchnefxH3xWXrqd0EkcJ2cm0FQBVf0MnqAhOKvGjcU2n41gi2gSvXFBN3QlqIo25JIeh8U1/E1WsD2aOSb3TQ96nS7eHS7rtNwNHyEdf6HRqaqsKV0+m2xW95RLZa9gPyRXyMnBPJ2j/qsKv1h6OYbYVR6DSrxrrBjEr40BuJAe33zrHOznxD3py2I2+LfciPlrg/iKaMntTRLE5Rij18b7b+679424fCmwkwEU2kRKI+yxRpO2gk0iq+e3/StwogxURauqOFNtGdFtU6Y7samSnONvE6/cuFtU/VDMsFl9GaeQyaeeEjpKlMJCxRzAhjU6WsPXTS36TGz5PZj7NDo8byqYxL5hH1sPfhQ0TmkSxsY3rEa/8vhAqwhKSwbiq2Ytpc4G4GpqeTD9tAqPEyS9DkAec2ES3nIDajgdbX8pgHJFz9G0IYxE6W86hF/OIfpxOcxNjIXCAD7JDUpjx+Sdky376h4WubjU6OWvhs3luARB0auzqDpeLyhrfzuk3gHU05kDjO4y2XOKuHEMGiv27uTXXo3L5ujFEyNiq5HBLppW6jIAaDzeYsWvMVbItRt9nLWs0V/APDIc4Bm23uy3D6QLfWpFw5NpVQPuiKIGnot1z9Ffw47rn2Gk7vXPS+1vG8AluWky+mDHYybrqTfYlQig4vb7sEqBQneQYlQREduFl9rq5k13jqASuHmJfxCrRMSLj7IJWNoVo60SO/ijvdtvGMq56AyTDgfMyiefLrtiU3q36564HuRK5wbTaqNwfQKX/W/jYqZ28J4Qsliz2H0YVQ19j0ER2R0SOAUqkHxz3mx0QP99mvOpD2UxwjO7ji94sm/Ijv4QQdMiaaxS9DZRbAuFeOCdhT6UPSq1WyC+1Q7mAU2qwwdhTiNXAHYid4I3HgHTdFUqHRsqTrvSpRpD2xL9kXO16dhKM/fryzJ8p38QtWMkTwW97nNrOyhMfo+KMmc3XKgnoGATBmRmRz++Za73qJnaJX7mX8c2gNysoAbZHaV9W0HliQxbHmCeqbc3vr2kJRAFgcGlXcfrC5iJS3Ve7ARJcT6PhH13zbcHLwPwbzsUxENXFKrp22YFei6DHRhsQuaCOEXeeSX3CMcK29v59VaK10JwmcZc5E9kce1njt/ZkPD6QRzWByS9cwgVHeJQoNlPV2YKuO81/TuPC+6AJ0ceJ/EHdF7FwO5Yyy8gy+7+zgn/527UBO84aMU/jMKS8Nk6KMBBtzQPl07WNudWyOgFXykpsHnzKG9GZJzGG0aBRoBqtypNvzUSQ8Gi9lt0GcYb046i01cMgcxDPkjmbsBCB5sN7g+3jXdT7MZtNviJhOYg1YMAu8uEmwb1hX2c2mSgezVqGIV+DYuCJhy1xf3vcoEgfSmqXjJfc87ejFFqX7YdtaU37K18xQk8rB7A/elfCeLTL09c9r235jMnjmuMkJ+JVIPZ+BoLsJ+WjmktdpPLsrzA8OOcYsUF1JWeevZj15NuXjLPgk7jZoaPpBd07p/7O0w/dk7h1GDPZJGnPucSPgoIxVoILIs3ZbySR8dP93aDI1KhV8jIRlmu5boAtHXwJR+9Vb2M3YrRnCDrI2btYGRrPzk3oqOL625mQLgVEaUurM39OARa0FE8zEf/495ODOplncI/PeLrG2a5QdtPzg69l/lLEStZQRNDrnWxJlpAO05fsy9fpikoOdvC/xqt2W7NE3Ldrupkua4idyLADwZalULl+P4do2sxvuaDlFB3pOpWtbe2drtl1gneuv9FtBJltGvNZ0gMd0wmCy5yEI9Uz3fcODEPXeVQJuw7VgpcnkV3gKW7NQN9O5LApBAV6y4upk8olx0yi0CTgxze+HyFMBXefxLZB65JgL4qH8r0gp99aJpe8idYZ2vUX+KkhaSgss8CkMyapoznWtOOlAfJV9Ppk5+xPUFbn1BUYNzCUEqnCUhxTnNMiOXC+rcsvBxW7azF/ooDAGCS6AAH0gEJT1d1r6zPJoRuDQVS9wMhbVj6+J/zQU+YMwAuhM6shIzNod+6QNq4aGSXxHwpKjcPkKZ+HMuVR/zjQW8ezHuJlsy63Ucs+xisGth+9zFoxSYEXUJc99cayrj+wTalcFA8jkiFUHs6rUTsE7Cb7WfvwhlWelBVNhSKwywoUNghiV4k0ZhHTQpPrGH9G0nb8ZXViloj1Yh1BnsKKcUUk0pq+jlshoHHtNUjauD7cp/lMVbUyKbrn6Ni7F7rn6KgrHdXpfZavdnv8J/z6X2t43gEzkrLXLXHk7itHfn02Jbo7bfFVwt3fNDtww+R+IV8PBIEM5EKtHRrBPYIAz2QQ4uTLdJY0s5qNkNQxMEWcN83p2nuw8HsNE39Qti5g8NccVrSomXMgPylSgnZthdZrNazEbgKDb7udx13ngf/zLKxNgMFEFNH/g3mmDJ+LkPExuv5EFzJyrRmtlQ/5mguSfDLxBxy6R+JXODgw1ia/MmvnIwqVDU0vQOo3B9AdYBbd3cn2Yw+CX/1xv74M8nwhxC6krttVyE1o7lGwTaEVQPwKXZ/OLwGPtC3Br0V3i4Gm616QyTkzeDA5LbifV5IGSeDqgHmB8DDtzmHAI4cxnqLv5OycdUZxlMP9LsASbDOrlHNDKuFmc60tGvE0WAHP1Ecy8nzAd82y8jpCdaKhuZZiYB/B3dNQ463R65PTD2e6fXY6K0MXrXEksDIp7L7lxvSME/xKP4mWQOULe1375rpcBggT+bT5WS4pTQTVGW/XG/orurzhITFyzuQohKc668IsmfyfU24pfkM91fZ5M4Shn83HUBk/YA9sjFMzCiLJVC/Rpq1LN2XgrFkdy/71xXwFTRpL8kPPt5Km6DU21ympj3+QV57tInYaRfEB3WviOLzR23FXHxuxoLpoY7sE+0MENxbk+hK6oJr2DzL+4OFPxHtKUVEDORzB59n74c9nfW8O0kepmL1qJOAH0s8vBKdvtCwmxkJMdmLNapOs+MQ+d/gyW3NYwB7l15H9T6Q1QAFRKVWI3dsC6zBf1mEaEWPrL0qbiaUlGdFnWjDy7VKU84jyF/wnC9r6ECVYetud7yxWxEanFbQoNp1WQWxiKDM0c2DjvXyfOEGqPuToHLYZq3rmCEnIIPg9W/giEJ2dOcekGznWAPK9j+o9Z6A1RzhHQrikKMduqN1V+7TKzJ7aLgx7Xpuyig81tbQZ9WhoGgvHjRqVEOu4U5470uK+gVO8w5I5VrYaYfHd28xt91VAPByBxTcKSTskWo4lWD9fOY4zkiLFLJoM351gmqnwLOsWKK8BJjIc6+TsirWFS5GnpevI/s6xp45teTR1yut0BoAjPZIcH04nOFVURKXC75e5hDNkRqpADCMCnsqq4/yWlcjNoVEWRxWkFicfVmkClbw7c4KQLffdEW1RtyOdH1K9cWT9Nh7C3oM7KlQ5930DGqGkvBhNgisxy9KjTy/O2nmJ2mMUb5CWMSh6Hs26f6oCaOo5HNCa8GPYlYIubkMcYcLP7YqGTlPGK1OxY84oF8xB3QIEF/1QwJrF/RGmS45hc8Xc9Nio0/uQln6iV9LjPAZ+FR1uUTIHgaWL5PgzBjB1yr8Oq6H5Jz+Iv/vJuT6QiJNmuWQ8JRkpY0ADPkfWkc4fEk/YIKdaVP1QzLBZzJnwNPH6NgFd586H8j1U95416HsPLPe765DrwXjvOOzj4G7MEllBt2VoYANGKn1HLRFKzN9+UESx2XAwDlRxNTcMqzk6kMInwJo79g/acbOjaj09Q5q7cGOgABOWcsBKBTpp9GbRui91bJVD/dLezgNAwlRM1BYISgpj6dRXNKrGvY0hQXePyT3LLZlI0HDYyHyxGLnRjtoYqKGuhFILqTdrkvKrtw0Sa/uocD0NciLZ4PXIWJglgY4bhE0v2m3FITdZBqK/lgp+vgNu6gjwS01NJpoSZduTLE+8EQvgSX9vv+Y1q/2XNsgaNe0VOAGkADc6damNFSHaG09fV3fBgfCMh7FgBxDtt85gHn1GtE/WK4+CQFRGd3jIgAAAAABfk+MOK7dsVzFD84q65V4z0Dcdt7pPIVh6NgBQKzhJwKBU8wqUpBnn/I1qRFcOFyi3MMSTKE2LwaA/svSfT2c6nXt6rLGFqj3+9xWPKSnMxGimghil05eB8WItMsFABFEFXSLFtvHQQA9QPH+ZnO2ttWru+BKkKT9jOC78bZYsrd/GEZJSQhywjwcEendYU4IvOVVCnYt9jX9/J+PcTDbTk/edwwCy7JeM1vlhKavP+yYwTzS83Ojup/4T8dcqURk6yTsWxNSFwHovxTqJuKmDRPDJ58Fig+7V9fdITmWA/a+9OXNfqvfB8zMAz0yR6aFX6gOANAYGFw7u1qV+GqG2IIkB5LwJZyAuQbAAFJuY6MtAZ+jXtYrpNwE5YhcpT/DMczkbhZF3zLoT/Q1c9SDmuazGksgYdKNmpglWqKN8i6/gT1SRECui0f9Hr9q9C3tAUp9NMrDuDzbtdeoA6fsr0AhAPT8BGoHZSslgMYphpow62SV4XXv70/91Oezisrj9NBs+S7U9m6TX/+DEWKsZqilZLuQEeu9e68ya8zpCS8bluSdBnDLOwTdoAaemF8SlNJSgk/zP5WRuhgCk4qyy0cShGSQ7BWlAYRdaaGn01br8hsZtNklsarHW2N3dmpmXTF5ZTzMiaHLmNMisoQQJh4MUpV5KNg+qjXwtjmxNb46WB9THM3v8uSji6FqOwmChMQ8hySUhZUkQn4u2z3z5iJ6vZ9uXoRZhJWqYVpy/lStg12UWYHKVBJd2iNrMfda4ZVq0/m1oSmxfX7hq0kyswVh6NgOamcoxBBx5i8uD64PgDAkVKSuPSDJ5TpQplpoV2/r9IErsIT+GZNzwgAAQY4uHfvHJpQr++x6EoKKY7JnADs358PmL1yoM1RVUkcO8OuCmF7xGudGfE3DQpaKXDsnQPqofTKwshh9SytWzXI+dyQ4y4ZlMuHq6SVs1ySR2VcJ4K5FgjUiBgNopJaD/80zoyOK4/f+IQ/GJRx149LuEA4x3tOSTmFaNBTT71tVTdhESK5/mHlzCmkabG2rp+fA9hfdgav455PFDw232JOgT9FnSxaCDgTGy7Db5tQOdeAmc+I/IdZHUXpD2p4HVn9tDmwuTsmpVJQlqz9g081bxhIquASfUKW1NlA5aXDBvohbWso9GIfb2eVwnlGem08b/QOOPGKsOaf6qNpMCBy0vHgOvU2+PkBOX+A5ERJGWlfSuYWEcl7fI01SqqtkAXERXfEv7SdAAkbUBp5L9fENKrI6sIDaahHuUkAPS9vgHhcyAHUk47JuN0lZbMsrWKYKo4nlD/otPJz/8kUmClshbdnYYcV3m2FrA/RC5H9KdeW/L/am0B6HzPDnHJyacEaPovsfndyM2qz06lZ3i1mGPC80lOaNss4eB0U7XdgdRClvwYwWdHGZtnphKiVzvyb4S/QK4rS/cHRt4lMaxG7XHfDccK78oTId1It/5wABAhG8G/888CNVQCxIF5qriTTE+4Bb1PTkYrl0pfvx10mrricwg2vcOPOIX5pqet7x28aG+oGflUf2F7lSmDF+1RvOJvbr3UVMVsoEzUJn159WzR9/DQN2nYTt1ypQvNd1Ypf1WPrTUB+jJMD8g6pj4TX+2jiVo/BTimE92mUIjPdHDRuG7v7TxCDFWDUuWkk7MuqQvW5hJmc05D/9QhLHMmauzwASOIeJhPPap0psp52L5yqF9qJv5h+TSONxAcTbW1UC/2kGFEslnTEayL6nuGvyZ2D7CyEKkbECO9lhgpi7wY5lsnhP47AM6gcknguHfshk3+UmAJyAGRRgkK606O/CDSdxhi/AFMbh88WgQARLr/T0+bgXsUdguvYy7fxwJAVohj/etV345rXsPhwBo0VI5/1uvJyUzyCJSOTOonFPGl46JXSP7feXwdPY1LQsTQ/VZz98lprdkLB9lfSdVBrsLWqyX1ryawlkjAVIikv/E3tGoOBQQbgvXdpRIfWA3CGLA4GJSRImMFKbFleYKp84sbiFfHOF2O9qbShFTWkfmK2q4TzbXJrjOUQ2oxPz0xSDjNW2v2zChuBj1ZCjSXkjxqgcZXiyoHWp538QzhS3zOeD65wVtmOJFklJxKMSd3PiIG/HiVGwAZHSqC6MFASPeds3ogrozVWf9OLc9JTaXj4RiOSp9KCYHWqTbAt0fD5nGEYeGittQiuolHOsifzmGvV9p7qua/k7RUuOAbuGi/TOEnazYBcJenLph0DPfj6mF25IxgGn1emGpKSLyy5S1gl4apzyn8SbhOO7KJjVq8qLGcCwErAB448ud8pVWDflESCWCsLGhT2pXRrCLUdS0FdXoJjyUv6TIkkglZFeyPDnennCoEjw5qk5Ke6yQu/vDUUeOfcm5QIyzw53gkOK7lzbwbitk7A/58lY5Jd6uFBuxVlbjkAbr1qKGPxQY7ZOa338CjP6BuE58PqF1e17jWubvJ2n8NjISGNZeeEKRyzMqXBULCuG6hfZMZBvlTDbcMBxbm0Yhj76Bp6/ZvwbATq4eT4+OeZgFmtXq7FWB1qnFdxLLqVHj5//uAA1T0r49zhZACANcV9eKfIVQw5hUFV8JU+Po6U7jg6HGZxtDVHKx8SeiqkjhUasEUlRoxNDsuk1KskKL6+RX4S61iL+3TWQm+hl0YqWmQlFxVRA+WA+h/uHbumXVhlEPhMI/GAAWG+pN74JagAADoQAknJzrSavcAGfSVY02BhRc582YAAhLR+H4zyGVH7hcxQ8vCUQ68myTKvBVNvgP0XovIgEajEaWbXcYD+HXeH2VIv+XpMQVW1vt0qxv/LzIKtDNPco3PkDNwPC9kgxyFe7X/QU+zvdumcPhIlu9L4vsDgYlJEiYwUpsWWjvAK5iMSRSKjW2M+GIipyvzhYpyt8tGvkL8FmeLz+pnDIXqSlN5ll/Oe8oeZCrTQ3i8A3JMAI3+cg/jcwFGzIgf7rll8S6w9+lBL0xEp2YR6cXF+Nu9NDReRDhTF1cx3KKql4gKG+udNHIvuCpFbB5zckx6UnteKxXKmv5/ah11xoLAvrDvm2lIEkvHU7Ga9s0eUMSEt2DNPiDXETZ8nAwkqwJKEje+C3Jx3JYYuPBRmEuX4mU9hNBVdlwJ2BaF9lFChw8tFp6F21ltVcWH/hIQS3B1QNGfDxiBC7dX1zcnL9ex8r6RU9s2fTBpzMK8PhvvDfTLINpKW4M76wuvXV+0htFBN5BL5Uwc6qnbya8sEIaHhd2c8Cri84Tz2WWaFFfEN+ItpxBIUtyNCi5pV4VOn2M2MeuAgV0lmwLOps0M01EA5soRb0ucU1rT3yFLHhgQGuGJJ1lbp8g3uiv0tZEcH/2lK4NKc9IQ0YwLnKbo0YQZXLpoqFNEUdGmYG1gHO/Yt6PswN0pthh7FAKxkAEuoSwO6kkQCkcN+hQaJTxRlbyx12TBL3CS+EWkh/T2uQXSH/P6uMyl6nAn0JTTFzK8pnxVWw6B/g6nkjk6hHTTFhCwHdoHVny/YJJ8/WdabxO5BG/1MUPoHE3A8GsCTGOk6MerUrtLfXYaBlOiVnRveul3eSXf9JX7VxNn9c3mfYthtbIXI8NMBlMkpDzS1RJBSreZ+XHhFhOkbnsnAlENkj8t7bqubmCD+paXQ2qQh68NgNdSJJwefDT6i2vHoD0NGeM8RUHzeSD6XXpmZiTrs8y0XfYBsBInvYbPAJB5fus3sdVJdWvB1Xdr2AADYBKxo55DBM891C16HKX/YZxAD2ACdb40u01chxVn+6wwPoTVxqIKnDdRQ0VQOKM5zfQPdD0pfY8CANfA0tpc4joL/OL+G+xMAPWQ+OPAgOW7e7x4vcr1i3rJUZWJLdoKd5iyaAj7CPhu4TYZoh4DIpiLohQ8Iq+7xYorsCTO3PmnWPiC807RrMe7JLQiLp3LnjVSOPI0cubR6Rw73iUq7ESa35h1d1OpEGuYMf/bcY51xG3uXB8qTVnx8FXmLDzr9sVdUDtf6v1YTlo4RCKhkS9ZphNiainYA2PHN+hGyuHyhi2oSu2WueilstyNywaXu8JyPYCrX3VhPD5nuXbTLLPjKmhH8/xsJpML3phzQMglAtCIkv+fUDV8WNN0/6YAAAAAAB3FQFqo2FtXoAotpX0bKSN2hzOIAABAjeS1f+x2zuPiasqsyHfF9hIMe43Hi+75rZmQtwBKNbzLHUmdH1O2RXidYAjX4/XuvfBGEgTY64BbOxULroNeWYjyMmsdvAdod/Rb7/r3QwYLO7t6M+24pbDzW7z38j9fbuh5m4rGdhW97mqyfwEfETe/hPInfoLkackDANnB9HaNabd0cf6LT4/IN2VoC5jN9sf7sAJ78t/lLSKf8Fzbbj4dgyl3uNi9EFrAAAL2jM+zYcKzj059DJLP3dMj56mnkghub5Q9iBogiUKjihhqd8/onW/abW7vyf+We6YLExPQKXEqVx6YLlI2GmqBAfyDc90/SK8kDU/MBnLEXdbmHnr70NW+h+w/jfnsqU2UYnonBtYPcDBT0nOAERFJ+160WuypnAf1bnBqQW6nosPlQAmX/wN8Axqp80rXhXFe8/qVBqjSIv2K8KIQpy4EbKU8TcYcTkDydUZT1GppaQVAE0b8JlGBCKNEz/xfIEhPtOD5IHe9ss/hjZH84AI+GwEJuf8g34Cpre6jrowV7E87DiUmrsS7dbWEhsbc9tUsvafsAAFZI0QxSHgP2HX5SyPRj2swqeurT9FfxstvcCgeGG/q1i24IUQysIXpFgUSOGG366/B6gTL72d/HcNQAAAAAEWOtw4tjuIpPMn2FFYNVynu3a1s+CvzEdbNEZ38dMHZj31gPAhXy+fJaJoq9X+hZ2H80IsFjlEeR5FP06xbsZCHtg20aaNDoFw5bQjlEiIE6FD+g5IL0MDQOAd300BN1At/22JA4Ql7cwXNwXgzdGms1rfp2e8L3lfIi0ubZMUnvdd/PK9YeMw8dhWj+oqFHPzW2cXu2P/j6iZjVh/spaK3r5TsZG80OktsHSzMCLHBQE2Rou9tBGGLue01uc66GCMpzSwVcH+8zAfCdLVzSoUyEXB53MBT7uBWaS7q2+aMJ9X1BpupOSfIzmw/IagAAo7A4aYfns+O10hEGXxjIwLTIn7Y3VEkb3xa9GZJoNJXzb2bQ9M4f4EgAVFZgxYNdXE+4pDx/BlYxck2RFxN1GnnD/b9YojEsm3COi6ShvWoPykQYctDiXFKwXUJMP964L3XnDzvZeaWIG9HnK5UDZrmNpnyuMNGoPxYVRZatmbbBIv4g4GlmRoTY/Y45Kd5XMYLBcNsOLWXL4IhB1OgeuZg8itCgBucDBFzX3t0f08cJYGADyx1fMGW7aQ4gW8uv1ZJzamiryKqbAuMob4UdhuNPDTLjpCP3vKIWoSCVpECE7ARygi4hX4hejiU9TL4fOBRKQ9Yh+kVqgwgZY2jG6Lx8Fg9LTAwe+HcwmK0J2k6Fpr4ydNCB+eqYKIGnWG4M3hgcBVBZno7m1scjz2R4Mmyu6sxa8MypNRsrcysfWdw6aIYn+U+ynaJOH2BkLiAsxeFGjekGgND25OenvUc6GwdAgLaKe0daU3ua9Cn5Ma+TrzVZCbM9zfUwYL50ucRJnI9+0nHtgnc8TxfNZez2zwHHapNotsFrIzscFoSzH5fgfCyHYsURWaHdENejl2twt5wuQ2nHqNosMbYjlRR+6fvCBVqtI4xitlzISP6tQqgSIDma7uQeq1vzFVIVno9ffwE0xfbyPojXcVjrC/LYW7aCYr6OMIBnqyTHcGdFGQ1mxcfRTuSjTXJO58GBw/N2HP7S/WWTtI9GP7IkZtiIc5bi9cEJRPFi6YR7/nr4uOfuGH/vO4RNMbORHSKGJBOL/UDTy0sw8fKasUkVCGHfzua/SiCH/wFvqenS0RGITDdatvtJY25jiU6zyFq+mePdFpu9tevMvNZEtjWYxwdtgtHeqQlyLXrUjkUz4H4CVq0Pzo3wA+QiMWvdhnQywYMzeleIQlJ/vDQqev7sFOLCNZoAK0CY/GM3ZQxnVrTxEHdxMo07ELPkrDy1xM379/4g5Bv/85q82LaMpwqtXj5xJA3FndVrdTZvoBrI0AKwWfjsJFWA00FvsNf6QFIgMyiFf7j/hrbrgYaAsch0Z2M6WI42LcXwFOmRsecJIyTtku4qBwZmU1tQO7NEISXUWzbAGMRAJL/ZZNQif6ZZZ/Adj0X2Fqfr9Vu+wTiOi0IqgfgZJrrdl5oMt7Elyn1hRgQzZO2evFr8uCFx65jTMpQT6rb1X4iUHtSrISuAYgWTDMLHsjw18NnNtEbX9VSJx67S+k5qMpFBtWwlx/EvTGjH3dKNWrlVje7JPvhPG/7oCMKcO0OjM5A3yn3WiqcHuhxGMAANDdCHS4D0+L43z7akne4dZSVJjUxQAxoC5KEA+D7yyf7V+rLF6/Srl2k/tirCqEWrAljjqzroRinFx/Qh9yz22AK0O9AAABbK1KfzLH57wpAfQ1bsaJuTo/FwVtnaIXpiiUKUIu7OE4eMM60hET89PET3rDHirW540nfHJb7/f3DLBEcSBqSHf8xIya1rJcw92IGMmSpeflCEEGt6QlfSUI2L/Tc/uTlns4Oac04GRnX6Z1N2oCv6o+Gq5KaKgY2My8FeFUVOQ/npbbCfL5NA8XQfgkvhuQ2PPVecfblmFpgu+XH5ItC/A4lXXW7OAdewrDYNN8DFdjhq86neXOss72B+7smvGHckm7kG5LCMF3ah98fR8AexLz10Ry23dYHic8TkcnndbFr8kwClTnM7vXHCRUOT6CnJAOst1zORBC6BsSWWGakRx3iFerZqSbLre76SAOU6SygKl3IARdAkyoyfGnJqT6SiDmdQAAbbgPD0IsPCI6OuZSkN54eduSoqiRDEzpcEUCZ7GWkSgn1WE6pI8x1e1RCtJ/zthkStL49alAjUYTIsnR2MccJo2o1p7O3jM/f6xyUtLBsHmr3YJVzvEK9WzUk/7dzvVB0D6D2FdCWOAAADUsK98+aVWTcM39mTsGct1LBX1KygFgL2yykcwwJjccfU+DL+lhUI92pMmISwxHKxcrI52+AmiodOZ6vbGqJoeqxSNHjeNYRM0Fy+GHtwx34knztl4tOK6ViR5tHmUuqwz4+yz0O9dwa94hwd4fnnwxuwCPK+jETJ/8mNRCj5RMCbYBtQTBnXZsAAAveQZ8GvRupe4rhUdGDkKym4q5PiuL/rxAj0Ea4HOdI5AnDCOtHhRLmCjtxalEVjBxkA5JSJeKzd3HafgLtfO7RKTVaQrSZZr3PsDjV42wNcXWGCtlhMD2pN606RoGr8o6cPlhixtfB5fi+qQ+0p92SJEkxX7LdZyrxQIzH5cXoF8KnXNtG6h1sglTkDQUgLRsysYeRbUVapPUXE17an71QlK/b1P9OOInpvtZzdTzQePOB5idyHsIkjsbCBfvv49Azj/PfAI92xIqANKtMbwpE0xxdOUyx7z1iIV9kk9QcBtmsYTr7WnBCfFgFQ2XLpACkrTpbj7kdXiJUNrZMQoAAp4HibOj1tbOcQIhQav/L3KQpzcO3X24Nu0JNarRekEIuuMOTYrLvrNkECm8EKJ1fbEbnsT527F+lhng5/r99G6npO5TKU9TNsIGUU7vhPgZc8+YRBN9FOJHmKe15ElUTcWHBec+Apejp1RWJeeZ+bvJib3rQhuRgxs/aZW7LTLp/+BDIMVo6ywOxhbVHmDoCbwG7DT1axk/OKczuSz6/uM2IDjE0BvrTlaNXCSlibyo3bp8k+261hlY/vI/nHqg/TtcaNBOL7R1a/a10sE3f1Ps2siM8Ec/XiUOFF0/SyUmZZn7njbkzr/BjRgqjSMnIT1AecS0nU0njjoMGrZA71NVozj15nOPS1aJecTib213MJgRxz6fI+FrIXwfA9JrffcDkMnjmsIH2ymx8U5qg39IDMstUOZskJl0bvegygyJkQe3yK2JhXyDu7UxLuxoAbTfPwEBbBe4toDRI1Pn1+20nZUC/aGkpU1sg5132eQfdgdgK+KllDnT+VOM2ZTi2QNSbZJvrYSRWNdVMOgS0S2RlXsaEGnaShkdB1awZ6TF09AvVDdm7ZpwJUwt4R+1s8FmsoVMtyLv+L1BdVzhO7cKReiH+741OUs/6QE8coNDE+FPOgTjMV3bt6NaJ5AlanmqLJ1fkv9hmp3Xswz73WOhlNGXCjI8bhplpxdnPzQSHMAHTAqWpcKJ1Yh8AAAJKOVCyFhNHvF2z7vKC2W4AIXADFxCwMUTl+Q27tiZgq40W0gsfXaKVoYmClbgBhPR3hX0IZyLbbLMnAMBDVMcHir/5YTyX5ZJnDw8bYtpUgWWLeJFQ6j9tma4LVdIisyrj2KGizlsrRHCIta7TR1EGRFUEld4Wqca4RZ+1348B4uPG2S8Rffnv87PJb2kDJT3RmLK+tNl5KRbd9I4Vv+52Zhvgi12Qa5Cd7xw6LE5ut7ERU3TZ1slL3ksXafWGjo41LEfEN+xckiS0VKL2uVcO/OewX6Nr6CjAzCfky7Q+P9kWZurFp9oR/ZtiZ2lt/1WWcgPj+KMPGW5foVD4iN4pIdbXr5haifmMkOavTq92T9BVku+HIsG4fTUl9G7++k9kI+5ZVfnRrYjcjZvn3HDsEr6Fc6dg6i/wAl8MoysK9YenFgeZym6znxCBQ81a3dsse7Hzh8JUM86e+R+XqOxIYW9NeZo3E4r8b/RhMib2QSu7J5YoWhiHfsPS0C46WaAfE69Fxk6NTpksWXCyZdOWg/QIK/AH5J9ZqdF/Q3dtYcnzgVMgR0aGWo48VrMzET0nPPM2Qws3K9BX3Kafoll7b6joAtT/DNUYHSBlElfRguLXKarJfL5FnkOd/8tSdUYPr2ErNIqDhjpvsbhPiGqYOaRaqgcp4urYPlUuY0U1+E2OxVF4icah89w7L9VeuJBF5iD7l848yzuhDIisZ65cgW3gJK2nIjyPpeBPa84s4q4a0WX6NbWnAYZ+5lz/kY55OcPt51aTCNIxZuB1Uqzxm/pXFj0MGiWx+SIS0dQxFPQdwfTEC4Z4lDBDyy5CVV6XC8R1ak0DVhLqDpurMpI1rQhatdlKSOhvLx+CIHrYuFXwt+12+s5gLhCpY4wHHXh8yl1WGwWqA7Q5YGeTevHCzpeZ1MZeJHnBG6napfS59MclBcIGDGSfpcbr0Ty0cZuxp1z+k71lt+rgurtWe7N4Hg46vsgZe0BCDjnRJeqWKl0KcBOf/zoe+2BOeGQ+ZwKU3n0PoNP4QnXrromBm2QtFCVmRMKLOfly5ZBZTkbNAAAUz39Jox0bgwbhwUBOXMF/avHtg4pTJS6RuUz6zb7OwDI071f9+JdKMS5xIb9hOPP5bf3EHKZTQuzKZwLm7u4ml+Neh6EcKH353vkYbx/PWo4Jk1pkqHPf/cctr9VaG9nwPhD1h+KbBb9qNWGVtURH+N/XyyVLu8Idh8AiyMDP7MGFLNJEiNSGJXOsq3DhSHsLmyikSFXKsK3TrDO5uMaoIJw7TcBRS1uU4PPBInubbnevwUBLIfhZ0j5jhdI9s+L0cZMOfmImLmuA9MdGoW58Iaw/U//91/8t+K44LimuAq/t60N/aF8heZ4O8k6SOgTk+CGhBZlmhPN2cU4rSrnr4zYx41R9EzRi5eJb2GDvBy+wPWAjajVPXur/UVomCG3WXd8Dw579Z32KTJ2E4AVYiBCjAA1p3ViERU14/J8LBOn8SzE+x03UB/etX6qq/qx8FI1GzQqbEuw8sqimpl11zjc6ZlSOWj1OxrVgGluaJV/akW0tmiclz6tjup4rrjyKkspONogfAmeBY4403M8zU19NnvnxqgoNxO7/IWfTw3xsBRSHpYxKau02N4KDEz8Vhd9KoScAd5BkIL21264b4AttmHpk7ne9beDdZ0ppuBYpAomqrjFb3rBjxa4vX4HniRXL9qEDvFyXHOw4p51JjVw0H/1lioUhRIL1uWwRSC4p1YQkJSjWNV4DT7rfFfhJrE8p09m1Iw30kNfRDNpieGPqwhLacOn8kU/qOpT47bZCJgR0QZSq980JyM1yiR8nawTMx8GVE47R6+XmRAAMC36JrrB5ATlve/Rc2KA4AARettgLL4fPgvDwQ97AakJPkkggH+DgZndacE7D9pJ9NT/HG4y54XawwrhoYdoR9XeV3NveY0cliVDb+lccv3d4HYWyRmXtaRDGyHTSIVIbdLFhY9pfmlDLAFQtdWFMa9RJwCFS/ybk8+GktdAMU45SPOIznBtHcf0ZIZ/4HmlMWAn7p2pCwKzYKLyFkdrer5OiGCfMSZEiN6jBk6kat20RWrvtz4Dh1yO+AacRLM/zkVqCI7n+nrcrOrlqyAfamm5+uMqC5Wpp04Bk2GIqxCx9N8xqZycf1r55qpLqicVRRUauG38Gkz2oJDMmqSHw9Gd860HO4niBoX6Ssag1QwCYzoBX6nM4bbsa2TZ/PyiemF892kEsKlQjCJWJF614mIShSxiCCk9E9JDGwC88sxbLeCHzbmKqDZWeif8D1+9qLki0FgPCyEPeN3XQQn0pwJyHvZlxnvkGIU602C2w++LAbJypNnUAb1l3nAjCxsiRIWIWUUmYVQv9abunPF4SO0MYcEFZCT+AlWXDuC/BGXGS02C7TN1ui/bkafIuLaeschFTXOB0I2EbcevvfV/nMGa90nbm1um1scw40UpmJdORngipc1xB7gUKJxnz4M/hQ0n2zUJ6dHd4hqwAAAbpACgCpINzOXiBoDq5bvFWkH6YK5OQbsyiwcjOcwBR5d5GZcQwfcmwG4nTMVWFTUvXTOs4zReuLvxVT5tEzJW0kYuqUe3kFw+W1oxI77gPO42f6HUtfT9IlinmP2TPbrNFJ52Ey/fwqrH5ROBRkk39ZV3xOvYhZzDV4LGQOol12AyNzqX6W7T1OYtQDHom/618lOvGT3TGrIEfKs3YikNnNsujAukg4kZtuwFFDLDDLw3tc8uCXG3H6yhsXw+CFy1ARvdcaBMyA0ypy1XY9h4BSdYauMDJTeszI/p+ikQYRQa8/16iFZxxUwG51cC+Hb8RdtmFXOLrzN9bpfq3AuWxusToTbP7/Q0Pv+dD6/1ti224LtiebIP/QC3T0PROETO2srDI7ykBV28Sl9LnLZ9whAxwqIqLD1miRNyR/Pj9uurvDq0OUWlYGvi/VI7SoTM7MjY0PAhjvzln/WsN76JxE/pNh9Yt/Re6/2hThVXG5hcwlafYUzO7Atg0F1v0T/QtcHk1iDGmv+4v7jHlDLXgM+Zv12k98uGOojDZkDDt7/P0vmjUgO2tjs90gIYR253lXS0fDh1Jn02nNKKdLgeJgGLuJYlL6jJB/RgoqnptZ1+MLRktYZ0MhM+CmMSmOFT/3YTG6f29e8S/b4yPiJekZTfxMsgeZFpcxyXqrZlwjS77SLDP4XHXE9ukoUIGZ6egp7p81eT729O5RsAJtZMeHDB3HBGUgAh/wVyxFdTs6W+yf12/7T/N2wIP1TPhW3F3w9AsXF7eKYe+vomNtGaqW+aMyBrl7FjTmhVIh3dC43rb/7sgD25Rf1r4MKby1cqFSYkr0Ar+Y2uKhhkyRLOxd7AoowCRuictMgrhCSlx6ckKS/wXg8r0zRWMS6GVoUnzq/wUeVzM3a4Zj6FLZkOVqCQjfCh4gW1yjFjN+cb3Kzmw+HCK20DbXdSlYu89TFfJ4iIVUs8P3WztJQbHYI2GgDkF1GAAAAIyYivP1ukAIam9BLvNIKIj/nGu2EYpMid35yol6+6lxihjN1kfVLJdGO7epOkqr+/w6ZTnVASrqKoDcO7AL3xqVqngOsZZ0lXTbEWhbqz6NKJVqZQlDUEQGcD2OhEkK1mj9/jxz1ApCx+/QG5wyOw32vQZpfoWCAjej/u7H2TFweEEvn8hcfvlqfCfJ2DlzjlsRn0A06oXqdWUbjFZXQoJNAfuaTuF7HIyK/Zr2jV5gbHi9tplWhQWaUTZZ6fzGXxzDXYwmbpNB3vbHWg3VRBcADCI6BNbt9Dd/sGsHVVdy/6PNFqS+StyGV4Zz5FLjiwJ1zS0DV2rf36QpAX001ndhBRdxvt/kZCFeL54YcOEi7olVa6hMEg4OI+zSnJ/pLii83GhbNVxrkCMbvdYxqXtFj5GQYTBuKxBqSD+cZSw98K7RMH/Fww0hk4yL7Q/JuEs/P2h+xvt09ioriKWRKgVra5QO3omPB1+1ZXETet0ak80jYRPIxdfSYoC4elWsyHwAj3dee0S6aIq2JQC425tsokJ7i7bCjtqQJCbaIBT/AKD/cBZAdStol/9xWxCwk/ZPlsqCZ6DQAAAAFc1WrIg+20xlei54Bir9KyH0yXMkSsvrfIrjNN5jSwgR7Rqf6PfzVB+vIUFjM9GlMqlmX10AXbFSpteV6DaN2OGWStH30Z0RBFwntAUGEhcruv3RFfrFqs0A04TreopTvMoDCuGaMrLNyLrPJkLTdxYpV5LRhpn6feecDUDi90pa0WqhIc4+FeP0tqHFXw+yvgtKQQK5l98A4Dtnaqr5TyK1El0bDDFN08wzeEeWg27930RRZ735REHdNjxYYKlKqRnnjRGcgjCI7VoDcO7iDprkdi1Aa/3VntBnJcMd4oXSsy9DUcbqtrazx68UsGtJi0OFOu9IKfCUlISItspBNoaj6evITjvP4a/S5NYh8XofXR3jxOxpaNdD1VagS6atwxjsZ+4RhWHo2L+f/D2bV9dbrMMHZzTKzv18a6AbHBCokNodOPY/EAKk9D2t22TE2KCw1h74c05U2n3BMLtnB3BgfiRBf/R4OZ2GgtvKBKuwrxdq1KNWDN80GZwAvqG/WOYM5ElQYrsBuPrJ+8QeIUlf+u6Cxvn0q9iBe8yHubMMOuna0ZZZclYyKzIvqsgpkJ9RV89RhKmOQ5MJYxRDsBso7EfMsKm83l8VA4P9lH7KfwolzUz/kzcviyAzrkaAOwjIByncCMQwtqYabqvA2W57P66WlCL5DNOyCdFLg2a1ILQRrbWhu273ddF8G47T5yUI423gIOQPf5dB9bvAESWdtoo2TffcDHvpSrYIEc/tbHZIgKTkVX0i24YsAAAAAAkZT3oa49EvwwGOravPeUNyE1FiYBZyrahGqiiyjrmFH1Tyzfco1nhHH/bQllGhhBH2f+bDNelzeTnsMzN+b9jfoaKeXww9eB8lBKexp+jdnNe0vYeZ4k3kyRt4fuuecpwbR83sqOaIJVpBcn72VcgHQUfpIoNnvR/7kxLU3jq+to0Kw509Xnwfhb5Qu9ky9enVrHbbyph1VN7ycQ4lmYVGSlR47goIi4WtoOs2oAu73R/AWeFnpgR5LCb5hI7REb6wFEwogRAgFrTpMPDHFbsLXBHJ04BLKOXfV7QoWAAntGuuJZtN2qfbW1pRP0Brg6YB+nkjIGCgXmSG1CTie1OnlEreHgFHc92tgN1v2ogo+GHxyNAs5F+3Cx68a8wzOUfsscnGl5TM47kd/lmHtRaFgprzSL+I6llRwgqygrsNBzYK5C5gsY7zHKvticFI8IVwYV43AXMToBXDb+iVS9WCfLNYn7vyQqnM9KM+Ibc8oYbFy/zMYnJu7udukXz/zEmUETvK1IHzSBSZs/FBKBCBCapJnXB+pnRez2Rzsh7spnEYWWO3QEH/mWhlu00bAtbx1Z3EWkXnrAKZBv8kBs8+HqFsVxOrNqQ2DMu0mHXGCOvS+AAAAAAAAAAAAAAAAAAAAAAAAEADxSEGGe4QhIVxfv2vPk6tCMrVbcID94soIOwyACzsT4m8lNW2Kbo150NK0hpBk//Xq8rfIqkzLrselxvVExIYaXoarrL4ETTMylC5Nq1qQmm48rcngBsTsEMLg9hZKGHL4mpa2aKCSYXs4eE1OjOOlxwVV7zf8xlmFtoWaUh4FHFEGLK72iIKzjVVdxtQB3Vpv9lYwX44vbo9d96DrNr3InZx3eaGFmNTUlMOECdSP/ah25p8he5/ExKDQJ00i+VLRwvW5QVq04EnV+b7bU13e6qnuxzS0GKFt0+KFiRtWBLIX6rpPZb3HdIbPFFkHmCCs6jhoZ74kEgDeg+BwcEKJifTQ8Yg6FjhPca8DwIycgoV+KuTAQxJwEtsM466wusgqnQlQv28ENTGCiI6RJp582ho8oOy8RICDbow/30uibmZbbHJzTREmlLM0/a9SrHpuPJzEnXVIyyckxvbZUZi7ebGaH87WyR595trxEKVBC9xw0+h8KWsaNzIA7rwtfrEzG7r5zDYzuB3R4jpU5IMl8STh2wBG7I93+JtdbzpCDTmzYyLKdIaKQmeXWtj5LCSVQVfAUV3nD+mzxAXGXwc+1kfglMkhYTrge4yNLxUi1/kP2BgcPcybvlYnaZZOrWg9ZuZLAIAB3c3AMMBFPWtupKVW4vN/IAAADqsAUI6WZhaeRUjy2CchOugLaYR/DXk5gFV3eXP1lLxhUq6as4ntmecaNxPSb2jRoKxVKpN+VehQ8wnLvepwb7D+jZ+cou0rJ0wXcFfsZWYiExDboqME0bPcn9AGE5VeDUlfxkNfATwfW0MD03YAohGtijYbTT/HyWNuJAhTtupOzihg6hxBjCf95hgDYxYhYaIDtoLQhQBEmz1c/k7c7tvNDclZT4hOXWv62VAgP8c/yhfIJTJjisSBhNkTfZqAvxwUt+8Xm/rJUYRzXGGw5gzfEZW5Q67tqNwgOHjEGvJfRtg4o63Psinf4gSngAI6mwoRB/kaZM2K1UWIzkriri0dqMK69DTw9WBHH3dZPQuQT05KryMVxZ8KhhgwGIayCvAnsa2hAVte3uxjKfUQu+ZwiDius/u5y0WK2hdOwlC5XxLGEHvsA1TA80qGiowFw8jedpLMUecrdFZf+ggbCu/wky9IDV6W8fKSJ5+ILnUOUZ75apqbHBK0XgNQGrK4CxtVpwGVHs8+MscT/WvVasAXv3maSNFFnp4D8LaRelRSje7ov0rnJU7V13sx/3QmTiObfhaSChQBxyksWnq2CJo30SPU6dA6uTUUSGyUhFTaYXLOR3VM2Kv6rtZLdSRyWGYDXl+YfMG66xO/k+tb2LYV4iGGM6G76ospur7kEYJDsB0YIkIJTi0TLRW99vErCk4WPn4ZEZVAABeSlS6l0QJipWwnpJnB0tGzBxP9+Vd0ef11Bn8Bs5co91XuNAlilXQUourdYw26VQUqk0haYqNnymsZitVfwKgvGPNi74DUCOoHDdK471Fp8ecQGGIchKuZCxzhqxHphm9uOGk7vqDSFZQLu42yR1d/2LN7VE/tyEKv1OetzxbHYf0jaNE9Oh/PVQV0LDDKeLqgCRCejGaGV0ZBP70cAAAAAAAAAAAAAAAAAAAAAAAAAAAAAAAAAAAAAAAAAAAAAAAAAAAAAAAAAAAA=;" vertex="1" parent="1">
          <mxGeometry x="625" y="300" width="90" height="90" as="geometry" />
        </mxCell>
        <mxCell id="PaHSEo2nT983F2EYWPFA-23" value="Bulk &lt;br&gt;Disbursement&amp;nbsp;&lt;br&gt;instructions" style="text;html=1;align=center;verticalAlign=middle;resizable=0;points=[];autosize=1;strokeColor=none;fillColor=none;" vertex="1" parent="1">
          <mxGeometry x="257" y="173" width="100" height="60" as="geometry" />
        </mxCell>
        <mxCell id="PaHSEo2nT983F2EYWPFA-24" value="Status" style="text;html=1;align=center;verticalAlign=middle;resizable=0;points=[];autosize=1;strokeColor=none;fillColor=none;" vertex="1" parent="1">
          <mxGeometry x="277" y="259" width="60" height="30" as="geometry" />
        </mxCell>
      </root>
    </mxGraphModel>
  </diagram>
</mxfile>
